<svg width="79" height="27" viewBox="0 0 79 27" fill="none" xmlns="http://www.w3.org/2000/svg">
<path d="M20.2445 10.1082C20.2445 15.6904 18.9848 26.5819 13.3945 26.5819C7.80399 26.5819 0 15.6904 0 10.1082C0 4.52595 4.53195 0 10.1222 0C15.7125 0 20.2445 4.52595 20.2445 10.1082Z" fill="black"/>
<path d="M48.2345 10.1082C48.2345 15.6904 46.9857 26.5819 41.4439 26.5819C35.9022 26.5819 28.166 15.6904 28.166 10.1082C28.166 4.52595 32.6585 0 38.2002 0C43.742 0 48.2345 4.52595 48.2345 10.1082Z" fill="black"/>
<path d="M78.2345 10.1082C78.2345 15.6904 76.9857 26.5819 71.4439 26.5819C65.9022 26.5819 58.166 15.6904 58.166 10.1082C58.166 4.52595 62.6585 0 68.2002 0C73.742 0 78.2345 4.52595 78.2345 10.1082Z" fill="black"/>
</svg>
