<svg width="322" height="324" viewBox="0 0 322 324" fill="none" xmlns="http://www.w3.org/2000/svg">
<g style="mix-blend-mode:hard-light" opacity="0.3" clip-path="url(#clip0_302_2161)">
<path d="M168.658 184.508C167.914 185.821 168.762 186.532 169.465 187.282C170.046 187.901 170.773 188.233 171.617 187.88C172.622 187.45 173.796 187.196 174.02 185.817C174.081 185.415 174.097 185.024 173.914 184.657C173.595 184.003 173.258 183.35 172.506 183.119C171.663 182.854 170.933 182.431 170.152 181.837C170.179 181.809 170.215 181.808 170.242 181.798C170.242 181.798 170.224 181.78 170.122 181.72C170.122 181.72 170.103 181.702 170.094 181.693C170.185 181.69 170.275 181.688 170.375 181.675C170.546 181.307 170.721 181.065 170.687 180.857C170.467 179.501 170.192 178.165 169.971 176.808C169.869 176.13 169.513 175.759 168.869 175.77C167.888 175.8 167.367 175.361 167.149 174.432C167.097 174.206 166.954 173.984 166.786 173.807C166.495 173.48 166.063 173.32 165.708 173.604C164.589 174.51 163.351 175.357 163.281 177.04C163.26 177.586 162.895 178.142 162.919 178.677C162.966 179.657 161.883 180.245 162.017 181.095C162.172 182.071 163.564 181.793 164.05 182.586C164.212 182.863 164.447 183.101 164.627 183.359C164.931 183.823 165.388 183.936 165.879 183.939C166.36 183.933 166.869 183.936 167.32 183.795C168.013 183.583 168.329 184.128 168.962 184.354C169.017 184.352 169.062 184.36 169.117 184.358C169.117 184.358 169.099 184.377 169.09 184.386C168.954 184.399 168.81 184.422 168.647 184.463L168.658 184.508Z" fill="#7D3C2E"/>
<path d="M187.709 138.131C187.898 137.761 188.189 137.453 188.605 137.385C189.952 137.172 190.232 136.164 190.282 135.063C190.354 133.47 190.553 131.856 189.01 130.667C187.979 129.872 187.372 129.936 186.752 131.136C186.46 131.708 186.365 132.52 185.929 132.833C185.092 133.422 184.802 134.385 184.066 135.016C183.321 135.657 183.056 136.555 183.336 137.437C183.637 138.409 184.039 139.442 185.463 139.653C186.546 139.42 187.288 138.97 187.708 138.112L187.709 138.131Z" fill="#7D3C2E"/>
<path d="M153.093 216.297C152.907 215.821 153.08 215.207 153.095 214.479C152.076 215.055 151.371 214.868 150.669 214.79C149.785 214.68 148.904 214.698 148.026 215.443C147.032 215.936 146.746 216.727 146.724 217.536C146.694 218.391 146.919 219.256 147.043 220.116C147.075 220.251 147.223 220.374 147.354 220.479C148.974 221.829 151.819 221.242 152.69 219.307C153.109 218.395 153.535 217.419 153.093 216.297V216.297Z" fill="#7D3C2E"/>
<path d="M194.363 132.621C194.803 133.089 195.314 133.482 195.764 133.941C195.942 134.126 195.957 134.353 195.91 134.609C195.803 134.667 195.696 134.725 195.589 134.8C195.162 134.804 194.927 134.848 194.681 134.846C192.811 134.885 192.035 135.409 191.448 137.08C191.246 137.632 191.333 138.156 191.513 138.714C191.913 139.974 193.073 140.502 193.924 141.321C194.839 142.202 197.026 141.771 197.428 140.578C197.889 139.246 198.53 137.855 197.857 136.249C197.874 136.23 197.864 136.203 197.882 136.184C198.611 135.635 199.294 135.36 199.553 134.579C199.745 133.983 200.221 133.796 200.797 133.597C201.571 133.337 201.658 132.589 200.947 132.202C200.319 131.857 199.946 131.505 199.888 130.762C199.862 130.49 199.617 130.189 199.393 129.977C198.065 128.673 196.443 128.523 194.709 128.885C194.565 128.925 194.404 129.003 194.307 129.124C193.48 130.058 193.501 131.738 194.363 132.639L194.363 132.621Z" fill="#7D3C2E"/>
<path d="M93.1262 201.244C93.6942 201.091 94.1848 200.776 94.3403 200.18C94.4708 199.668 94.1319 199.26 93.7178 198.764C92.3828 198.159 91.2051 197.65 89.8549 198.091C89.594 198.181 89.2262 198.029 88.9507 197.928C88.354 197.719 87.7558 197.456 87.1587 197.228C86.5153 196.975 85.8721 197.041 85.2912 197.376C84.7372 197.702 84.1838 198.046 83.7052 198.461C82.7027 199.3 82.761 200.061 83.8263 200.765C84.2429 201.034 84.6502 201.294 85.1664 201.233C86.2801 201.099 87.4925 201.235 88.4566 200.642C89.26 200.145 89.7659 200.356 90.3803 200.865C91.2089 201.557 92.1619 201.519 93.1355 201.253L93.1262 201.244Z" fill="#7D3C2E"/>
<path d="M169.988 203.85C170.08 203.902 170.28 203.896 170.477 203.781C171.613 203.155 172.639 202.815 173.795 202.58C173.816 202.67 173.827 202.752 173.839 202.851C174.581 203.692 175.472 204.019 176.453 204.025C177.054 204.043 177.627 203.771 177.792 203.185C178.056 202.25 178.145 201.257 177.27 200.52C176.841 200.152 176.473 199.681 175.89 199.626C175.797 199.538 175.703 199.45 175.591 199.327C174.9 198.675 175.342 197.944 175.098 197.361C174.786 196.625 174.469 195.726 173.673 195.523C172.803 195.304 172.243 196.048 171.791 196.735C171.747 196.8 171.713 196.873 171.679 196.947C171.239 197.787 170.527 198.282 169.614 198.446C168.059 198.73 167.864 199.199 168.622 200.584C168.89 201.067 169.195 201.548 169.525 201.983C169.941 202.534 170.139 203.109 169.997 203.841L169.988 203.85Z" fill="#7D3C2E"/>
<path d="M191.503 181.785C191.075 180.798 190.406 179.992 189.517 179.401C188.971 179.045 188.356 178.855 187.677 178.921C186.943 178.989 186.577 179.527 186.134 180.241C186.003 180.735 185.957 181.046 185.921 181.365C185.655 183.481 186.528 185.081 188.217 186.283C188.384 186.405 188.677 186.487 188.875 186.445C191.391 185.777 192.164 183.291 191.503 181.785V181.785Z" fill="#7D3C2E"/>
<path d="M258.382 147.958C259.194 148.724 260.616 148.862 261.429 148.074C261.968 147.558 262.512 147.187 263.212 146.911C264.102 146.566 264.167 145.674 264.144 144.857C264.131 144.121 263.465 144.023 262.951 143.839C262.107 143.556 261.262 143.254 260.395 143.126C258.999 142.924 257.819 143.278 257.314 144.974C257.197 146.259 257.578 147.183 258.382 147.977L258.382 147.958Z" fill="#7D3C2E"/>
<path d="M305.732 145.486C306.112 143.212 305.556 142.529 303.313 142.57C303.077 142.578 302.822 142.585 302.597 142.638C300.646 143.061 299.017 144.546 300.364 147.14C300.509 147.417 300.778 147.618 301.143 147.98C302.622 148.843 303.797 148.326 304.941 147.655C305.289 147.453 305.561 147.127 305.631 146.698C305.692 146.296 305.689 145.887 305.741 145.495L305.732 145.486Z" fill="#7D3C2E"/>
<path d="M121.529 217.85C121.531 217.269 121.564 216.859 121.471 216.471C121.305 215.767 120.082 214.632 119.447 214.652C118.23 214.689 117.046 214.898 116.071 215.727C115.662 216.067 115.492 216.472 115.562 216.997C115.74 218.436 116.628 219.29 118.213 219.742C119.12 219.996 119.749 219.44 120.516 219.262C121.138 219.107 121.415 218.626 121.529 217.85V217.85Z" fill="#7D3C2E"/>
<path d="M227.091 116.847C226.245 115.873 225.205 115.105 223.644 115.789C223.374 116.206 223.219 116.483 223.045 116.761C221.869 118.833 222.047 119.654 224.002 120.948C224.326 121.166 224.646 121.556 225.069 121.406C225.969 121.088 226.97 120.83 227.349 119.81C227.72 118.799 227.852 117.705 227.082 116.838L227.091 116.847Z" fill="#7D3C2E"/>
<path d="M180.909 185.207C180.77 184.493 180.618 183.944 180.538 183.392C180.414 182.569 180.03 181.854 179.566 181.204C179.007 180.413 178.082 180.141 177.223 180.286C175.586 180.563 174.844 181.912 175.145 183.538C175.37 184.722 176.198 185.378 177.215 185.665C178.057 185.894 178.907 186.059 179.726 186.406C180.314 186.661 180.615 186.361 180.909 185.207Z" fill="#7D3C2E"/>
<path d="M207.515 143.796C206.526 144.471 206.114 145.283 206.274 146.423C206.34 146.821 206.396 147.21 206.444 147.608C206.559 148.423 207.035 148.89 207.796 149.112C208.456 149.31 209.2 149.269 209.958 149.718C209.905 149.774 209.834 149.831 209.763 149.888C209.431 150.67 209.349 151.282 209.945 151.79C210.42 152.185 210.966 152.204 211.534 152.069C212.148 151.923 212.482 151.549 212.499 150.876C212.519 150.312 212.494 149.741 211.718 149.628C211.335 149.567 210.965 149.36 210.483 149.33C210.508 149.247 210.523 149.156 210.52 149.047C210.702 148.123 210.999 147.378 211.167 146.601C211.344 145.814 211.365 144.95 210.756 144.324C209.239 142.753 209.502 142.436 207.479 143.797L207.515 143.796Z" fill="#7D3C2E"/>
<path d="M96.5363 187.146C97.6689 187.348 98.9171 186.211 98.77 185.206C98.4861 183.243 96.5762 181.92 94.7405 182.54C93.9572 182.791 93.2269 182.986 92.4078 182.938C91.6706 182.897 91.2906 183.581 91.5559 184.273C91.7724 184.848 92.2622 185.132 92.8573 185.605C94.0135 186.624 95.2762 186.93 96.5369 187.165L96.5363 187.146Z" fill="#7D3C2E"/>
<path d="M169.794 208.735C170.856 208.357 171.486 207.539 171.608 206.417C171.731 205.314 171.539 204.32 170.256 203.941C170.075 203.983 169.965 203.932 169.715 203.785C168.588 203.765 167.713 204.001 167.349 204.93C167.053 205.675 166.612 206.124 165.892 206.383C165.541 206.512 165.497 206.876 165.58 207.201C165.661 207.507 165.815 207.793 166.231 207.744C166.657 207.704 167.059 207.783 167.279 208.167C167.929 209.274 168.886 209.063 169.813 208.735L169.794 208.735Z" fill="#7D3C2E"/>
<path d="M221.732 149.631C221.865 149.827 221.953 150.052 222.041 150.276C222.306 150.968 222.831 151.197 223.532 151.239C224.469 151.292 225.307 151.04 225.886 150.313C227.595 148.144 228.317 148.594 225.582 146.724C224.933 146.29 224.345 146.035 223.428 146.372C222.689 146.594 222.29 146.943 221.959 147.425C221.47 148.131 221.218 148.829 221.732 149.631V149.631Z" fill="#7D3C2E"/>
<path d="M210.565 163.502C210.831 162.64 210.931 161.692 210.212 161.014C209.259 160.117 208.142 159.506 206.579 159.817C205.844 160.166 205.661 160.753 205.54 161.275C205.021 163.454 206.139 165.355 208.668 165.141C209.602 165.067 210.292 164.41 210.565 163.502Z" fill="#7D3C2E"/>
<path d="M93.4228 169.959C92.9455 169.792 92.6669 169.582 92.3566 169.537C91.7362 169.447 91.2212 169.863 90.9973 170.605C90.8237 171.201 91.1875 171.527 91.6995 171.638C92.5223 171.813 93.1103 172.349 93.7423 172.839C94.4303 173.381 95.136 173.905 95.8505 174.419C96.1846 174.663 96.5795 174.806 96.9851 174.693C97.9312 174.419 98.3922 173.705 98.5833 172.773C98.7351 172.05 98.4838 171.531 97.8996 171.122C96.6102 170.207 95.1814 169.814 93.4135 169.95L93.4228 169.959Z" fill="#7D3C2E"/>
<path d="M154.282 157.379C154.186 156.582 153.601 156.136 152.719 155.818C152.16 155.962 151.773 156.092 151.433 156.284C150.082 157.007 149.687 158.437 150.779 159.412C151.871 160.405 153.226 161.1 154.467 161.916C154.597 162.003 154.779 162.016 154.934 162.038C155.71 162.169 156.258 161.925 156.548 161.298C156.848 160.644 156.499 160.21 156.016 159.861C155.144 159.233 154.434 158.546 154.3 157.378L154.282 157.379Z" fill="#7D3C2E"/>
<path d="M120.93 89.8655C120.275 89.213 119.455 89.4471 118.486 89.5766C117.007 91.221 116.977 92.0397 118.024 93.3798C118.514 94.0009 119.209 94.1614 119.905 94.3219C121.103 94.6034 122.086 93.7102 122.04 92.4485C122.003 91.4592 121.623 90.5712 120.93 89.8655Z" fill="#7D3C2E"/>
<path d="M178.541 170.614C177.701 171.075 176.826 171.611 176.377 172.424C175.988 173.136 176.367 173.987 176.743 174.712C176.781 174.784 176.819 174.855 176.962 175.078C177.374 175.483 177.655 175.802 177.997 175.982C178.837 176.438 179.697 176.348 180.541 175.977C181.07 175.752 181.55 175.056 181.402 174.652C180.967 173.447 180.506 172.253 179.991 171.096C179.748 170.549 179.034 170.353 178.533 170.623L178.541 170.614Z" fill="#7D3C2E"/>
<path d="M102.47 157.325C101.702 158.203 101.625 158.995 102.239 159.704C102.39 159.881 102.594 160.038 102.691 160.253C103.039 160.969 103.558 161.335 104.385 161.337C105.185 161.331 105.986 161.397 106.68 160.886C107.285 160.431 107.742 159.89 107.71 159.1C107.686 158.265 107.072 157.793 106.384 157.569C105.183 157.179 103.936 156.799 102.479 157.316L102.47 157.325Z" fill="#7D3C2E"/>
<path d="M172.4 87.6221C172.818 88.5453 173.553 89.1498 174.567 89.346C175.663 89.5488 176.653 88.8917 176.633 87.9018C176.628 87.4204 176.687 86.9461 176.633 86.3117C176.097 85.701 175.665 85.2235 175.172 84.8115C174.67 84.4089 174.073 84.1818 173.392 84.2298C172.35 84.307 171.77 84.979 171.954 86.0002C172.06 86.5421 172.176 87.111 172.4 87.6221V87.6221Z" fill="#7D3C2E"/>
<path d="M284.408 137.705C285.175 137.19 285.709 136.493 285.708 135.52C285.703 134.721 285.644 133.923 285.53 133.127C285.408 132.077 285.097 131.977 283.742 132.591C282.948 133.415 282.297 134.125 281.617 134.809C281.273 135.174 281.076 135.607 281.118 136.106C281.252 137.61 283.133 138.534 284.399 137.696L284.408 137.705Z" fill="#7D3C2E"/>
<path d="M110.225 158.396C111.107 160.305 112.061 162.193 114.764 162.338C114.764 162.338 114.764 162.338 114.764 162.356C115.449 163.107 115.993 163.69 116.774 163.985C117.454 164.237 118.093 163.726 117.963 163.003C117.897 162.606 117.777 162.228 117.676 161.849C117.523 161.299 117.293 161.17 116.857 161.52C116.351 161.926 115.895 162.185 115.251 161.914C115.258 161.832 115.274 161.741 115.271 161.632C116.22 160.849 116.25 159.993 116.069 159.081C115.889 158.187 115.24 157.734 114.485 157.394C113.896 157.139 113.289 156.904 112.498 157.2C112.488 157.155 112.478 157.11 112.467 157.065C111.921 157.009 111.579 157.147 111.402 157.615C111.319 157.591 111.237 157.584 111.129 157.587C110.561 157.741 110.031 157.966 110.234 158.387L110.225 158.396Z" fill="#7D3C2E"/>
<path d="M258.873 155.503C257.897 154.761 257.442 154.72 256.588 155.364C255.948 155.856 255.42 156.454 255.213 157.46C255.219 157.959 255.192 158.306 255.3 158.584C255.763 159.833 256.675 160.268 257.909 159.876C258.549 159.684 258.991 159.271 259.393 158.732C260.538 157.161 260.489 156.726 258.882 155.494L258.873 155.503Z" fill="#7D3C2E"/>
<path d="M152.53 127.892C152.956 128.188 153.414 128.301 153.889 128.096C155.102 127.595 155.877 126.118 155.27 124.928C154.789 123.997 154.151 123.308 153.104 123.24C152.011 123.164 151 123.395 150.542 124.818C150.721 126.293 151.473 127.179 152.511 127.892L152.53 127.892Z" fill="#7D3C2E"/>
<path d="M212.973 170.416C213.728 170.121 214.243 169.069 214.221 167.988C214.202 167.035 213.561 166.536 212.849 166.131C211.057 165.095 210.153 165.586 209.958 167.646C209.931 167.956 209.986 168.29 210.037 168.779C210.278 169.59 210.576 170.171 211.29 170.331C211.838 170.442 212.372 170.662 212.956 170.435L212.973 170.416Z" fill="#7D3C2E"/>
<path d="M151.48 203.543C151.325 203.22 151.602 202.739 151.074 202.383C150.353 203.223 149.108 202.597 148.124 203.436C147.609 203.852 147.171 204.092 146.891 204.464C146.453 205.041 146.563 205.692 147.104 206.184C147.394 206.457 147.71 206.72 148.052 206.919C148.939 207.437 149.934 207.261 150.685 206.52C151.514 205.677 152.079 204.778 151.489 203.533L151.48 203.543Z" fill="#7D3C2E"/>
<path d="M219.811 156.759C219.233 156.268 218.778 155.946 218.163 156.019C217.592 156.082 217.042 156.217 216.598 156.594C215.898 157.188 215.804 158.654 216.362 159.745C216.401 159.817 216.439 159.888 216.477 159.96C217.042 160.933 217.958 161.196 218.923 160.621C219.485 160.286 219.917 159.827 220.107 159.158C220.32 158.37 220.653 157.606 219.82 156.768L219.811 156.759Z" fill="#7D3C2E"/>
<path d="M190.855 103.351C190.78 103.898 190.651 104.465 190.666 105.01C190.701 105.891 191.813 106.956 192.725 107.074C193.628 107.201 194.475 106.62 194.862 105.573C194.947 105.352 194.921 105.098 194.928 104.698C194.623 103.881 194.349 103.217 193.595 102.913C192.896 102.625 192.181 102.71 191.473 102.732C191.146 102.742 190.889 102.977 190.845 103.342L190.855 103.351Z" fill="#7D3C2E"/>
<path d="M120.456 198.647C120.368 198.423 120.235 198.227 119.979 197.88C119.718 197.652 119.568 197.493 119.45 197.487C118.433 197.5 117.397 197.496 116.383 197.617C115.631 197.704 115.11 199.174 115.628 199.803C116.353 200.681 117.219 201.408 118.439 201.48C120.123 201.583 121.057 200.273 120.446 198.638L120.456 198.647Z" fill="#7D3C2E"/>
<path d="M74.2116 230.917C73.7637 230.194 73.0845 229.643 72.2348 229.796C70.9151 230.036 69.513 230.252 68.6295 231.751C68.5824 232.006 68.5669 232.098 68.5871 232.17C69.0186 233.265 70.1261 233.231 70.9972 233.505C71.7583 233.745 72.6079 233.592 73.332 233.179C74.1816 232.708 74.6118 231.559 74.2116 230.917V230.917Z" fill="#7D3C2E"/>
<path d="M80.4176 225.248C78.9157 224.84 77.7944 225.655 76.5666 225.929C75.6546 226.13 75.4558 227.108 76.0847 227.807C77.6519 229.531 80.192 228.762 80.9474 227.231C81.317 226.502 81.2618 225.849 80.4088 225.257L80.4176 225.248Z" fill="#7D3C2E"/>
<path d="M152.381 235.336C152.252 234.95 152.141 234.562 151.948 234.205C151.843 234.017 151.629 233.833 151.418 233.757C149.9 233.122 147.725 234.27 147.399 235.87C147.327 236.209 147.516 236.475 147.742 236.723C148.68 237.748 149.836 237.831 151.251 237.415C152.269 236.809 152.646 236.116 152.381 235.336Z" fill="#7D3C2E"/>
<path d="M228.024 91.3029C227.981 91.9858 228.022 92.4661 228.342 92.8743C228.966 93.6912 229.865 93.9909 230.682 93.6479C231.463 93.3242 231.973 92.4091 231.918 91.4748C231.857 90.6044 231.465 89.9348 230.796 89.4101C229.894 88.7016 228.919 88.9131 228.403 89.9465C228.223 90.3064 228.171 90.7169 228.033 91.2936L228.024 91.3029Z" fill="#7D3C2E"/>
<path d="M197.285 159.219C197.692 160.097 198.46 160.256 199.286 160.239C200.194 160.212 200.868 159.628 201.213 158.663C201.499 157.873 201.199 157.255 200.656 156.708C200.236 156.312 199.748 156.082 199.155 156.018C198.353 155.934 197.744 156.243 197.139 156.997C196.647 157.894 196.966 158.547 197.276 159.21L197.285 159.219Z" fill="#7D3C2E"/>
<path d="M95.999 179.876C95.999 179.876 96 179.912 96.0187 179.93C96.8709 179.549 96.4543 179.28 96.0584 179.102C96.0106 179.021 95.9535 178.932 95.8783 178.844C95.4071 178.258 95.1029 177.795 94.7542 177.36C94.3961 176.917 93.9312 176.55 93.3569 176.485C92.1077 176.333 90.9629 176.649 89.9967 177.487C89.7483 177.695 89.6436 178.162 89.9664 178.324C90.9802 178.82 91.7146 180.025 93.1348 179.491C93.764 179.253 94.4042 179.397 94.9609 179.798C95.2297 179.981 95.5482 179.999 95.999 179.876V179.876Z" fill="#7D3C2E"/>
<path d="M126.626 168.818C126.456 168.587 126.107 168.452 125.814 168.37C125.108 168.164 124.39 168.159 123.537 168.503C122.869 168.951 122.673 169.42 122.855 170.051C123.026 170.618 123.356 171.053 123.908 171.291C124.432 171.502 124.999 171.612 125.559 171.504C126.164 171.385 126.949 171.507 127.238 170.789C127.543 170.035 127.07 169.377 126.626 168.818V168.818Z" fill="#7D3C2E"/>
<path d="M138.465 108.703C139.19 108.308 139.173 107.709 139.063 107.058C139.008 106.742 138.918 106.445 138.75 105.968C138.138 105.251 137.373 105.165 136.712 104.949C135.832 104.667 134.953 105.375 134.88 106.332C134.785 107.425 135.395 108.106 136.23 108.698C137 109.247 137.696 109.126 138.466 108.721L138.465 108.703Z" fill="#7D3C2E"/>
<path d="M197.423 195.416C197.329 195.31 197.244 195.212 197.15 195.106C195.745 193.622 194.415 194.154 193.109 194.866C192.913 194.981 192.718 195.169 192.633 195.371C192.193 196.493 191.771 197.615 191.395 198.744C191.178 199.405 191.486 199.995 191.847 200.547C192.18 201.073 192.694 201.239 193.473 201.161C193.482 201.17 193.492 201.179 193.51 201.178C193.483 201.206 193.466 201.225 193.458 201.271C193.975 201.564 194.361 201.697 194.677 201.942C195.216 202.362 195.687 202.329 196.193 201.905C196.504 201.65 196.833 201.413 197.153 201.185C198.587 200.169 199.183 198.77 199.051 197.038C198.962 195.841 198.847 195.663 197.423 195.416V195.416Z" fill="#7D3C2E"/>
<path d="M150.011 184.741C149.302 184.445 148.024 184.866 147.518 185.59C147.44 185.71 147.491 185.9 147.491 186.236C147.653 187.112 147.44 187.6 146.816 188.019C146.424 188.286 146.629 188.779 147.14 188.836C148.507 188.994 149.613 188.288 150.554 187.496C151.733 186.488 151.456 185.379 150.002 184.751L150.011 184.741Z" fill="#7D3C2E"/>
<path d="M141.903 205.698C141.587 205.135 141.397 204.55 141.189 203.948C141.069 203.57 140.667 203.809 140.257 204.076C139.428 204.32 138.715 204.178 138.057 204.671C136.945 205.495 136.908 205.496 138.203 206.274C138.823 206.646 139.372 207.111 140 207.474C140.546 207.793 141.096 207.658 141.537 207.209C141.952 206.787 142.228 206.27 141.903 205.698Z" fill="#7D3C2E"/>
<path d="M247.935 164.061C248.006 163.986 248.067 163.884 248.128 163.801C248.185 162.954 247.967 162.324 247.279 162.1C246.454 161.835 245.564 161.562 244.746 162.168C243.794 162.879 243.082 163.691 243.507 165.187C243.58 165.221 243.645 165.246 243.7 165.281C243.59 165.248 243.471 165.206 243.37 165.164C243.197 166.114 243.58 166.775 244.066 167.25C244.992 168.158 247.158 167.674 247.786 166.428C248.172 165.662 248.494 164.834 247.944 164.052L247.935 164.061Z" fill="#7D3C2E"/>
<path d="M234.273 121.725C234.66 122.531 235.046 123.319 236.347 123.043C236.694 122.805 236.909 122.689 237.049 122.503C237.944 121.422 237.338 119.632 235.985 119.346C235.501 119.243 235.012 119.313 234.707 119.767C234.307 120.361 233.897 120.964 234.274 121.743L234.273 121.725Z" fill="#7D3C2E"/>
<path d="M97.1964 218.185C96.685 218.409 96.2768 218.749 95.9829 219.267C95.4556 220.2 95.5091 220.48 96.8068 221.368C97.8112 221.537 98.553 221.423 99.0948 220.68C99.5143 220.104 99.6039 219.429 99.2712 218.921C98.8336 218.244 97.8785 217.891 97.1964 218.185V218.185Z" fill="#7D3C2E"/>
<path d="M275.831 151.206C275.313 150.277 274.562 150.381 273.853 150.385C273.127 150.389 272.674 150.757 272.439 151.436C272.178 152.162 272.198 152.834 272.724 153.436C273.166 153.94 274.226 154.162 274.677 153.74C275.359 153.11 276.103 152.451 275.84 151.196L275.831 151.206Z" fill="#7D3C2E"/>
<path d="M189.418 177.86C190.221 177.98 190.896 177.433 190.827 176.644C190.759 175.856 190.6 175.07 190.387 174.304C190.225 173.71 189.566 173.566 189.042 173.973C188.731 174.21 188.467 174.527 188.138 174.746C187.326 175.27 187.256 175.999 187.594 176.988C188.209 177.515 188.797 177.751 189.427 177.85L189.418 177.86Z" fill="#7D3C2E"/>
<path d="M136.293 181.389C136.426 181.249 136.489 180.92 136.438 180.731C136.347 180.415 136.094 180.16 135.749 180.17C135.123 180.18 134.48 180.282 133.854 180.31C132.829 180.35 132.531 181.041 132.442 182.07C132.662 182.754 132.832 183.285 133.109 183.758C133.453 184.329 134.208 184.37 134.455 183.79C134.872 182.823 135.56 182.111 136.303 181.398L136.293 181.389Z" fill="#7D3C2E"/>
<path d="M279.826 106.45C279.613 105.984 279.313 105.648 278.835 105.463C278.458 105.32 278.099 105.158 277.566 104.938C276.898 104.786 276.418 104.828 276.188 105.371C275.958 105.914 275.939 106.496 276.415 106.927C276.882 107.367 277.402 107.751 277.921 108.117C278.524 108.544 279.167 108.478 279.671 108C280.096 107.605 280.118 107.096 279.826 106.45V106.45Z" fill="#7D3C2E"/>
<path d="M237.819 128.423C238.025 128.953 238.347 129.397 239.123 129.546C239.726 129.319 240.184 129.15 240.53 128.84C241.31 128.162 241.074 126.615 240.163 126.216C239.445 125.911 238.743 126.114 238.125 126.451C237.642 126.702 237.534 127.695 237.828 128.413L237.819 128.423Z" fill="#7D3C2E"/>
<path d="M213.69 132.958C214.155 133.007 214.53 133.096 214.762 132.943C215.306 132.59 215.808 132.357 216.508 132.363C217.262 132.367 217.631 131.602 217.435 130.799C217.29 130.185 216.568 129.717 215.957 129.953C215.22 130.23 214.558 130.614 213.721 130.567C213.266 130.544 213.051 130.942 213.027 131.379C212.989 131.943 213.068 132.495 213.7 132.966L213.69 132.958Z" fill="#7D3C2E"/>
<path d="M202.251 169.181C201.573 168.329 200.862 167.942 200.07 168.52C199.554 168.899 198.776 168.696 198.414 169.398C198.878 170.029 199.297 170.706 199.805 171.309C200.548 172.168 201.544 172.064 202.244 171.134C202.699 170.539 202.683 169.958 202.251 169.181Z" fill="#7D3C2E"/>
<path d="M149.856 172.125C150.494 172.814 151.134 173.594 152.441 173.237C153.356 172.827 153.748 172.224 153.544 171.449C153.379 170.8 152.805 170.399 152.13 170.329C151.31 170.245 150.544 170.478 149.943 171.059C149.634 171.35 149.547 171.798 149.847 172.134L149.856 172.125Z" fill="#7D3C2E"/>
<path d="M143.348 193.741C143.456 193.065 142.979 192.598 141.833 192.261C141.687 192.229 141.524 192.252 141.18 192.281C140.258 192.454 139.594 192.747 139.611 193.646C139.628 194.545 140.413 195.303 141.277 195.34C142.232 195.374 143.21 194.618 143.347 193.723L143.348 193.741Z" fill="#7D3C2E"/>
<path d="M86.0148 229.357C85.7154 229.058 85.3818 228.831 84.9637 228.826C84.0724 228.799 83.1817 228.79 82.352 229.633C81.7755 230.75 81.7797 230.895 82.3675 231.113C82.9735 231.331 83.5877 231.521 84.2098 231.666C84.905 231.826 85.4776 231.518 85.9739 231.085C86.4702 230.652 86.4834 229.852 86.006 229.367L86.0148 229.357Z" fill="#7D3C2E"/>
<path d="M207.987 87.1717C208.233 87.5095 208.613 87.7614 209.018 87.6309C209.622 87.458 210.317 87.3186 210.579 86.6291C210.849 85.9121 210.399 85.417 209.949 84.9401C209.592 84.5512 209.1 84.5117 208.471 84.4128C207.519 85.4232 207.419 86.3713 207.996 87.1805L207.987 87.1717Z" fill="#7D3C2E"/>
<path d="M198.756 115.813C199.746 116.109 200.016 116.028 200.758 114.979C200.735 113.844 200.553 112.914 199.895 112.152C199.472 111.665 198.829 111.73 198.471 112.241C197.992 112.937 197.887 113.722 197.901 114.53C197.909 115.121 198.096 115.615 198.756 115.813V115.813Z" fill="#7D3C2E"/>
<path d="M93.1244 227.895C92.6857 226.864 92.0149 226.602 90.7902 226.985C89.6377 227.347 88.7674 228.046 88.9466 228.586C89.215 229.387 90.0844 229.287 90.7013 229.568C90.8393 229.628 91.0198 229.586 91.3467 229.576C91.8353 229.507 92.1709 229.487 92.4583 229.369C93.2576 229.045 93.4364 228.631 93.1244 227.895Z" fill="#7D3C2E"/>
<path d="M130.358 231.311C129.998 230.495 129.821 229.728 130.095 228.82C130.252 228.279 129.646 227.744 129.065 227.761C128.674 227.764 128.268 227.858 127.899 227.988C127.315 228.197 127.086 228.758 127.275 229.343C127.444 229.855 128.08 230.172 127.996 231.029C127.996 231.029 128.006 231.038 128.015 231.046C127.951 231.021 127.877 230.987 127.813 230.962C127.406 231.674 127.795 231.935 128.185 232.213C128.731 232.569 129.282 232.771 129.691 232.149C129.791 232.137 129.891 232.125 129.999 232.104C130.216 231.743 130.435 231.472 130.367 231.32L130.358 231.311Z" fill="#7D3C2E"/>
<path d="M132.219 198.27C132.567 198.968 133.217 199.475 133.468 200.276C133.558 200.573 134.003 200.233 134.328 199.868C134.738 199.265 135.116 198.827 135.319 198.311C135.514 197.842 135.336 197.321 134.848 197.09C134.276 196.817 133.653 196.636 132.985 196.765C132.325 196.904 131.929 197.643 132.228 198.26L132.219 198.27Z" fill="#7D3C2E"/>
<path d="M136.469 231.17C136.236 230.95 135.976 230.758 135.699 230.603C135.108 230.276 134.403 230.406 133.926 230.893C133.362 231.474 133.219 232.205 133.484 232.897C133.711 233.517 134.374 233.506 134.945 233.443C135.343 233.394 135.731 233.283 136.28 233.111C136.615 232.756 136.844 232.513 136.927 232.219C137.051 231.788 136.759 231.461 136.47 231.188L136.469 231.17Z" fill="#7D3C2E"/>
<path d="M62.957 233.841C61.9366 233.745 61.2763 234.165 60.6737 234.692C60.1421 235.163 60.2477 235.986 60.891 236.239C61.4794 236.476 62.0838 236.639 62.7218 236.393C63.2607 236.176 63.7067 235.89 63.8067 235.26C63.9159 234.639 63.6937 234.182 62.957 233.841V233.841Z" fill="#7D3C2E"/>
<path d="M143.836 223.576C143.218 222.94 143.116 222.244 143.165 221.406C143.189 220.988 142.781 220.691 142.369 220.604C141.867 220.501 141.381 220.679 141.075 221.079C140.759 221.489 141.051 221.834 141.341 222.125C141.51 222.302 141.696 222.46 141.932 222.771C141.833 223.101 141.647 223.279 141.535 223.473C141.135 224.121 141.277 224.626 141.908 224.779C142.375 224.901 142.841 224.987 143.326 224.772C143.747 224.587 144.126 223.867 143.827 223.567L143.836 223.576Z" fill="#7D3C2E"/>
<path d="M175.298 187.25C174.21 187.356 173.758 188.043 174.005 189.053C174.179 189.729 174.746 189.839 175.268 190.014C175.59 190.122 175.931 190.002 176.133 189.733C176.595 189.074 177.048 188.387 176.376 187.454C175.936 187.322 175.615 187.213 175.307 187.241L175.298 187.25Z" fill="#7D3C2E"/>
<path d="M210.759 102.27C211.286 102.89 211.986 102.896 212.621 102.259C212.833 102.034 212.969 101.721 213.165 101.27C213.214 100.451 212.921 100.033 212.298 99.8519C211.803 99.7034 211.343 99.8356 210.934 100.139C210.267 100.641 210.195 101.615 210.759 102.27Z" fill="#7D3C2E"/>
<path d="M244.381 153.91C244.108 154.555 243.855 155.217 243.625 156.06C243.882 156.797 244.231 157.232 244.883 157.157C245.499 157.084 245.857 156.591 246.015 156.069C246.172 155.546 246.147 154.974 246.204 154.427C246.252 153.908 246.103 153.467 245.545 153.33C245.032 153.2 244.601 153.377 244.389 153.901L244.381 153.91Z" fill="#7D3C2E"/>
<path d="M191.562 116.805C192.212 117.312 192.954 117.198 193.415 116.484C193.911 115.715 193.751 114.893 192.929 114.119C192.63 113.837 192.279 113.648 191.837 113.743C191.376 113.839 191.196 114.199 190.966 114.742C190.631 115.715 190.93 116.315 191.553 116.814L191.562 116.805Z" fill="#7D3C2E"/>
<path d="M132.023 192.397C131.47 191.823 130.923 191.731 130.349 191.703C129.722 191.677 129.278 192.035 129.141 192.648C128.989 193.353 129.232 193.9 129.808 194.336C130.411 194.781 130.848 194.804 131.59 194.391C132.377 193.949 132.495 193.337 132.024 192.415L132.023 192.397Z" fill="#7D3C2E"/>
<path d="M78.6947 141.349C79.0073 140.849 78.5262 140.237 77.3905 139.608C77.1134 139.453 76.8182 139.299 76.5085 139.272C76.1075 139.23 75.721 139.378 75.4867 139.757C75.2954 140.054 75.3499 140.37 75.4678 140.676C75.636 141.152 76.0262 141.449 76.599 141.777C77.4862 141.977 78.2348 142.1 78.6947 141.349V141.349Z" fill="#7D3C2E"/>
<path d="M155.337 196.719C156.19 196.675 156.727 196.404 157.054 195.776C157.467 194.964 156.871 193.855 155.998 193.827C155.334 193.802 154.281 194.452 154.163 195.101C154.022 195.869 154.313 196.496 155.337 196.719Z" fill="#7D3C2E"/>
<path d="M185.987 95.9031C186.384 96.4362 187.044 96.616 187.682 96.3693C188.302 96.1232 188.47 95.6456 188.343 95.0316C188.291 94.806 188.221 94.581 188.082 94.1854C187.424 93.4059 186.765 92.9444 185.955 93.5234C185.385 93.9224 185.448 95.1654 185.997 95.9119L185.987 95.9031Z" fill="#7D3C2E"/>
<path d="M146.396 146.416C146.539 146.039 146.683 145.662 146.753 145.269C146.953 144.327 146.131 143.552 145.156 143.746C144.65 143.852 144.305 144.181 144.225 144.883C144.323 145.734 144.646 146.251 145.176 146.662C145.604 146.994 146.191 146.895 146.378 146.416L146.396 146.416Z" fill="#7D3C2E"/>
<path d="M30.153 165.766C29.5977 165.101 28.9871 165.038 28.3439 165.103C27.809 165.147 27.5197 165.51 27.3149 165.971C27.1356 166.367 27.2197 166.764 27.501 167.065C28.0547 167.675 28.7794 167.598 29.4729 167.386C30.2209 167.172 30.4137 166.612 30.1618 165.757L30.153 165.766Z" fill="#7D3C2E"/>
<path d="M177.786 114.227C178.005 115.21 178.583 115.402 179.789 114.665C180.133 113.682 180.002 112.941 179.536 112.219C179.299 111.854 179.028 111.599 178.558 111.704C178.224 111.778 178.003 111.994 177.913 112.333C177.749 112.956 177.64 113.577 177.786 114.227V114.227Z" fill="#7D3C2E"/>
<path d="M201.735 89.0343C202.223 89.5465 202.68 89.6597 203.185 89.5352C203.6 89.4317 203.892 89.1411 203.961 88.7119C204.084 87.9267 203.765 87.2731 203.197 86.7907C202.796 86.4486 202.274 86.5917 201.816 86.7784C201.394 86.9639 201.223 87.3326 201.281 87.7579C201.337 88.1469 201.502 88.5144 201.735 89.0343V89.0343Z" fill="#7D3C2E"/>
<path d="M156.258 150.921C156.651 150.709 156.814 150.368 156.783 149.933C156.743 149.171 156.376 148.719 155.654 148.586C154.96 148.462 154.341 148.745 154.069 149.389C153.839 149.932 153.81 150.487 154.47 151.003C155.187 151.308 155.721 151.21 156.249 150.931L156.258 150.921Z" fill="#7D3C2E"/>
<path d="M205.096 110.976C204.957 110.899 204.793 110.886 204.474 110.85C203.276 111.822 203.21 112.361 204.024 112.881C204.904 113.445 205.857 113.406 206.13 112.817C206.43 112.18 206.056 111.51 205.105 110.985L205.096 110.976Z" fill="#7D3C2E"/>
<path d="M236.889 104.408C237.271 104.433 237.807 104.725 238.172 104.169C237.96 103.421 237.739 102.683 237.404 101.803C236.088 101.534 235.782 101.634 235.546 102.277C235.1 103.499 235.559 104.303 236.889 104.408Z" fill="#7D3C2E"/>
<path d="M135.161 194.963C135.658 194.866 136.05 194.6 136.3 194.147C136.516 193.75 136.441 193.379 136.01 192.92C135.585 192.66 135.306 192.451 135.014 192.387C134.283 192.264 133.775 192.616 133.467 193.261C133.235 193.732 133.267 194.203 133.624 194.61C134.047 195.115 134.619 195.07 135.179 194.963L135.161 194.963Z" fill="#7D3C2E"/>
<path d="M60.7059 167.214C60.1798 166.93 59.6284 167.029 59.0852 167.1C58.1256 167.22 57.6355 167.553 57.7051 168.078C57.7987 168.802 58.4524 168.782 59.1393 168.97C59.7784 169.078 60.2557 169.245 60.7127 169.022C61.0892 168.847 61.3433 168.521 61.3676 168.103C61.3913 167.666 61.0748 167.403 60.7147 167.205L60.7059 167.214Z" fill="#7D3C2E"/>
<path d="M188.882 234.74C188.676 234.528 188.338 234.457 187.898 234.343C187.478 234.565 187.173 234.719 187.017 234.96C186.598 235.555 186.664 236.289 187.093 236.675C187.55 237.089 188.565 236.967 189.013 236.435C189.417 235.968 189.388 235.27 188.891 234.749L188.882 234.74Z" fill="#7D3C2E"/>
<path d="M99.9629 125.535C100.107 126.43 100.711 126.911 101.509 127.169C101.684 127.227 102.007 127.09 102.139 126.931C102.656 126.288 102.555 125.628 101.714 124.5C101.241 124.16 100.897 123.889 100.475 124.074C99.9548 124.308 99.9051 124.791 99.9286 125.29C99.9401 125.372 99.9515 125.453 99.9629 125.535Z" fill="#7D3C2E"/>
<path d="M194.055 150.54C194.265 151.215 194.602 151.532 195.147 151.533C195.583 151.538 195.959 151.345 195.991 150.862C196.038 149.67 195.636 148.656 194.616 147.96C194.459 147.847 194.151 147.893 193.953 147.953C193.701 148.033 193.572 148.301 193.634 148.535C193.787 149.139 194.221 149.69 194.064 150.548L194.055 150.54Z" fill="#7D3C2E"/>
<path d="M138.145 161.779C137.667 161.293 137.012 161.241 136.369 161.324C135.735 161.398 135.392 161.799 135.398 162.635C135.637 163.055 135.792 163.377 136.042 163.524C137.078 164.165 138.145 163.669 138.319 162.455C138.349 162.236 138.285 161.929 138.154 161.787L138.145 161.779Z" fill="#7D3C2E"/>
<path d="M225.915 111.713C226.234 112.048 226.616 112.073 227.012 111.915C227.569 111.698 227.957 111.305 228.012 110.685C228.082 109.956 227.669 109.496 226.886 109.148C226.167 109.106 225.82 109.344 225.699 109.902C225.581 110.532 225.409 111.165 225.915 111.713V111.713Z" fill="#7D3C2E"/>
<path d="M180.25 147.054C180.447 147.893 181.085 148.283 181.87 148.068C182.383 147.916 182.474 147.595 182.228 146.322C181.684 145.72 181.181 145.636 180.619 145.989C180.218 146.247 180.156 146.63 180.25 147.054V147.054Z" fill="#7D3C2E"/>
<path d="M219.579 132.396C220.019 132.528 220.35 132.645 220.629 132.573C221.36 132.396 221.644 131.833 221.424 131.131C221.213 130.456 220.605 130.166 219.931 130.414C219.149 130.701 219.035 131.159 219.579 132.396V132.396Z" fill="#7D3C2E"/>
<path d="M103.349 188.356C103.048 188.302 102.704 188.348 102.215 188.4C101.658 188.635 101.274 188.874 101.397 189.342C101.619 190.117 102.552 190.625 103.292 190.475C103.825 190.359 104.327 189.789 104.303 189.272C104.268 188.691 103.843 188.45 103.349 188.356V188.356Z" fill="#7D3C2E"/>
<path d="M130.24 120.612C130.582 120.829 130.95 120.963 131.333 120.706C131.68 120.468 131.934 120.142 131.859 119.718C131.784 119.347 131.565 119 131.288 118.508C130.024 118.183 129.555 118.307 129.38 118.848C129.197 119.417 129.422 119.965 130.054 120.472C130.11 120.525 130.175 120.569 130.249 120.603L130.24 120.612Z" fill="#7D3C2E"/>
<path d="M170.7 156.46C171.083 156.821 171.636 156.777 171.951 156.367C172.38 155.8 172.454 155.198 172.108 154.572C171.686 153.804 171.038 153.687 170.152 154.159C169.809 155.16 170.083 155.861 170.7 156.46V156.46Z" fill="#7D3C2E"/>
<path d="M71.1047 168.041C70.3779 167.727 69.6307 167.341 68.6764 167.961C68.104 168.905 68.2364 169.401 68.874 169.454C69.5936 169.514 70.3193 169.474 70.9822 169.145C71.1704 169.057 71.3721 168.806 71.4027 168.605C71.4249 168.431 71.2703 168.109 71.1136 168.032L71.1047 168.041Z" fill="#7D3C2E"/>
<path d="M110.26 163.393C109.951 163.403 109.635 163.476 109.329 163.576C108.753 163.757 108.625 164.361 109.059 164.911C109.2 165.079 109.448 165.172 109.834 165.342C110.172 165.377 110.336 165.408 110.49 165.376C111.482 165.146 111.908 164.788 111.767 164.301C111.605 163.725 111.05 163.378 110.269 163.402L110.26 163.393Z" fill="#7D3C2E"/>
<path d="M240.369 154.387C239.727 154.189 239.32 154.564 238.93 155.221C238.935 155.685 238.944 156.012 239.061 156.299C239.267 156.792 239.655 157.035 240.197 156.909C240.747 156.774 241.168 156.234 241.189 155.707C241.21 155.179 240.828 154.537 240.369 154.387Z" fill="#7D3C2E"/>
<path d="M196.507 80.3981C196.581 80.7866 196.711 81.1734 196.92 81.5122C197.149 81.8869 197.57 81.9831 197.994 81.8884C198.454 81.7744 198.625 81.3875 198.567 80.9622C198.511 80.5732 198.346 80.2057 198.112 79.6858C197.665 79.2996 197.323 79.1011 196.903 79.3411C196.483 79.5811 196.441 80.0003 196.507 80.3981V80.3981Z" fill="#7D3C2E"/>
<path d="M156.544 129.078C156.632 129.602 156.906 129.948 157.462 130.031C157.955 130.107 158.447 130.164 158.713 129.62C158.954 129.14 158.832 128.69 158.511 128.281C158.256 127.953 157.906 127.764 157.323 127.709C156.412 127.946 156.446 128.508 156.536 129.087L156.544 129.078Z" fill="#7D3C2E"/>
<path d="M180.042 205.233C179.633 204.936 179.169 204.905 178.58 205.268C178.24 205.76 178.196 206.125 178.379 206.51C178.602 206.985 178.946 207.256 179.481 207.195C179.96 207.134 180.448 207.029 180.559 206.462C180.653 205.95 180.45 205.529 180.042 205.233V205.233Z" fill="#7D3C2E"/>
<path d="M128.067 174.68C128.529 174.621 128.821 174.367 128.799 173.904C128.767 173.432 128.725 172.934 128.594 172.474C128.382 171.745 127.872 171.706 127.185 172.154C127.069 172.857 127.004 173.414 127.02 173.976C127.034 174.467 127.506 174.752 128.076 174.689L128.067 174.68Z" fill="#7D3C2E"/>
<path d="M48.3535 194.788C47.6695 194.072 46.9418 194.358 46.2607 194.37C45.8976 194.381 45.7716 194.739 45.863 195.073C46.0936 195.82 46.6882 196.274 47.4228 196.224C48.1936 196.174 48.5255 195.709 48.3353 194.788L48.3535 194.788Z" fill="#7D3C2E"/>
<path d="M103.026 229.72C102.562 229.07 101.515 228.966 100.92 229.448C100.423 229.863 100.432 230.489 100.942 230.864C101.435 231.24 101.945 231.297 102.652 230.903C103.057 230.473 103.31 230.111 103.036 229.728L103.026 229.72Z" fill="#7D3C2E"/>
<path d="M225.75 157.269C226.117 157.721 226.871 157.725 227.222 157.296C227.626 156.793 227.578 156.077 227.045 155.557C226.503 155.029 226.028 155.27 225.575 155.956C225.483 156.523 225.467 156.932 225.75 157.269V157.269Z" fill="#7D3C2E"/>
<path d="M142.702 142.176C143.178 142.289 143.667 142.237 143.963 141.792C144.285 141.319 143.991 140.883 143.744 140.49C143.392 139.947 142.769 139.784 142.088 140.114C141.362 140.472 141.714 141.016 142.015 141.67C142.304 141.943 142.491 142.119 142.702 142.176V142.176Z" fill="#7D3C2E"/>
<path d="M183.663 190.257C183.331 190.085 182.947 190.024 182.465 189.993C182.462 189.903 182.468 189.802 182.456 189.703C182.245 189.31 182.139 189.086 181.962 188.937C181.181 188.324 180.661 188.277 180.01 188.687C179.296 189.145 179.207 189.838 179.274 190.572C179.289 190.781 179.461 191.066 179.645 191.152C180.216 191.425 180.816 191.743 181.579 191.102C181.588 191.092 181.615 191.083 181.633 191.082C181.608 191.146 181.582 191.193 181.556 191.257C181.976 191.635 182.196 192.001 182.528 192.172C183.119 192.518 183.748 192.262 184.12 191.624C184.432 191.087 184.29 190.583 183.663 190.257V190.257Z" fill="#7D3C2E"/>
<path d="M188.934 215.129C188.667 215.001 188.331 215.02 187.859 215.035C187.35 215.35 187.15 215.674 187.29 216.106C187.401 216.475 187.521 216.872 187.891 217.078C188.02 217.147 188.194 217.205 188.33 217.192C188.938 217.146 189.355 216.816 189.529 216.238C189.704 215.678 189.358 215.334 188.916 215.13L188.934 215.129Z" fill="#7D3C2E"/>
<path d="M71.8679 188.454C71.565 188.345 71.2542 188.282 70.9352 188.246C70.4978 188.205 70.1389 188.362 69.9974 188.811C69.8471 189.27 70.1102 189.571 70.5923 189.902C71.2434 190.109 71.6947 190.004 72.0655 189.629C72.4534 189.218 72.3728 188.63 71.8679 188.454Z" fill="#7D3C2E"/>
<path d="M218.06 189.252C217.777 189.179 217.445 189.325 216.995 189.503C216.808 189.926 216.644 190.249 216.698 190.548C216.836 191.225 217.317 191.519 217.905 191.438C218.439 191.358 218.775 191.039 218.878 190.517C218.997 189.923 218.701 189.414 218.052 189.261L218.06 189.252Z" fill="#7D3C2E"/>
<path d="M88.522 181.185C88.2548 181.057 87.9176 181.022 87.6183 181.04C86.9921 181.069 86.8506 181.518 87.28 182.541C87.5493 182.742 87.6795 182.847 87.8175 182.906C88.3436 183.19 88.8915 183.282 89.2653 182.698C89.5609 182.235 89.1944 181.501 88.522 181.185Z" fill="#7D3C2E"/>
<path d="M146.22 221.158C145.893 220.868 145.476 220.881 145.077 220.912C144.451 220.958 144.023 221.543 144.148 222.085C144.313 222.77 144.93 223.051 145.878 222.85C146.032 222.818 146.136 222.669 146.356 222.417C146.549 221.857 146.565 221.466 146.22 221.158V221.158Z" fill="#7D3C2E"/>
<path d="M151.1 147.317C151.35 146.828 151.599 146.321 151.784 145.806C151.943 145.356 151.673 145.137 150.624 144.978C149.982 145.716 150.421 146.447 150.35 147.14C150.343 147.222 150.557 147.388 150.685 147.421C150.814 147.453 151.057 147.4 151.1 147.317V147.317Z" fill="#7D3C2E"/>
<path d="M149.495 200.523C150.018 200.698 150.587 200.88 151.131 200.209C151.268 199.633 151.248 199.243 150.939 198.934C150.771 198.775 150.576 198.627 150.355 198.525C149.867 198.294 149.304 198.648 149.077 199.282C148.901 199.769 149.073 200.372 149.494 200.505L149.495 200.523Z" fill="#7D3C2E"/>
<path d="M97.1355 234.342C96.9716 234.329 96.8175 234.343 96.4808 234.326C95.8838 234.417 95.5529 234.6 95.622 235.106C95.6688 235.468 95.9371 235.633 96.2489 235.732C96.4782 235.807 96.7158 235.855 96.9524 235.865C97.6169 235.909 98.2212 235.754 98.5852 235.143C98.7755 234.81 98.1196 234.44 97.1267 234.352L97.1355 234.342Z" fill="#7D3C2E"/>
<path d="M161.319 96.8378C161.562 97.3665 161.826 97.7037 162.277 97.5991C162.918 97.4614 163.281 96.8143 163.188 96.1265C163.108 95.5565 162.615 95.1445 162.008 95.2085C161.247 95.2862 161.181 95.8243 161.244 96.4312C161.246 96.5038 161.267 96.5941 161.328 96.8285L161.319 96.8378Z" fill="#7D3C2E"/>
<path d="M194.406 173.709C195.399 174.433 195.836 174.456 196.096 174.03C196.461 173.437 196.231 172.39 195.697 172.152C195.2 171.949 194.603 172.34 194.315 173.076C194.264 173.204 194.324 173.384 194.406 173.709V173.709Z" fill="#7D3C2E"/>
<path d="M80.1818 244.101C79.4867 243.941 78.7655 243.826 78.0543 243.739C77.8079 243.701 77.6046 243.898 77.5206 244.137C77.4367 244.376 77.444 244.63 77.7019 244.749C78.2907 245.004 78.8713 245.286 79.4763 245.468C79.8244 245.566 80.0608 245.259 80.3491 244.859C80.4735 244.447 80.4018 244.167 80.173 244.111L80.1818 244.101Z" fill="#7D3C2E"/>
<path d="M199.842 99.2603C199.459 99.8535 199.427 100.318 199.703 100.755C199.875 101.022 200.144 101.223 200.496 101.13C201.109 100.984 201.481 100.328 201.361 99.65C201.262 99.0261 200.867 98.8837 199.833 99.2515L199.842 99.2603Z" fill="#7D3C2E"/>
<path d="M192.668 89.6745C192.809 90.1427 193.121 90.2422 194.102 89.9306C194.457 89.3291 194.444 88.857 194.15 88.4389C193.969 88.1628 193.674 87.9901 193.332 88.1095C192.756 88.2907 192.467 89.0082 192.66 89.6839L192.668 89.6745Z" fill="#7D3C2E"/>
<path d="M138.918 274.102C138.451 274.298 138.116 274.636 138.086 275.173C138.063 275.646 138.598 275.92 139.377 275.824C139.531 275.81 139.654 275.679 139.856 275.446C139.932 275.216 139.965 275.124 139.936 275.062C139.694 274.233 139.357 273.898 138.909 274.094L138.918 274.102Z" fill="#7D3C2E"/>
<path d="M197.199 119.749C197.484 119.895 197.821 119.894 198.087 119.686C198.354 119.478 198.436 119.185 198.354 118.86C198.17 118.139 197.912 118.019 196.664 118.239C196.459 118.981 196.654 119.466 197.199 119.749V119.749Z" fill="#7D3C2E"/>
<path d="M292.474 136.05C291.886 135.813 291.427 135.982 291.034 136.53C290.781 136.874 290.683 137.276 291.02 137.611C291.404 138.009 291.903 137.966 292.341 137.726C292.537 137.611 292.649 137.38 292.839 137.029C292.843 136.538 292.823 136.184 292.484 136.058L292.474 136.05Z" fill="#7D3C2E"/>
<path d="M200.464 218.93C201.093 218.974 201.588 218.505 201.59 217.942C201.603 217.441 201.242 217.243 200.351 217.216C200.279 217.218 200.198 217.266 200.002 217.399C199.68 217.873 199.555 218.267 199.856 218.621C199.997 218.79 200.255 218.909 200.464 218.93Z" fill="#7D3C2E"/>
<path d="M141.132 176.799C140.654 176.613 140.192 176.637 139.829 177.284C139.837 177.874 139.983 178.224 140.379 178.421C140.978 178.703 141.592 178.557 141.851 178.094C142.102 177.66 141.766 177.043 141.123 176.808L141.132 176.799Z" fill="#7D3C2E"/>
<path d="M235.718 168.905C235.031 168.398 234.526 168.523 234.197 169.096C233.998 169.457 234.011 169.893 234.347 170.191C234.748 170.57 235.255 170.5 235.685 170.269C236.239 169.961 236.034 169.467 235.727 168.895L235.718 168.905Z" fill="#7D3C2E"/>
<path d="M110.67 147.706C110.943 147.416 111.129 147.238 111.223 147.026C111.512 146.363 111.33 146.014 110.723 146.096C110.334 146.153 109.946 146.247 109.578 146.395C109.219 146.533 109.18 147.097 109.444 147.416C109.735 147.744 110.084 147.86 110.661 147.697L110.67 147.706Z" fill="#7D3C2E"/>
<path d="M163.261 172.784C162.926 172.522 162.544 172.497 162.217 172.825C161.997 173.059 161.915 173.371 161.988 173.686C162.073 174.12 162.362 174.357 162.798 174.361C163.107 174.352 163.404 174.279 163.855 174.138C164.294 173.316 163.67 173.099 163.27 172.793L163.261 172.784Z" fill="#7D3C2E"/>
<path d="M245.927 117.871C246.29 118.141 246.68 118.12 247.035 117.855C247.391 117.59 247.508 117.223 247.341 116.801C247.204 116.46 246.892 116.36 246.4 116.303C245.942 116.489 245.684 116.67 245.612 117.026C245.55 117.373 245.631 117.662 245.909 117.871L245.927 117.871Z" fill="#7D3C2E"/>
<path d="M267.503 135.94C267.93 135.936 268.241 135.663 268.282 135.226C268.309 134.879 268.084 134.632 267.789 134.514C267.33 134.328 266.884 134.314 266.454 134.845C266.46 135.663 266.904 135.94 267.503 135.94V135.94Z" fill="#7D3C2E"/>
<path d="M215.422 146.053C216.187 145.784 216.503 145.411 216.103 144.769C215.874 144.413 215.524 144.242 215.092 144.364C214.695 144.485 214.386 144.776 214.352 145.186C214.296 145.769 214.729 145.983 215.422 146.053V146.053Z" fill="#7D3C2E"/>
<path d="M107.929 237.111C107.761 236.635 107.352 236.339 106.827 236.409C106.303 236.48 105.996 236.88 105.947 237.381C105.902 238.009 106.369 238.15 107.069 238.174C107.745 237.98 108.136 237.678 107.938 237.102L107.929 237.111Z" fill="#7D3C2E"/>
<path d="M86.5543 178.501C86.2891 178.127 85.8974 178.094 85.3263 178.139C84.8569 178.244 84.4865 178.319 84.4238 178.666C84.3379 179.15 84.699 179.384 85.1099 179.454C85.4933 179.515 85.8938 179.539 86.274 179.491C86.6091 179.453 86.7723 178.812 86.5543 178.501V178.501Z" fill="#7D3C2E"/>
<path d="M165.393 159.884C164.983 159.533 164.519 159.52 164.072 159.77C163.795 159.914 163.594 160.184 163.677 160.545C163.781 161.014 164.157 161.121 164.731 161.167C165.611 160.513 165.738 160.173 165.393 159.884V159.884Z" fill="#7D3C2E"/>
<path d="M183.146 87.521C183.197 87.7102 183.438 87.8664 183.754 88.0931C184.492 88.1705 184.773 87.8348 184.785 87.2983C184.806 86.7706 184.431 86.3823 183.95 86.406C183.351 86.4243 182.983 86.8899 183.137 87.5122L183.146 87.521Z" fill="#7D3C2E"/>
<path d="M172.128 114.972C172.144 115.553 172.237 115.941 172.722 116.062C173.061 116.152 173.358 116.061 173.616 115.844C173.882 115.618 173.982 115.306 173.854 114.974C173.571 114.283 172.96 114.22 172.128 114.972V114.972Z" fill="#7D3C2E"/>
<path d="M223.972 94.816C224.267 94.9524 224.432 95.0019 224.586 94.9881C225.147 94.9165 225.474 94.5884 225.376 94.019C225.288 93.4946 224.888 93.1707 224.344 93.2055C223.718 93.2518 223.614 93.7366 223.684 94.2615C223.697 94.4155 223.792 94.558 223.972 94.816Z" fill="#7D3C2E"/>
<path d="M187.466 208.096C187.352 207.936 187.058 207.836 186.849 207.833C186.54 207.824 186.225 207.916 185.766 208.066C185.322 208.443 185.096 208.777 185.425 209.176C185.736 209.557 186.115 209.455 186.481 209.235C186.749 209.063 187.026 208.9 187.274 208.711C187.47 208.559 187.608 208.301 187.457 208.105L187.466 208.096Z" fill="#7D3C2E"/>
<path d="M254.801 170.23C254.426 170.141 254.17 170.095 253.954 170.174C253.55 170.322 253.249 170.604 253.381 171.082C253.502 171.514 253.861 171.676 254.298 171.681C254.952 171.679 255.097 171.357 254.801 170.23V170.23Z" fill="#7D3C2E"/>
<path d="M135.298 157.631C135.225 157.597 135.143 157.591 134.907 157.598C134.218 157.973 134.202 158.383 134.641 158.778C134.977 159.095 135.45 159.099 135.694 158.764C136.044 158.299 135.805 157.879 135.298 157.631V157.631Z" fill="#7D3C2E"/>
<path d="M161.169 212.406C160.756 212.282 160.378 212.403 160.171 212.791C160.025 213.077 160.071 213.421 160.278 213.669C160.495 213.926 160.814 213.962 161.264 213.821C161.474 213.542 161.595 213.338 161.625 213.119C161.679 212.763 161.481 212.506 161.169 212.406Z" fill="#7D3C2E"/>
<path d="M220.369 118.497C220.431 117.72 219.947 117.322 218.917 117.305C219.172 117.952 219.231 118.75 220.369 118.497Z" fill="#7D3C2E"/>
<path d="M123.463 172.549C123.314 172.409 123.056 172.289 122.866 172.322C122.232 172.396 122.098 172.782 122.479 173.688C122.952 173.71 123.259 173.646 123.46 173.376C123.661 173.107 123.725 172.796 123.463 172.549V172.549Z" fill="#7D3C2E"/>
<path d="M167.215 127.598C167.704 127.546 167.859 127.251 167.614 126.65C167.242 126.334 166.991 126.133 166.666 126.233C166.351 126.325 166.131 126.559 166.186 126.911C166.284 127.481 166.707 127.631 167.223 127.588L167.215 127.598Z" fill="#7D3C2E"/>
<path d="M108.451 148.864C108.335 148.931 108.267 149.097 108.211 149.38C108.291 149.614 108.338 149.676 108.385 149.72C108.749 150.064 109.156 150.306 109.599 149.911C109.856 149.694 109.901 149.365 109.684 149.09C109.344 148.664 108.916 148.614 108.451 148.864V148.864Z" fill="#7D3C2E"/>
<path d="M121.203 223.585C121.045 223.436 120.779 223.362 120.57 223.359C120.116 223.373 119.824 223.664 119.783 224.101C119.748 224.475 120.044 224.647 120.519 224.742C120.859 224.568 121.055 224.417 121.204 224.239C121.362 224.035 121.39 223.761 121.194 223.594L121.203 223.585Z" fill="#7D3C2E"/>
<path d="M79.2616 130.528C78.8357 130.569 78.6045 131.057 78.8588 131.367C79.2262 131.82 79.6621 132.124 80.2984 131.505C80.3188 130.641 79.8685 130.464 79.2616 130.528Z" fill="#7D3C2E"/>
<path d="M151.524 166.668C152.064 165.852 151.583 165.557 151.014 165.375C150.638 165.25 150.158 165.61 150.169 165.991C150.205 166.59 150.601 166.787 151.137 166.798C151.21 166.796 151.3 166.775 151.524 166.668Z" fill="#7D3C2E"/>
<path d="M95.747 78.7308C96.0076 79.259 96.3553 79.6573 97.0367 79.0277C97.0126 78.1924 96.668 77.9031 95.9849 78.1602C95.7422 78.2494 95.6312 78.4981 95.747 78.7308V78.7308Z" fill="#7D3C2E"/>
<path d="M321.491 144.351C321.669 143.6 321.307 143.33 320.436 143.692C320.354 144.004 320.331 144.159 320.345 144.313C320.382 144.648 320.508 144.926 320.89 144.951C321.273 144.975 321.436 144.671 321.509 144.35L321.491 144.351Z" fill="#7D3C2E"/>
<path d="M141.857 113.261C142.43 113.253 142.862 113.13 142.656 112.6C142.45 112.071 141.899 111.851 141.532 112.071C141.416 112.139 141.312 112.305 141.307 112.46C141.272 112.797 141.407 113.066 141.867 113.27L141.857 113.261Z" fill="#7D3C2E"/>
<path d="M246.533 141.033C246.919 140.884 247.198 140.476 246.988 140.101C246.663 139.548 246.232 139.724 245.858 140.308C245.839 140.908 246.057 141.22 246.533 141.033Z" fill="#7D3C2E"/>
<path d="M179.432 82.8366C180.061 82.8992 180.268 82.5294 180.066 81.8087C179.408 81.3835 179.023 81.5679 178.922 82.1616C178.859 82.4907 179.086 82.8108 179.432 82.8366V82.8366Z" fill="#7D3C2E"/>
<path d="M190.651 242.237C190.301 242.084 190.042 242.228 189.841 242.534C189.703 242.757 189.727 242.992 189.906 243.196C190.168 243.46 190.46 243.506 190.753 243.27C190.868 243.166 190.937 243.019 191.01 242.717C190.875 242.448 190.78 242.306 190.632 242.238L190.651 242.237Z" fill="#7D3C2E"/>
<path d="M87.3428 169.281C87.514 169.231 87.6244 168.964 87.7509 168.624C87.5516 168.33 87.372 168.09 87.1899 168.078C86.7531 168.054 86.4513 168.3 86.5012 168.771C86.5605 169.251 86.9284 169.403 87.3428 169.281Z" fill="#7D3C2E"/>
<path d="M61.4473 212.706C60.8218 213.071 60.6974 213.483 61.1634 213.887C61.4244 214.115 61.7948 214.04 62.0048 213.761C62.3719 213.26 62.1705 212.893 61.4561 212.697L61.4473 212.706Z" fill="#7D3C2E"/>
<path d="M136.5 100.421C135.799 100.079 135.478 100.271 135.542 100.914C135.573 101.367 135.872 101.649 136.324 101.581C137.066 101.449 136.815 100.966 136.509 100.43L136.5 100.421Z" fill="#7D3C2E"/>
<path d="M117.82 156.193C118.421 156.248 118.647 155.895 118.436 155.184C117.798 154.795 117.402 154.934 117.301 155.528C117.247 155.865 117.483 156.158 117.82 156.193V156.193Z" fill="#7D3C2E"/>
<path d="M145.093 118.978C145.45 119.049 145.689 118.851 145.803 118.375C145.577 118.127 145.382 117.978 145.172 117.939C144.944 117.901 144.675 118.018 144.619 118.283C144.547 118.64 144.737 118.907 145.084 118.969L145.093 118.978Z" fill="#7D3C2E"/>
<path d="M139.69 126.303C140.164 126.043 140.446 125.744 140.054 125.374C139.746 125.084 139.31 125.115 139.085 125.485C138.798 125.939 139.168 126.146 139.681 126.294L139.69 126.303Z" fill="#7D3C2E"/>
<path d="M156.398 107.038C156.506 106.699 156.527 106.453 156.466 106.236C156.395 105.993 156.145 105.828 155.913 105.963C155.734 106.059 155.541 106.301 155.528 106.483C155.496 106.966 155.803 107.184 156.407 107.029L156.398 107.038Z" fill="#7D3C2E"/>
<path d="M252.2 123.004C252.692 122.744 252.965 122.436 252.591 122.065C252.264 121.757 251.839 121.834 251.604 122.177C251.308 122.623 251.651 122.857 252.2 123.004Z" fill="#7D3C2E"/>
<path d="M209.451 189.051C209.164 189.169 208.983 189.511 209.145 189.788C209.336 190.109 209.65 189.981 209.958 189.617C209.989 189.117 209.792 188.914 209.451 189.051Z" fill="#7D3C2E"/>
<path d="M141.052 183.807C141.291 183.909 141.507 183.848 141.624 183.462C141.498 183.221 141.395 183.088 141.257 183.028C141.018 182.945 140.775 183.016 140.7 183.263C140.625 183.511 140.813 183.705 141.043 183.798L141.052 183.807Z" fill="#7D3C2E"/>
<path d="M111.962 252.517C111.775 252.341 111.513 252.395 111.318 252.564C110.919 252.894 110.973 253.211 111.554 253.493C112.027 253.215 112.365 252.932 111.962 252.535L111.962 252.517Z" fill="#7D3C2E"/>
<path d="M159.237 243.387C159.079 243.61 159.141 243.862 159.39 243.973C159.739 244.126 159.961 243.946 160.056 243.453C159.745 243.072 159.455 243.099 159.245 243.378L159.237 243.387Z" fill="#7D3C2E"/>
<path d="M170.124 145.019C170.15 144.655 169.901 144.508 169.432 144.649C169.171 145.039 169.162 145.366 169.511 145.483C169.823 145.582 170.107 145.356 170.143 145.018L170.124 145.019Z" fill="#7D3C2E"/>
<path d="M89.4071 240.785C89.0855 240.976 89.028 241.187 89.2687 241.343C89.3523 241.404 89.5785 241.37 89.6583 241.304C89.8435 241.108 89.7832 240.91 89.4071 240.785Z" fill="#7D3C2E"/>
<path d="M170.778 162.254C170.877 162.224 171.027 162.047 171.024 161.956C170.998 161.684 170.814 161.599 170.465 161.782C170.367 162.167 170.516 162.308 170.788 162.263L170.778 162.254Z" fill="#7D3C2E"/>
</g>
<defs>
<clipPath id="clip0_302_2161">
<rect width="246.108" height="209.707" fill="white" transform="translate(0.507812 179.429) rotate(-46.7017)"/>
</clipPath>
</defs>
</svg>
