<svg width="260" height="222" viewBox="0 0 260 222" fill="none" xmlns="http://www.w3.org/2000/svg">
<g style="mix-blend-mode:hard-light" clip-path="url(#clip0_303_2559)">
<path d="M117.92 133.241C116.372 133.621 116.44 134.789 116.372 135.876C116.318 136.773 116.589 137.575 117.472 137.969C118.531 138.431 119.577 139.151 120.799 138.322C121.152 138.077 121.465 137.806 121.614 137.398C121.886 136.678 122.144 135.944 121.777 135.197C121.37 134.355 121.166 133.485 121.057 132.453C121.098 132.453 121.125 132.48 121.152 132.493C121.152 132.493 121.152 132.466 121.125 132.344C121.125 132.344 121.125 132.317 121.125 132.303C121.193 132.371 121.261 132.439 121.343 132.507C121.75 132.371 122.062 132.33 122.198 132.154C123.081 130.999 123.909 129.817 124.792 128.662C125.24 128.091 125.267 127.548 124.792 127.059C124.059 126.325 124.018 125.605 124.575 124.763C124.711 124.559 124.778 124.287 124.792 124.029C124.833 123.567 124.643 123.119 124.167 123.051C122.66 122.847 121.112 122.507 119.767 123.676C119.333 124.056 118.64 124.179 118.246 124.586C117.526 125.333 116.291 124.926 115.734 125.646C115.096 126.475 116.318 127.344 116.06 128.295C115.965 128.621 115.951 128.975 115.883 129.301C115.747 129.871 115.992 130.306 116.345 130.686C116.698 131.053 117.065 131.447 117.499 131.692C118.165 132.072 117.975 132.711 118.26 133.363C118.301 133.404 118.328 133.444 118.368 133.485C118.368 133.485 118.341 133.485 118.328 133.485C118.219 133.39 118.097 133.295 117.947 133.2L117.92 133.241Z" fill="#231F20"/>
<path d="M167.38 114.247C167.801 114.125 168.249 114.125 168.602 114.397C169.743 115.28 170.721 114.763 171.603 114.003C172.88 112.902 174.265 111.883 174.061 109.832C173.926 108.459 173.437 108.038 172.065 108.432C171.413 108.622 170.721 109.139 170.164 109.03C169.104 108.813 168.154 109.288 167.135 109.179C166.103 109.071 165.22 109.519 164.745 110.375C164.215 111.313 163.713 112.372 164.582 113.622C165.546 114.288 166.429 114.532 167.393 114.234L167.38 114.247Z" fill="#231F20"/>
<path d="M82.2029 144.327C82.4337 143.838 83.0313 143.526 83.6017 143.009C82.4202 142.643 82.0535 141.963 81.6053 141.365C81.0485 140.605 80.3967 139.939 79.188 139.803C78.088 139.395 77.2731 139.749 76.6348 140.319C75.9558 140.917 75.4533 141.719 74.8829 142.439C74.8015 142.561 74.815 142.765 74.8286 142.941C74.9644 145.17 77.4768 146.936 79.5954 146.202C80.6004 145.863 81.6597 145.482 82.2029 144.327V144.327Z" fill="#231F20"/>
<path d="M176.439 115.375C176.398 116.054 176.466 116.734 176.439 117.413C176.425 117.685 176.262 117.861 176.031 118.011C175.909 117.97 175.787 117.929 175.651 117.902C175.339 117.576 175.135 117.426 174.958 117.236C173.573 115.823 172.609 115.606 170.898 116.367C170.327 116.611 169.988 117.06 169.689 117.603C169.01 118.826 169.445 120.103 169.431 121.353C169.418 122.698 171.332 124.07 172.541 123.513C173.899 122.902 175.434 122.385 176.181 120.701C176.208 120.701 176.221 120.674 176.249 120.674C177.199 120.837 177.905 121.163 178.693 120.796C179.291 120.511 179.78 120.741 180.35 121.04C181.11 121.448 181.749 120.972 181.531 120.144C181.341 119.41 181.341 118.867 181.871 118.282C182.061 118.065 182.115 117.657 182.115 117.331C182.156 115.361 181.097 114.003 179.562 112.929C179.426 112.848 179.25 112.78 179.087 112.793C177.77 112.834 176.493 114.071 176.425 115.388L176.439 115.375Z" fill="#231F20"/>
<path d="M50.329 87.1968C50.8586 87.5229 51.4561 87.6723 52.0265 87.3598C52.5154 87.0881 52.5833 86.5311 52.6648 85.8517C52.1623 84.3844 51.7006 83.1073 50.3833 82.3872C50.1252 82.2514 49.9759 81.8574 49.8536 81.5721C49.582 80.9607 49.3512 80.3085 49.0931 79.6836C48.8215 79.0043 48.3054 78.5559 47.6264 78.3521C46.9746 78.1619 46.3091 77.9853 45.6437 77.9173C44.272 77.7543 43.7288 78.3521 43.9597 79.6836C44.0547 80.1998 44.1498 80.7025 44.5708 81.0558C45.4807 81.8166 46.2548 82.8492 47.4091 83.1617C48.3734 83.4198 48.5771 83.9632 48.6314 84.8056C48.6993 85.9468 49.4191 86.6533 50.329 87.2104V87.1968Z" fill="#231F20"/>
<path d="M104.014 148.308C104.041 148.417 104.19 148.566 104.421 148.634C105.725 149.055 106.73 149.599 107.748 150.319C107.694 150.4 107.64 150.468 107.572 150.55C107.463 151.732 107.857 152.656 108.563 153.416C108.984 153.892 109.609 154.137 110.179 153.838C111.089 153.362 111.918 152.71 111.85 151.501C111.823 150.903 111.918 150.278 111.537 149.789C111.537 149.653 111.537 149.517 111.551 149.341C111.551 148.335 112.434 148.145 112.705 147.534C113.045 146.759 113.506 145.862 113.085 145.102C112.624 144.273 111.646 144.382 110.79 144.531C110.709 144.545 110.627 144.572 110.546 144.599C109.582 144.871 108.685 144.68 107.898 144.096C106.553 143.104 106.051 143.295 105.535 144.884C105.358 145.441 105.209 146.026 105.114 146.596C104.991 147.316 104.693 147.887 104.027 148.308H104.014Z" fill="#231F20"/>
<path d="M136.567 148.865C137.015 147.819 137.151 146.718 136.961 145.604C136.839 144.925 136.54 144.314 135.997 143.838C135.413 143.322 134.734 143.43 133.865 143.607C133.389 143.865 133.118 144.055 132.846 144.259C131.026 145.591 130.429 147.425 130.728 149.599C130.755 149.816 130.904 150.101 131.081 150.224C133.416 151.677 135.888 150.468 136.567 148.865V148.865Z" fill="#231F20"/>
<path d="M211.029 175.834C211.029 177.016 211.953 178.211 213.148 178.266C213.935 178.307 214.614 178.456 215.334 178.796C216.244 179.23 216.977 178.633 217.589 178.021C218.145 177.478 217.738 176.894 217.507 176.364C217.113 175.508 216.733 174.638 216.203 173.877C215.348 172.655 214.221 172.003 212.55 172.845C211.477 173.687 211.043 174.652 211.016 175.847L211.029 175.834Z" fill="#231F20"/>
<path d="M247.234 210.52C249.258 209.161 249.38 208.237 247.723 206.539C247.547 206.362 247.357 206.172 247.153 206.036C245.414 204.841 243.092 204.664 242.074 207.585C241.965 207.897 242.006 208.251 241.992 208.794C242.4 210.56 243.649 211.09 244.993 211.484C245.401 211.607 245.849 211.579 246.229 211.321C246.582 211.077 246.895 210.778 247.234 210.533V210.52Z" fill="#231F20"/>
<path d="M58.1382 121.135C58.5863 120.714 58.9259 120.442 59.1567 120.089C59.5777 119.451 59.5641 117.684 59.0888 117.209C58.1789 116.299 57.1604 115.538 55.8159 115.388C55.2591 115.32 54.8245 115.483 54.4714 115.918C53.4936 117.1 53.48 118.405 54.2813 119.953C54.743 120.836 55.6258 120.918 56.3184 121.38C56.8888 121.747 57.4592 121.611 58.1382 121.135V121.135Z" fill="#231F20"/>
<path d="M212.277 129.138C212.413 127.779 212.25 126.421 210.593 125.714C210.077 125.809 209.751 125.891 209.412 125.959C206.967 126.556 206.465 127.29 206.886 129.736C206.954 130.143 206.886 130.673 207.307 130.89C208.203 131.352 209.126 131.937 210.186 131.488C211.231 131.04 212.169 130.347 212.277 129.124V129.138Z" fill="#231F20"/>
<path d="M126.259 143.186C126.707 142.561 127.019 142.045 127.386 141.583C127.929 140.89 128.201 140.075 128.364 139.246C128.567 138.24 128.105 137.33 127.372 136.773C125.973 135.713 124.398 136.121 123.366 137.534C122.619 138.567 122.714 139.681 123.23 140.672C123.665 141.488 124.154 142.262 124.479 143.145C124.71 143.784 125.159 143.797 126.259 143.186Z" fill="#231F20"/>
<path d="M177.375 133.621C176.139 133.349 175.216 133.621 174.455 134.572C174.197 134.912 173.939 135.238 173.668 135.564C173.124 136.243 173.111 136.95 173.491 137.697C173.817 138.349 174.387 138.893 174.591 139.803C174.51 139.803 174.414 139.789 174.319 139.776C173.477 140.088 172.948 140.469 172.989 141.297C173.029 141.95 173.41 142.384 173.926 142.724C174.482 143.091 175.012 143.077 175.542 142.602C175.99 142.208 176.411 141.773 175.936 141.094C175.705 140.754 175.596 140.319 175.27 139.925C175.352 139.884 175.433 139.83 175.515 139.749C176.357 139.219 177.144 138.906 177.864 138.471C178.597 138.037 179.276 137.425 179.317 136.501C179.426 134.192 179.86 134.165 177.348 133.594L177.375 133.621Z" fill="#231F20"/>
<path d="M63.6391 79.5886C64.3046 80.6076 66.0836 80.7434 66.7491 79.9011C68.0528 78.2571 67.6861 75.8252 65.8799 74.8605C65.1194 74.4394 64.4404 74.0182 63.8836 73.3525C63.3811 72.7547 62.5798 72.9585 62.2403 73.665C61.9551 74.2492 62.0909 74.8334 62.1588 75.635C62.2132 77.2653 62.8922 78.4609 63.6255 79.6022L63.6391 79.5886Z" fill="#231F20"/>
<path d="M100.115 151.705C101.175 152.248 102.261 152.139 103.212 151.419C104.149 150.713 104.773 149.843 104.135 148.58C103.972 148.471 103.931 148.349 103.863 148.05C103.062 147.167 102.247 146.664 101.27 147.058C100.482 147.371 99.8165 147.357 99.0967 146.99C98.7436 146.813 98.4312 147.044 98.2411 147.343C98.0646 147.629 97.9559 147.955 98.2954 148.24C98.6349 148.539 98.8658 148.906 98.73 149.354C98.3498 150.658 99.2053 151.243 100.129 151.718L100.115 151.705Z" fill="#231F20"/>
<path d="M183.188 148.811C183.134 149.055 183.025 149.286 182.917 149.517C182.577 150.224 182.781 150.794 183.256 151.365C183.894 152.126 184.696 152.588 185.673 152.506C188.58 152.248 188.756 153.131 188.213 149.667C188.077 148.851 187.846 148.213 186.923 147.751C186.217 147.343 185.66 147.289 185.049 147.384C184.152 147.52 183.433 147.832 183.188 148.811V148.811Z" fill="#231F20"/>
<path d="M164.433 150.278C165.289 149.857 166.09 149.246 166.09 148.199C166.09 146.814 165.75 145.509 164.379 144.531C163.577 144.219 162.993 144.504 162.505 144.789C160.454 145.971 159.802 148.213 161.798 150.006C162.532 150.672 163.537 150.726 164.433 150.278Z" fill="#231F20"/>
<path d="M74.5982 64.7115C74.3809 64.2224 74.3402 63.8556 74.15 63.5838C73.7698 63.0404 73.0772 62.9453 72.3438 63.3121C71.7599 63.611 71.7735 64.1273 72.0586 64.6028C72.5204 65.3636 72.534 66.206 72.6154 67.0483C72.6969 67.9722 72.8056 68.8961 72.9278 69.8199C72.9821 70.2547 73.1587 70.6623 73.5389 70.8933C74.4352 71.4231 75.318 71.2601 76.1736 70.7302C76.839 70.3226 77.0563 69.752 76.9476 69.0048C76.7168 67.3472 75.9834 65.9614 74.5982 64.6979V64.7115Z" fill="#231F20"/>
<path d="M128.364 102.468C128.907 101.816 128.826 101.041 128.432 100.131C127.916 99.805 127.536 99.6012 127.142 99.4789C125.607 98.9626 124.222 99.6963 124.263 101.245C124.29 102.808 124.738 104.356 125.01 105.905C125.037 106.068 125.159 106.218 125.254 106.354C125.716 107.046 126.3 107.291 126.992 107.06C127.712 106.816 127.794 106.231 127.712 105.606C127.563 104.479 127.576 103.433 128.378 102.481L128.364 102.468Z" fill="#231F20"/>
<path d="M156.108 27.7568C156.135 26.7786 155.361 26.3167 154.56 25.6646C152.224 25.7189 151.572 26.2895 151.301 28.0693C151.178 28.8981 151.559 29.5502 151.939 30.2024C152.591 31.33 153.99 31.4387 154.927 30.4877C155.66 29.7404 156.067 28.803 156.108 27.7568Z" fill="#231F20"/>
<path d="M135.765 130.768C134.801 130.456 133.755 130.17 132.805 130.415C131.976 130.632 131.596 131.543 131.311 132.358C131.284 132.439 131.257 132.521 131.189 132.793C131.175 133.404 131.134 133.852 131.243 134.246C131.501 135.224 132.194 135.822 133.09 136.203C133.647 136.447 134.53 136.311 134.733 135.904C135.344 134.695 135.928 133.472 136.444 132.235C136.689 131.651 136.322 130.958 135.752 130.768H135.765Z" fill="#231F20"/>
<path d="M90.8672 62.5105C89.6359 62.5558 88.9705 63.0721 88.8709 64.0593C88.8437 64.3039 88.8709 64.5756 88.7758 64.8066C88.477 65.5946 88.5721 66.2603 89.1696 66.8989C89.7536 67.5103 90.2833 68.176 91.1796 68.339C91.9672 68.4749 92.7142 68.4341 93.2981 67.8363C93.9228 67.2114 93.8414 66.3962 93.5154 65.7033C92.945 64.4941 92.3339 63.2577 90.8808 62.5105H90.8672Z" fill="#231F20"/>
<path d="M195.126 65.7849C194.719 66.7767 194.786 67.7821 195.37 68.7059C196.009 69.6977 197.231 69.983 197.978 69.2494C198.345 68.8961 198.752 68.5972 199.2 68.0945C199.282 67.2386 199.336 66.5593 199.295 65.88C199.241 65.2007 198.983 64.5757 198.453 64.0866C197.638 63.3393 196.701 63.3801 196.049 64.2632C195.71 64.7387 195.357 65.2414 195.126 65.7849V65.7849Z" fill="#231F20"/>
<path d="M237.769 188.442C238.719 188.659 239.643 188.564 240.39 187.858C241.001 187.274 241.571 186.649 242.101 185.983C242.821 185.127 242.671 184.814 241.218 184.217C240.009 184.203 238.991 184.217 237.972 184.189C237.443 184.189 236.967 184.352 236.614 184.746C235.555 185.942 236.207 188.062 237.769 188.428V188.442Z" fill="#231F20"/>
<path d="M95.6622 69.2628C94.8337 71.3279 94.0732 73.4338 95.9202 75.6212C95.9202 75.6212 95.9202 75.6212 95.9066 75.6348C95.8251 76.7081 95.7708 77.5504 96.1103 78.3656C96.4091 79.0721 97.2647 79.1944 97.7264 78.5694C97.9844 78.2297 98.1881 77.8629 98.4054 77.5097C98.7178 76.9934 98.6499 76.7217 98.0659 76.6401C97.3869 76.545 96.8572 76.382 96.5992 75.6891C96.6671 75.6348 96.7486 75.5804 96.8301 75.4989C98.1202 75.6619 98.7993 75.0641 99.3696 74.2625C99.9264 73.4745 99.8042 72.6458 99.519 71.817C99.2882 71.1785 99.0301 70.5399 98.2289 70.1459C98.256 70.1051 98.2832 70.0644 98.3104 70.0236C97.9573 69.5617 97.6042 69.3987 97.1153 69.6024C97.0745 69.5209 97.0202 69.453 96.9387 69.3715C96.4091 69.0454 95.8523 68.8009 95.6757 69.2628H95.6622Z" fill="#231F20"/>
<path d="M205.582 181.69C205.446 180.399 205.148 180.018 204.034 179.828C203.192 179.692 202.35 179.72 201.427 180.29C201.046 180.657 200.761 180.888 200.625 181.173C200.001 182.437 200.327 183.456 201.522 184.122C202.133 184.475 202.771 184.516 203.477 184.434C205.514 184.176 205.813 183.823 205.596 181.69H205.582Z" fill="#231F20"/>
<path d="M149.766 79.7107C149.848 80.2541 150.092 80.6889 150.595 80.9063C151.858 81.4769 153.555 81.0014 154.031 79.6699C154.397 78.6238 154.465 77.632 153.759 76.776C153.026 75.8793 152.116 75.268 150.69 75.9473C149.685 77.1565 149.549 78.3792 149.753 79.6971L149.766 79.7107Z" fill="#231F20"/>
<path d="M160.862 157.153C161.636 157.519 162.817 157.153 163.632 156.351C164.352 155.645 164.27 154.789 164.067 153.946C163.564 151.813 162.532 151.474 160.807 152.819C160.549 153.022 160.332 153.308 159.993 153.702C159.544 154.476 159.314 155.128 159.707 155.794C160.02 156.297 160.237 156.867 160.835 157.153H160.862Z" fill="#231F20"/>
<path d="M90.8403 133.825C90.9762 133.472 91.5465 133.336 91.4379 132.67C90.27 132.725 89.849 131.312 88.4909 131.162C87.7983 131.067 87.2958 130.904 86.8069 130.958C86.0464 131.04 85.6254 131.597 85.639 132.371C85.639 132.792 85.6662 133.227 85.7612 133.635C86.0057 134.695 86.8612 135.333 87.9748 135.374C89.2243 135.401 90.3243 135.184 90.8539 133.825H90.8403Z" fill="#231F20"/>
<path d="M176.317 152.506C176.276 151.704 176.194 151.12 175.692 150.699C175.23 150.305 174.728 149.979 174.117 149.911C173.152 149.802 171.957 150.794 171.523 152.017C171.495 152.098 171.468 152.18 171.441 152.261C171.102 153.403 171.563 154.299 172.704 154.625C173.37 154.816 174.035 154.816 174.687 154.476C175.447 154.068 176.276 153.77 176.317 152.52V152.506Z" fill="#231F20"/>
<path d="M196.402 91.4222C195.926 91.7619 195.397 92.0743 194.989 92.4819C194.337 93.1477 194.324 94.778 194.894 95.566C195.451 96.354 196.51 96.585 197.597 96.123C197.828 96.0279 198.004 95.8242 198.316 95.5388C198.724 94.7101 199.036 94.0172 198.724 93.2156C198.439 92.4683 197.855 91.9792 197.325 91.4494C197.081 91.2048 196.714 91.1776 196.402 91.4086V91.4222Z" fill="#231F20"/>
<path d="M72.1272 106.367C72.2358 106.136 72.2901 105.891 72.3716 105.443C72.358 105.076 72.3716 104.845 72.2901 104.75C71.5432 103.976 70.7963 103.174 69.9679 102.481C69.3567 101.965 67.8493 102.631 67.7406 103.487C67.5913 104.682 67.6592 105.878 68.4876 106.87C69.6283 108.242 71.3123 108.011 72.1272 106.353V106.367Z" fill="#231F20"/>
<path d="M13.8114 94.1664C14.0422 93.2969 13.9743 92.3731 13.241 91.8296C12.1002 90.9872 10.9187 90.0634 9.12607 90.471C8.8952 90.6204 8.81372 90.6748 8.77297 90.7427C8.24333 91.8704 9.07175 92.6991 9.49274 93.5687C9.85942 94.3295 10.5928 94.8729 11.4348 95.1311C12.4126 95.4436 13.6077 94.9409 13.8114 94.1664V94.1664Z" fill="#231F20"/>
<path d="M22.6656 94.8323C21.8915 93.3786 20.452 93.1069 19.352 92.3596C18.5371 91.8026 17.6408 92.3596 17.5593 93.3514C17.3692 95.8105 19.8001 97.2099 21.5249 96.6801C22.3533 96.4355 22.815 95.9192 22.6521 94.8323H22.6656Z" fill="#231F20"/>
<path d="M67.0467 157.601C67.2504 157.22 67.4677 156.854 67.6035 156.446C67.6714 156.229 67.6579 155.93 67.5628 155.712C66.9517 154.082 64.4936 153.24 63.0269 154.15C62.7145 154.34 62.6466 154.68 62.6195 155.033C62.5108 156.5 63.2849 157.451 64.6294 158.239C65.8335 158.584 66.6393 158.371 67.0467 157.601Z" fill="#231F20"/>
<path d="M232.596 111.312C232.039 111.774 231.699 112.155 231.618 112.698C231.441 113.772 231.862 114.682 232.718 115.062C233.533 115.429 234.606 115.157 235.285 114.437C235.909 113.758 236.14 112.97 236.059 112.073C235.95 110.864 235.081 110.266 233.913 110.619C233.505 110.742 233.152 111 232.609 111.312H232.596Z" fill="#231F20"/>
<path d="M158.105 136.936C157.725 137.887 158.16 138.594 158.771 139.219C159.45 139.898 160.387 139.993 161.378 139.558C162.193 139.205 162.451 138.526 162.478 137.711C162.478 137.099 162.302 136.556 161.922 136.053C161.406 135.374 160.727 135.129 159.708 135.211C158.662 135.483 158.391 136.203 158.105 136.923V136.936Z" fill="#231F20"/>
<path d="M68.8394 73.8958C68.8394 73.8958 68.8122 73.923 68.8122 73.9502C69.7221 74.3306 69.6271 73.8143 69.4777 73.3795C69.5048 73.2844 69.532 73.1757 69.5456 73.0535C69.6542 72.2655 69.79 71.6948 69.8715 71.1106C69.953 70.5128 69.8987 69.8879 69.532 69.3988C68.7443 68.3254 67.6715 67.6733 66.327 67.5374C65.9875 67.4967 65.5529 67.7548 65.6615 68.1216C66.0146 69.2629 65.6208 70.703 67.0603 71.4095C67.6986 71.722 68.0517 72.3198 68.1468 73.0399C68.2011 73.3795 68.4184 73.6377 68.8394 73.8958V73.8958Z" fill="#231F20"/>
<path d="M99.5331 89.4659C99.5874 89.167 99.438 88.8001 99.2887 88.5148C98.9356 87.8219 98.4195 87.2649 97.5368 86.8573C96.7083 86.6671 96.2059 86.8573 95.8528 87.4551C95.5404 87.9985 95.4454 88.5692 95.6626 89.167C95.8799 89.724 96.2059 90.2403 96.6948 90.5935C97.2244 90.9739 97.6997 91.6668 98.4602 91.3679C99.2615 91.0554 99.4245 90.2131 99.5331 89.4659V89.4659Z" fill="#231F20"/>
<path d="M154.33 54.9431C155.158 55.2148 155.606 54.7664 156.027 54.2094C156.231 53.9377 156.394 53.6524 156.639 53.1768C156.747 52.185 156.258 51.5329 155.946 50.8672C155.525 49.9841 154.343 49.821 153.556 50.4596C152.646 51.1797 152.564 52.1443 152.714 53.2176C152.85 54.2094 153.447 54.6577 154.316 54.9566L154.33 54.9431Z" fill="#231F20"/>
<path d="M130.374 163.321C130.388 163.171 130.401 163.035 130.415 162.886C130.537 160.726 129.166 160.087 127.672 159.598C127.441 159.53 127.156 159.517 126.938 159.598C125.757 160.074 124.589 160.563 123.448 161.093C122.783 161.405 122.552 162.071 122.389 162.75C122.226 163.389 122.47 163.905 123.095 164.448C123.095 164.462 123.095 164.476 123.109 164.489C123.068 164.489 123.041 164.489 123 164.516C123.149 165.128 123.326 165.522 123.367 165.943C123.435 166.663 123.801 167.003 124.494 167.084C124.915 167.139 125.336 167.22 125.743 167.302C127.563 167.668 129.071 167.111 130.306 165.753C131.162 164.815 131.216 164.598 130.374 163.321V163.321Z" fill="#231F20"/>
<path d="M104.232 119.043C103.947 118.282 102.697 117.603 101.774 117.739C101.624 117.766 101.516 117.943 101.258 118.187C100.701 118.948 100.171 119.138 99.397 118.962C98.9081 118.853 98.6773 119.369 99.0032 119.804C99.8724 120.972 101.217 121.312 102.507 121.462C104.137 121.638 104.789 120.619 104.218 119.043H104.232Z" fill="#231F20"/>
<path d="M82.244 128.01C82.4477 127.358 82.76 126.787 83.0724 126.19C83.2761 125.823 82.8008 125.687 82.2983 125.565C81.5106 125.103 81.1032 124.45 80.2476 124.301C78.8081 124.043 78.7809 124.016 79.1204 125.578C79.2834 126.325 79.3241 127.086 79.5007 127.833C79.6501 128.486 80.1526 128.812 80.818 128.825C81.4427 128.839 82.0403 128.676 82.244 128.01Z" fill="#231F20"/>
<path d="M191.078 179.475C191.187 179.475 191.309 179.448 191.418 179.434C192.11 178.864 192.436 178.239 192.11 177.546C191.717 176.717 191.282 175.834 190.223 175.644C188.987 175.426 187.846 175.467 187.004 176.88C187.031 176.961 187.058 177.029 187.072 177.097C187.018 176.989 186.963 176.866 186.923 176.758C186.067 177.315 185.836 178.089 185.823 178.809C185.795 180.181 187.737 181.499 189.15 181.078C190.019 180.82 190.888 180.467 191.092 179.475H191.078Z" fill="#231F20"/>
<path d="M213.732 138.213C213.392 139.096 213.066 139.966 214.22 140.768C214.655 140.863 214.899 140.944 215.144 140.917C216.624 140.822 217.561 139.056 216.801 137.806C216.529 137.357 216.122 137.031 215.551 137.126C214.804 137.249 214.044 137.371 213.718 138.227L213.732 138.213Z" fill="#231F20"/>
<path d="M40.2522 102.631C39.709 102.4 39.1522 102.332 38.5411 102.482C37.441 102.753 37.2645 102.998 37.5225 104.642C38.1201 105.538 38.7448 106.028 39.709 105.905C40.4559 105.81 41.0399 105.389 41.1893 104.764C41.393 103.935 40.972 102.943 40.2522 102.631V102.631Z" fill="#231F20"/>
<path d="M221.172 191.635C221.511 190.561 220.887 190.059 220.371 189.515C219.841 188.958 219.23 188.877 218.537 189.189C217.79 189.515 217.288 190.018 217.206 190.86C217.139 191.567 217.736 192.545 218.388 192.586C219.366 192.654 220.411 192.749 221.186 191.635H221.172Z" fill="#231F20"/>
<path d="M138.074 144.409C138.563 145.115 139.473 145.237 140.029 144.612C140.586 143.987 141.075 143.295 141.51 142.575C141.849 142.017 141.482 141.406 140.79 141.297C140.382 141.229 139.948 141.257 139.54 141.162C138.549 140.917 137.938 141.393 137.422 142.371C137.463 143.227 137.707 143.852 138.087 144.409H138.074Z" fill="#231F20"/>
<path d="M96.8697 106.041C97.0734 106.041 97.3721 105.851 97.4808 105.674C97.6573 105.375 97.6709 104.995 97.4129 104.737C96.9511 104.261 96.4079 103.84 95.9326 103.378C95.1585 102.617 94.4116 102.889 93.556 103.568C93.1893 104.234 92.9041 104.75 92.7412 105.307C92.551 105.987 93.0671 106.598 93.6918 106.367C94.7375 105.987 95.7832 106 96.8697 106.055V106.041Z" fill="#231F20"/>
<path d="M258.479 162.22C258.683 161.718 258.724 161.242 258.52 160.74C258.357 160.346 258.221 159.952 258.004 159.381C257.637 158.756 257.257 158.416 256.673 158.634C256.089 158.851 255.627 159.259 255.641 159.938C255.641 160.617 255.722 161.297 255.817 161.962C255.926 162.737 256.442 163.185 257.176 163.226C257.787 163.267 258.194 162.913 258.479 162.22V162.22Z" fill="#231F20"/>
<path d="M211.15 145.808C210.892 146.352 210.783 146.922 211.231 147.629C211.843 147.928 212.304 148.159 212.793 148.199C213.88 148.308 214.898 147.004 214.545 146.012C214.26 145.238 213.594 144.843 212.888 144.613C212.345 144.422 211.503 145.061 211.164 145.808H211.15Z" fill="#231F20"/>
<path d="M190.183 130.51C190.482 130.904 190.686 131.257 190.971 131.325C191.636 131.488 192.179 131.706 192.682 132.249C193.225 132.833 194.081 132.561 194.556 131.828C194.923 131.271 194.76 130.374 194.135 130.075C193.388 129.708 192.614 129.477 192.044 128.798C191.731 128.431 191.27 128.554 190.916 128.852C190.455 129.233 190.088 129.695 190.183 130.524V130.51Z" fill="#231F20"/>
<path d="M154.044 147.995C154.207 146.854 153.99 146.025 152.971 145.835C152.306 145.713 151.898 144.966 151.097 145.197C150.948 146.012 150.73 146.827 150.635 147.656C150.513 148.851 151.314 149.544 152.537 149.408C153.324 149.327 153.759 148.892 154.044 147.995Z" fill="#231F20"/>
<path d="M113.819 109.764C113.751 110.755 113.615 111.815 114.838 112.562C115.815 112.97 116.562 112.834 117.011 112.114C117.391 111.516 117.282 110.783 116.848 110.212C116.318 109.519 115.585 109.098 114.702 109.057C114.254 109.03 113.846 109.288 113.806 109.764H113.819Z" fill="#231F20"/>
<path d="M92.484 120.443C93.0816 120.035 93.0951 119.328 92.5247 118.201C92.4433 118.065 92.3075 117.956 92.0358 117.712C91.2346 117.127 90.5284 116.829 89.8494 117.494C89.1704 118.16 89.1568 119.315 89.7543 120.008C90.4198 120.769 91.7099 120.972 92.4976 120.429L92.484 120.443Z" fill="#231F20"/>
<path d="M23.5628 102.128C23.5763 101.68 23.5084 101.259 23.2097 100.933C22.585 100.226 21.9467 99.5333 20.6973 99.5061C19.4207 99.8729 19.312 99.9816 19.5701 100.593C19.8417 101.218 20.1405 101.829 20.48 102.414C20.8602 103.066 21.5121 103.283 22.2047 103.351C22.8973 103.419 23.522 102.848 23.5492 102.128H23.5628Z" fill="#231F20"/>
<path d="M221.255 92.876C221.174 93.3107 221.255 93.7862 221.649 94.0036C222.219 94.3433 222.83 94.778 223.55 94.4791C224.297 94.1667 224.351 93.4602 224.392 92.7673C224.433 92.2102 224.107 91.8026 223.727 91.2456C222.26 91.2456 221.459 91.857 221.255 92.8895V92.876Z" fill="#231F20"/>
<path d="M192.546 106.557C193.035 107.535 193.293 107.685 194.638 107.495C195.493 106.652 196.077 105.837 196.186 104.777C196.254 104.098 195.738 103.65 195.086 103.745C194.203 103.881 193.524 104.37 192.913 104.968C192.465 105.402 192.22 105.905 192.546 106.557V106.557Z" fill="#231F20"/>
<path d="M29.8359 106.544C30.3112 105.457 30.026 104.75 28.8445 104.085C27.7309 103.46 26.5629 103.297 26.2777 103.827C25.8567 104.615 26.5629 105.212 26.7938 105.892C26.8481 106.041 27.0111 106.15 27.2555 106.394C27.663 106.72 27.921 106.965 28.2198 107.101C29.0482 107.481 29.4963 107.318 29.8359 106.544Z" fill="#231F20"/>
<path d="M54.1865 137.711C54.5532 136.841 55.0149 136.148 55.9113 135.7C56.4409 135.428 56.4138 134.572 55.9792 134.137C55.694 133.839 55.3273 133.594 54.9606 133.404C54.3767 133.105 53.7791 133.336 53.4668 133.906C53.1952 134.409 53.4124 135.129 52.6927 135.686C52.6927 135.686 52.6927 135.7 52.6927 135.713C52.6655 135.646 52.6384 135.564 52.6112 135.496C51.7692 135.7 51.8507 136.189 51.9186 136.692C52.0408 137.371 52.2853 137.942 53.0593 137.806C53.1408 137.874 53.2223 137.942 53.3174 138.01C53.752 137.914 54.1186 137.887 54.1865 137.724V137.711Z" fill="#231F20"/>
<path d="M80.9396 115.157C80.6544 115.932 80.7358 116.801 80.3013 117.576C80.1383 117.861 80.7223 117.956 81.2383 117.943C81.9988 117.82 82.61 117.793 83.1532 117.576C83.6557 117.386 83.9273 116.869 83.7507 116.326C83.547 115.687 83.2347 115.076 82.6507 114.655C82.0667 114.247 81.2112 114.478 80.9531 115.157H80.9396Z" fill="#231F20"/>
<path d="M58.7217 142.316C58.7217 141.977 58.6809 141.637 58.5994 141.311C58.4229 140.618 57.8118 140.17 57.092 140.156C56.2364 140.142 55.571 140.564 55.2314 141.27C54.9191 141.895 55.408 142.398 55.8697 142.792C56.1957 143.064 56.5623 143.281 57.092 143.58C57.608 143.58 57.9611 143.58 58.2463 143.43C58.6673 143.213 58.7081 142.751 58.7081 142.33L58.7217 142.316Z" fill="#231F20"/>
<path d="M3.40877 87.6181C2.74333 86.7622 1.94207 86.5584 1.10008 86.4769C0.353147 86.4089 -0.203657 87.0883 0.0679546 87.7676C0.312405 88.3925 0.624758 88.9767 1.27663 89.2892C1.83343 89.5474 2.37665 89.6832 2.93345 89.3028C3.49026 88.936 3.68039 88.4333 3.40877 87.6181V87.6181Z" fill="#231F20"/>
<path d="M69.8988 142.479C69.9395 141.542 70.4013 140.958 71.0803 140.387C71.4198 140.102 71.3519 139.572 71.121 139.192C70.8358 138.73 70.3469 138.485 69.8173 138.539C69.2741 138.594 69.2197 139.069 69.2062 139.504C69.1926 139.762 69.2062 140.02 69.1383 140.428C68.8123 140.591 68.5407 140.577 68.3098 140.632C67.5222 140.795 67.237 141.27 67.5765 141.868C67.8209 142.316 68.0926 142.738 68.6086 142.955C69.0568 143.145 69.8852 142.914 69.8988 142.466V142.479Z" fill="#231F20"/>
<path d="M120.623 140.346C119.754 139.586 118.898 139.735 118.301 140.659C117.907 141.284 118.233 141.8 118.477 142.33C118.627 142.656 118.966 142.833 119.319 142.792C120.161 142.67 121.017 142.52 121.248 141.325C121.03 140.89 120.881 140.564 120.637 140.346H120.623Z" fill="#231F20"/>
<path d="M211.654 105.973C211.559 106.829 212.061 107.373 213.012 107.4C213.338 107.4 213.677 107.277 214.166 107.101C214.832 106.544 214.94 106.014 214.628 105.403C214.384 104.913 213.949 104.655 213.419 104.56C212.55 104.411 211.749 105.063 211.654 105.973Z" fill="#231F20"/>
<path d="M196.306 169.367C195.614 169.625 194.921 169.91 194.106 170.345C193.726 171.079 193.644 171.663 194.174 172.111C194.676 172.532 195.315 172.451 195.831 172.193C196.347 171.934 196.768 171.5 197.23 171.146C197.664 170.807 197.895 170.372 197.596 169.842C197.325 169.353 196.877 169.149 196.32 169.367H196.306Z" fill="#231F20"/>
<path d="M186.571 101.734C186.653 102.604 187.277 103.093 188.16 102.93C189.111 102.753 189.627 102.033 189.627 100.837C189.627 100.403 189.518 99.9951 189.124 99.7234C188.717 99.438 188.309 99.5603 187.725 99.7777C186.734 100.226 186.49 100.892 186.557 101.734H186.571Z" fill="#231F20"/>
<path d="M85.3127 110.742C85.3534 109.9 85.0275 109.41 84.6336 108.949C84.1991 108.446 83.6015 108.364 83.0311 108.704C82.3793 109.098 82.1348 109.682 82.2163 110.443C82.3114 111.231 82.6101 111.584 83.4657 111.856C84.3756 112.141 84.9324 111.788 85.2991 110.755L85.3127 110.742Z" fill="#231F20"/>
<path d="M85.9238 32.5936C86.535 32.4714 86.6572 31.6562 86.3177 30.3247C86.2362 29.9987 86.1411 29.659 85.9374 29.4009C85.6794 29.0612 85.2855 28.871 84.8238 28.9661C84.4571 29.034 84.2534 29.3058 84.104 29.6182C83.8596 30.0938 83.9139 30.61 84.0769 31.2894C84.5658 32.1181 85.0139 32.7838 85.9238 32.5936V32.5936Z" fill="#231F20"/>
<path d="M98.8809 131.841C99.5328 132.466 100.13 132.684 100.85 132.48C101.774 132.208 102.195 130.945 101.583 130.252C101.122 129.722 99.8587 129.382 99.2748 129.763C98.5822 130.211 98.3106 130.89 98.8809 131.841Z" fill="#231F20"/>
<path d="M198.603 82.265C198.481 82.9579 198.82 83.5965 199.472 83.909C200.11 84.2079 200.599 83.9905 200.979 83.447C201.115 83.2433 201.237 83.0259 201.441 82.6319C201.563 81.5586 201.441 80.7162 200.409 80.5124C199.689 80.363 198.779 81.314 198.603 82.2786V82.265Z" fill="#231F20"/>
<path d="M131.079 88.4333C131.473 88.2702 131.867 88.1072 132.22 87.8762C133.089 87.3464 133.089 86.1508 132.234 85.5394C131.786 85.2269 131.283 85.1998 130.686 85.6481C130.102 86.341 129.939 86.966 130.007 87.6725C130.061 88.2431 130.563 88.6235 131.066 88.4197L131.079 88.4333Z" fill="#231F20"/>
<path d="M31.9819 12.9206C32.0905 12.0103 31.6967 11.494 31.1806 11.0457C30.7596 10.6652 30.2707 10.706 29.7682 10.8826C29.3336 11.0321 29.0892 11.3853 29.062 11.8201C28.9941 12.6896 29.5781 13.1923 30.2435 13.5727C30.9497 13.9939 31.5201 13.7357 31.9954 12.9206H31.9819Z" fill="#231F20"/>
<path d="M178.57 89.2483C177.973 90.1314 178.244 90.7156 179.684 91.1096C180.689 90.6612 181.164 90.0227 181.382 89.1396C181.49 88.6912 181.49 88.2972 181.069 88.0119C180.77 87.8081 180.444 87.7945 180.119 87.9711C179.521 88.2972 178.964 88.6641 178.57 89.2483V89.2483Z" fill="#231F20"/>
<path d="M215.293 89.4114C215.253 90.1586 215.497 90.5934 215.959 90.8923C216.339 91.1369 216.774 91.1505 217.154 90.8923C217.847 90.4168 218.118 89.6967 218.077 88.9087C218.05 88.3517 217.561 88.0528 217.086 87.8354C216.638 87.6452 216.231 87.7811 215.945 88.1343C215.687 88.4604 215.524 88.8544 215.293 89.4114V89.4114Z" fill="#231F20"/>
<path d="M134.76 99.3021C135.208 99.4515 135.589 99.3292 135.901 98.9896C136.458 98.4054 136.539 97.794 136.118 97.1418C135.711 96.5169 135.045 96.2452 134.353 96.5033C133.769 96.7207 133.321 97.1011 133.402 97.9842C133.687 98.7586 134.149 99.0983 134.747 99.3021H134.76Z" fill="#231F20"/>
<path d="M200.855 107.929C200.814 107.766 200.706 107.63 200.502 107.359C198.886 107.141 198.424 107.481 198.614 108.486C198.818 109.573 199.538 110.28 200.19 110.062C200.896 109.831 201.14 109.057 200.855 107.943V107.929Z" fill="#231F20"/>
<path d="M228.941 127.657C229.199 127.969 229.362 128.594 230.054 128.472C230.475 127.765 230.883 127.059 231.317 126.162C230.571 124.953 230.272 124.79 229.606 125.075C228.343 125.619 228.058 126.556 228.941 127.657Z" fill="#231F20"/>
<path d="M85.6114 115.021C86.046 115.334 86.5349 115.443 87.0645 115.307C87.5263 115.184 87.7571 114.858 87.7979 114.193C87.6892 113.676 87.6485 113.31 87.4855 113.038C87.0509 112.386 86.4127 112.25 85.6929 112.481C85.1632 112.644 84.8237 113.011 84.7694 113.581C84.6879 114.274 85.1361 114.682 85.625 115.035L85.6114 115.021Z" fill="#231F20"/>
<path d="M53.0054 37.5117C52.8424 36.9003 52.3671 36.547 51.9189 36.1802C51.1312 35.5281 50.5201 35.3922 50.167 35.827C49.6781 36.4248 50.167 36.9139 50.5201 37.5796C50.9004 38.1502 51.1177 38.6393 51.6201 38.8295C52.0276 38.9926 52.4621 38.9518 52.8016 38.6665C53.1547 38.3676 53.1276 37.9328 53.0189 37.5117H53.0054Z" fill="#231F20"/>
<path d="M93.9503 185.29C93.9639 184.977 93.7737 184.665 93.5429 184.244C93.0676 184.081 92.728 183.958 92.4293 184.013C91.6688 184.122 91.1527 184.706 91.1663 185.317C91.1799 185.969 92.0083 186.662 92.7416 186.621C93.3935 186.594 93.9096 186.064 93.9503 185.304V185.29Z" fill="#231F20"/>
<path d="M113.492 37.4981C112.908 38.259 112.976 39.0741 113.357 39.8757C113.438 40.0523 113.778 40.2018 113.995 40.1882C114.864 40.1203 115.299 39.5632 115.557 38.0959C115.475 37.4845 115.434 37.0226 114.986 36.8324C114.429 36.6014 114.022 36.9139 113.655 37.2943C113.601 37.3623 113.547 37.4302 113.492 37.4981Z" fill="#231F20"/>
<path d="M162.438 128.146C162.071 128.798 162.071 129.287 162.465 129.708C162.777 130.048 163.198 130.197 163.592 129.871C164.543 129.043 165.032 127.996 164.828 126.706C164.801 126.502 164.543 126.298 164.353 126.19C164.108 126.054 163.809 126.149 163.674 126.366C163.32 126.923 163.212 127.657 162.438 128.16V128.146Z" fill="#231F20"/>
<path d="M113.29 93.2291C113.317 92.509 112.882 91.9656 112.353 91.5308C111.837 91.096 111.28 91.1232 110.642 91.7346C110.492 92.2237 110.356 92.5769 110.424 92.8758C110.682 94.1394 111.837 94.6013 112.896 93.8541C113.086 93.7182 113.276 93.4465 113.29 93.2427V93.2291Z" fill="#231F20"/>
<path d="M215.375 124.505C215.348 124.994 215.606 125.306 216.013 125.497C216.584 125.768 217.168 125.782 217.684 125.374C218.295 124.899 218.349 124.247 218.05 123.391C217.561 122.807 217.127 122.711 216.611 123.024C216.04 123.391 215.429 123.717 215.375 124.505V124.505Z" fill="#231F20"/>
<path d="M155.116 114.981C154.614 115.742 154.777 116.516 155.51 116.964C155.999 117.25 156.311 117.087 157.112 115.973C157.18 115.117 156.882 114.668 156.203 114.492C155.714 114.369 155.374 114.6 155.116 114.981V114.981Z" fill="#231F20"/>
<path d="M194.881 134.64C195.098 135.075 195.248 135.415 195.506 135.578C196.171 136.012 196.809 135.822 197.19 135.143C197.556 134.491 197.339 133.811 196.66 133.472C195.872 133.078 195.438 133.322 194.881 134.64V134.64Z" fill="#231F20"/>
<path d="M67.6443 85.7158C67.4678 85.444 67.1826 85.2131 66.7888 84.8734C66.2048 84.6153 65.7431 84.493 65.4714 84.9278C65.0369 85.6614 65.3221 86.7483 65.9739 87.2103C66.4493 87.5363 67.2505 87.5092 67.6308 87.1152C68.0518 86.6668 67.9295 86.1641 67.6443 85.7158V85.7158Z" fill="#231F20"/>
<path d="M139.216 57.2527C139.297 57.6738 139.46 58.0543 139.935 58.163C140.37 58.2581 140.804 58.2173 141.076 57.8505C141.307 57.5244 141.416 57.1032 141.592 56.5326C140.927 55.3234 140.492 55.0517 139.949 55.3098C139.378 55.5816 139.12 56.1522 139.188 57.0081C139.188 57.0896 139.202 57.1712 139.229 57.2527H139.216Z" fill="#231F20"/>
<path d="M140.967 114.451C140.967 115.008 141.401 115.402 141.945 115.348C142.692 115.266 143.208 114.886 143.438 114.166C143.724 113.283 143.343 112.698 142.338 112.359C141.32 112.821 140.98 113.541 140.967 114.451V114.451Z" fill="#231F20"/>
<path d="M59.9046 46.1255C59.6194 45.3375 59.3749 44.4816 58.207 44.1963C57.0662 44.4408 56.781 44.9028 57.202 45.4326C57.6774 46.0304 58.2342 46.5603 58.9675 46.832C59.1712 46.9136 59.5107 46.8864 59.6873 46.7641C59.8367 46.6554 59.9725 46.3022 59.9181 46.1255H59.9046Z" fill="#231F20"/>
<path d="M91.8459 72.9176C91.6151 72.6867 91.3299 72.4964 91.0311 72.3334C90.4743 72.0209 89.9175 72.3606 89.8089 73.0942C89.7817 73.3252 89.8904 73.5834 90.0397 74.0045C90.257 74.2898 90.3521 74.4393 90.4879 74.5344C91.3842 75.1322 91.9682 75.2001 92.2398 74.7382C92.5657 74.1947 92.4299 73.5154 91.8459 72.9312V72.9176Z" fill="#231F20"/>
<path d="M193.035 166.622C192.723 165.984 192.139 165.943 191.351 166.12C190.998 166.459 190.754 166.704 190.618 167.003C190.387 167.519 190.482 167.995 190.971 168.321C191.473 168.647 192.193 168.579 192.614 168.212C193.035 167.845 193.252 167.084 193.035 166.622Z" fill="#231F20"/>
<path d="M218.144 79.1131C217.9 79.4527 217.696 79.8331 217.588 80.2407C217.465 80.6891 217.696 81.0831 218.076 81.3412C218.497 81.6129 218.918 81.4635 219.204 81.1103C219.462 80.7842 219.625 80.3902 219.856 79.8331C219.828 79.2082 219.733 78.8006 219.244 78.6511C218.755 78.5017 218.402 78.7734 218.144 79.1131V79.1131Z" fill="#231F20"/>
<path d="M151.764 83.6643C151.424 84.1126 151.356 84.5746 151.696 85.0637C151.995 85.4984 152.307 85.9196 152.918 85.7294C153.461 85.5664 153.719 85.1452 153.801 84.6017C153.869 84.167 153.76 83.7594 153.38 83.2703C152.538 82.7404 152.13 83.1752 151.75 83.6643H151.764Z" fill="#231F20"/>
<path d="M110.234 157.058C110.166 156.528 109.854 156.147 109.148 155.957C108.523 156.052 108.211 156.283 108.048 156.704C107.844 157.221 107.885 157.682 108.319 158.049C108.713 158.375 109.148 158.674 109.664 158.348C110.126 158.049 110.302 157.587 110.234 157.058V157.058Z" fill="#231F20"/>
<path d="M96.0689 94.8323C96.4492 95.1448 96.8566 95.1856 97.1961 94.8323C97.5356 94.4655 97.8887 94.0715 98.1467 93.6367C98.5541 92.9438 98.2146 92.5226 97.3726 92.3188C96.7479 92.74 96.2726 93.0933 95.8516 93.5144C95.4849 93.8813 95.6072 94.4519 96.0689 94.8459V94.8323Z" fill="#231F20"/>
<path d="M22.8563 48.0139C22.9106 46.9678 22.1637 46.6145 21.6612 46.0982C21.3896 45.8265 21.0229 45.9895 20.8328 46.302C20.4253 47.0221 20.5068 47.8101 21.0772 48.34C21.6748 48.897 22.2723 48.8155 22.8427 48.0003L22.8563 48.0139Z" fill="#231F20"/>
<path d="M35.6083 115.497C35.7712 114.668 35.0922 113.785 34.2909 113.677C33.6119 113.595 33.1366 114.057 33.2181 114.723C33.286 115.375 33.6119 115.81 34.4267 116.068C35.0514 116.068 35.5132 116 35.6083 115.511V115.497Z" fill="#231F20"/>
<path d="M180.227 157.452C180.145 158.063 180.689 158.647 181.273 158.606C181.952 158.552 182.468 157.995 182.481 157.207C182.495 156.405 181.965 156.215 181.11 156.365C180.607 156.704 180.281 156.99 180.227 157.452V157.452Z" fill="#231F20"/>
<path d="M131.663 82.5097C131.921 82.958 132.315 83.2977 132.872 83.2026C133.47 83.1075 133.592 82.564 133.714 82.0885C133.877 81.4228 133.551 80.825 132.804 80.5397C132.003 80.2408 131.84 80.9065 131.555 81.613C131.555 82.0342 131.555 82.3059 131.663 82.5097V82.5097Z" fill="#231F20"/>
<path d="M124.371 148.974C124.263 148.593 124.032 148.254 123.706 147.86C123.774 147.792 123.855 147.724 123.923 147.642C124.072 147.194 124.167 146.949 124.154 146.705C124.059 145.659 123.719 145.224 122.932 145.02C122.062 144.803 121.465 145.237 120.949 145.822C120.799 145.985 120.704 146.324 120.772 146.528C120.976 147.167 121.166 147.86 122.212 147.982C122.225 147.982 122.253 147.995 122.266 148.009C122.198 148.036 122.144 148.05 122.076 148.077C122.09 148.675 121.967 149.11 122.076 149.49C122.239 150.196 122.891 150.495 123.651 150.319C124.29 150.169 124.575 149.694 124.371 148.974V148.974Z" fill="#231F20"/>
<path d="M109.067 171.092C108.971 170.793 108.713 170.549 108.36 170.195C107.749 170.032 107.355 170.114 107.125 170.535C106.921 170.888 106.704 171.269 106.812 171.704C106.853 171.853 106.934 172.03 107.043 172.125C107.518 172.56 108.075 172.641 108.646 172.356C109.202 172.084 109.216 171.568 109.053 171.079L109.067 171.092Z" fill="#231F20"/>
<path d="M44.7604 61.5322C44.6246 61.2197 44.4481 60.9344 44.2444 60.6627C43.9592 60.2959 43.5789 60.1328 43.1307 60.3502C42.669 60.5676 42.6283 60.9888 42.7233 61.6001C43.0357 62.2523 43.4431 62.524 43.9999 62.5376C44.5975 62.5376 44.9913 62.0485 44.7604 61.5322Z" fill="#231F20"/>
<path d="M150.065 174.747C149.916 174.475 149.563 174.326 149.101 174.108C148.639 174.271 148.272 174.38 148.082 174.638C147.661 175.236 147.783 175.82 148.272 176.214C148.721 176.568 149.209 176.595 149.685 176.296C150.228 175.956 150.405 175.358 150.051 174.747H150.065Z" fill="#231F20"/>
<path d="M62.4166 69.0863C62.3216 68.7874 62.1043 68.5021 61.8734 68.2847C61.3981 67.8228 60.9499 68.0402 60.4746 69.1135C60.5154 69.4667 60.5289 69.6434 60.5833 69.7928C60.7462 70.4042 61.0722 70.8933 61.7919 70.7574C62.3623 70.6488 62.6611 69.8336 62.4166 69.0863Z" fill="#231F20"/>
<path d="M73.4838 142.561C73.4702 142.099 73.1578 141.787 72.8455 141.501C72.3566 141.053 71.5961 141.148 71.2702 141.637C70.8627 142.262 71.0936 142.941 71.9356 143.526C72.0714 143.621 72.2615 143.594 72.6146 143.58C73.185 143.322 73.4974 143.05 73.4838 142.561V142.561Z" fill="#231F20"/>
<path d="M133.796 92.7128C134.353 92.5498 134.924 92.3732 135.453 92.1422C135.915 91.9384 135.888 91.5716 135.249 90.6477C134.217 90.6885 133.973 91.558 133.389 92.0063C133.321 92.0607 133.348 92.346 133.416 92.4683C133.484 92.5905 133.701 92.74 133.796 92.7128V92.7128Z" fill="#231F20"/>
<path d="M91.7242 130.102C91.9687 130.632 92.2403 131.203 93.1502 131.135C93.6934 130.822 93.9786 130.523 93.9922 130.062C93.9922 129.817 93.965 129.559 93.8835 129.314C93.707 128.771 93.028 128.594 92.3761 128.879C91.8736 129.097 91.5341 129.667 91.7378 130.089L91.7242 130.102Z" fill="#231F20"/>
<path d="M27.7851 114.315C27.6765 114.179 27.5542 114.071 27.3234 113.799C26.8209 113.405 26.4406 113.283 26.1011 113.704C25.8567 114.003 25.9246 114.329 26.074 114.641C26.1826 114.872 26.3184 115.089 26.4814 115.28C26.9295 115.823 27.4863 116.176 28.2197 116.013C28.6135 115.918 28.4234 115.144 27.7715 114.315H27.7851Z" fill="#231F20"/>
<path d="M180.011 63.937C179.781 64.5076 179.713 64.956 180.12 65.2277C180.69 65.6217 181.451 65.4315 181.913 64.8609C182.293 64.3854 182.252 63.7061 181.763 63.2849C181.152 62.755 180.69 63.0947 180.269 63.5838C180.215 63.6381 180.161 63.7196 180.025 63.937H180.011Z" fill="#231F20"/>
<path d="M144.877 145.237C145.04 146.528 145.339 146.881 145.855 146.773C146.575 146.623 147.213 145.686 147.009 145.101C146.805 144.572 146.072 144.395 145.298 144.707C145.162 144.762 145.067 144.938 144.877 145.237V145.237Z" fill="#231F20"/>
<path d="M7.99976 108.337C7.61951 107.685 7.18493 107.046 6.73677 106.435C6.58739 106.218 6.28861 106.204 6.04416 106.313C5.79971 106.421 5.60958 106.612 5.70465 106.897C5.93552 107.535 6.13923 108.188 6.438 108.785C6.61455 109.125 7.02196 109.084 7.53803 109.016C7.94544 108.813 8.10841 108.554 7.98618 108.337H7.99976Z" fill="#231F20"/>
<path d="M206.057 95.3759C205.324 95.5117 204.943 95.8242 204.808 96.3541C204.726 96.6802 204.767 97.0334 205.093 97.2372C205.65 97.604 206.424 97.4138 206.858 96.8296C207.266 96.2998 207.089 95.8922 206.057 95.3623V95.3759Z" fill="#231F20"/>
<path d="M208.231 82.8899C207.973 83.3382 208.123 83.6507 209.073 84.1806C209.793 84.0175 210.146 83.6643 210.255 83.1344C210.336 82.7948 210.255 82.4415 209.915 82.2649C209.359 81.9524 208.598 82.2513 208.218 82.8899H208.231Z" fill="#231F20"/>
<path d="M27.486 175.372C26.9971 175.154 26.4946 175.141 26.0601 175.508C25.6798 175.834 25.8563 176.445 26.4946 176.975C26.6169 177.084 26.807 177.084 27.1329 177.07C27.3638 176.961 27.4589 176.921 27.486 176.853C27.9478 176.065 27.9613 175.562 27.486 175.358V175.372Z" fill="#231F20"/>
<path d="M188.391 108.215C188.486 108.541 188.73 108.799 189.083 108.853C189.436 108.908 189.721 108.758 189.912 108.459C190.333 107.794 190.238 107.508 189.165 106.707C188.445 107.087 188.214 107.59 188.391 108.215V108.215Z" fill="#231F20"/>
<path d="M244.885 193.455C244.64 192.83 244.178 192.599 243.472 192.694C243.024 192.749 242.644 192.966 242.63 193.469C242.603 194.053 242.997 194.406 243.499 194.569C243.73 194.637 243.988 194.556 244.396 194.447C244.776 194.094 245.034 193.822 244.885 193.469V193.455Z" fill="#231F20"/>
<path d="M114.497 182.736C114.918 183.252 115.638 183.293 116.073 182.885C116.467 182.532 116.358 182.111 115.733 181.404C115.679 181.35 115.584 181.323 115.339 181.268C114.742 181.363 114.348 181.554 114.294 182.043C114.267 182.274 114.362 182.559 114.497 182.736Z" fill="#231F20"/>
<path d="M103.905 106.435C103.702 105.932 103.349 105.593 102.588 105.783C102.14 106.218 101.977 106.584 102.113 107.033C102.33 107.698 102.887 108.065 103.43 107.929C103.946 107.807 104.177 107.101 103.892 106.435H103.905Z" fill="#231F20"/>
<path d="M178.503 173.578C178.394 172.682 177.932 172.383 177.253 172.546C176.832 172.655 176.506 172.981 176.52 173.456C176.52 174.04 176.941 174.38 177.43 174.543C178.068 174.747 178.299 174.231 178.516 173.578H178.503Z" fill="#231F20"/>
<path d="M104.205 61.8447C104.626 61.8447 104.897 61.8583 105.128 61.7768C105.848 61.5187 105.984 61.1247 105.481 60.7171C105.155 60.4589 104.802 60.228 104.422 60.0513C104.055 59.8747 103.593 60.2551 103.539 60.6899C103.498 61.1518 103.661 61.5051 104.205 61.8311V61.8447Z" fill="#231F20"/>
<path d="M164.08 123.853C164.039 123.404 163.781 123.092 163.292 123.078C162.953 123.078 162.654 123.241 162.464 123.526C162.192 123.907 162.219 124.301 162.532 124.641C162.763 124.872 163.034 125.048 163.469 125.293C164.419 125.035 164.134 124.396 164.08 123.866V123.853Z" fill="#231F20"/>
<path d="M225.139 144.395C225.193 144.871 225.492 145.156 225.954 145.237C226.415 145.319 226.782 145.142 226.986 144.707C227.149 144.354 226.999 144.042 226.687 143.621C226.212 143.403 225.886 143.335 225.56 143.539C225.248 143.743 225.085 144.015 225.125 144.381L225.139 144.395Z" fill="#231F20"/>
<path d="M226.876 174.136C227.188 174.462 227.623 174.502 227.99 174.217C228.275 173.986 228.302 173.633 228.18 173.32C227.99 172.831 227.677 172.478 226.958 172.532C226.333 173.13 226.442 173.674 226.876 174.136V174.136Z" fill="#231F20"/>
<path d="M181.369 141.352C182.13 141.746 182.646 141.719 182.85 140.944C182.958 140.51 182.836 140.116 182.429 139.871C182.048 139.654 181.6 139.626 181.261 139.898C180.772 140.279 180.921 140.768 181.369 141.352V141.352Z" fill="#231F20"/>
<path d="M33.4763 124.641C33.7208 124.165 33.6529 123.635 33.2183 123.282C32.7837 122.929 32.2541 122.983 31.8331 123.309C31.317 123.73 31.5479 124.192 32.0368 124.749C32.6751 125.13 33.1911 125.211 33.4899 124.641H33.4763Z" fill="#231F20"/>
<path d="M63.0556 65.6219C63.1507 65.1464 62.8927 64.8203 62.4445 64.4127C62.0235 64.1274 61.6976 63.8964 61.3852 64.1002C60.9507 64.3855 61.0321 64.8339 61.2766 65.2007C61.5075 65.5404 61.7791 65.8664 62.0914 66.1246C62.363 66.3555 62.9742 66.0159 63.0556 65.6219V65.6219Z" fill="#231F20"/>
<path d="M134.489 112.848C134.462 112.277 134.136 111.91 133.62 111.747C133.307 111.638 132.954 111.679 132.737 112.005C132.452 112.426 132.642 112.793 133.022 113.269C134.163 113.473 134.516 113.323 134.489 112.848V112.848Z" fill="#231F20"/>
<path d="M202.989 73.9909C202.88 74.1675 202.934 74.4664 202.989 74.874C203.464 75.499 203.926 75.4718 204.347 75.0914C204.768 74.7245 204.795 74.1539 204.428 73.8007C203.98 73.3523 203.355 73.4067 202.989 73.9773V73.9909Z" fill="#231F20"/>
<path d="M173.898 85.4307C173.464 85.8654 173.233 86.2187 173.491 86.6806C173.667 87.0067 173.953 87.1697 174.306 87.2105C174.672 87.2512 174.985 87.1018 175.148 86.7621C175.474 86.042 175.08 85.5258 173.898 85.4307V85.4307Z" fill="#231F20"/>
<path d="M226.959 110.742C227.068 111.068 227.149 111.231 227.271 111.34C227.733 111.72 228.222 111.734 228.589 111.244C228.928 110.796 228.887 110.253 228.466 109.859C227.978 109.41 227.529 109.682 227.176 110.117C227.068 110.239 227.027 110.416 226.959 110.742Z" fill="#231F20"/>
<path d="M113.411 164.856C113.452 164.652 113.316 164.353 113.166 164.19C112.949 163.946 112.65 163.769 112.202 163.525C111.591 163.457 111.17 163.525 111.102 164.068C111.034 164.584 111.387 164.802 111.822 164.924C112.148 165.006 112.474 165.101 112.8 165.155C113.058 165.196 113.357 165.114 113.397 164.856H113.411Z" fill="#231F20"/>
<path d="M191.31 189.244C191.106 188.89 190.957 188.659 190.739 188.551C190.332 188.347 189.897 188.32 189.626 188.768C189.381 189.176 189.517 189.57 189.829 189.909C190.305 190.412 190.658 190.29 191.31 189.244V189.244Z" fill="#231F20"/>
<path d="M114.415 88.0257C114.388 87.9442 114.334 87.8763 114.157 87.6996C113.369 87.4415 113.043 87.7268 113.057 88.3518C113.057 88.8409 113.397 89.2077 113.831 89.1534C114.442 89.0854 114.592 88.5963 114.415 88.0257V88.0257Z" fill="#231F20"/>
<path d="M91.045 147.724C90.8413 147.316 90.4746 147.112 90.0265 147.235C89.7005 147.33 89.4697 147.615 89.4289 147.955C89.3882 148.308 89.5919 148.58 90.0265 148.824C90.3932 148.784 90.6376 148.729 90.8277 148.593C91.1401 148.376 91.1944 148.036 91.045 147.724Z" fill="#231F20"/>
<path d="M206.14 125.157C206.783 124.641 206.738 123.979 206.004 123.173C205.692 123.839 205.121 124.464 206.14 125.157Z" fill="#231F20"/>
<path d="M94.3702 89.7374C94.3702 89.5201 94.2751 89.2347 94.1122 89.1125C93.5961 88.6777 93.2022 88.8543 92.7812 89.8054C93.1072 90.1858 93.3788 90.376 93.7319 90.3352C94.085 90.2945 94.3702 90.1179 94.3702 89.7374V89.7374Z" fill="#231F20"/>
<path d="M160.632 90.8107C161.025 91.1504 161.365 91.0553 161.65 90.4303C161.623 89.914 161.596 89.5744 161.283 89.3978C160.985 89.2211 160.645 89.2211 160.414 89.52C160.048 90.0091 160.238 90.4439 160.645 90.8107H160.632Z" fill="#231F20"/>
<path d="M101.704 60.9754C101.568 60.9347 101.392 61.0026 101.134 61.1656C101.012 61.3966 100.998 61.4781 100.998 61.546C100.998 62.0759 101.107 62.565 101.731 62.6194C102.084 62.6601 102.37 62.4563 102.424 62.0895C102.505 61.5189 102.234 61.152 101.704 60.9754V60.9754Z" fill="#231F20"/>
<path d="M53.4941 125.048C53.4941 124.817 53.3583 124.559 53.2089 124.396C52.8694 124.056 52.4348 124.043 52.0682 124.328C51.7558 124.573 51.8373 124.926 52.1089 125.361C52.4892 125.497 52.7472 125.537 52.9917 125.524C53.2633 125.497 53.4941 125.32 53.4806 125.048H53.4941Z" fill="#231F20"/>
<path d="M94.6565 25.1754C94.317 24.8765 93.7738 25.0531 93.7194 25.4743C93.638 26.0857 93.7194 26.6427 94.6565 26.6835C95.3355 26.0721 95.1454 25.5966 94.6565 25.1754Z" fill="#231F20"/>
<path d="M119.224 107.087C120.243 106.911 120.12 106.326 119.849 105.756C119.672 105.375 119.048 105.267 118.762 105.552C118.328 106.014 118.464 106.462 118.844 106.883C118.898 106.938 118.98 106.992 119.224 107.087Z" fill="#231F20"/>
<path d="M146.426 0.271623C146.209 0.855834 146.154 1.41287 147.132 1.4808C147.757 0.855834 147.73 0.380313 147.037 0.0406561C146.793 -0.0816205 146.521 0.0134835 146.426 0.271623V0.271623Z" fill="#231F20"/>
<path d="M259.525 221.837C260.231 221.429 260.177 220.954 259.267 220.546C258.968 220.709 258.833 220.805 258.724 220.927C258.493 221.199 258.371 221.497 258.629 221.81C258.887 222.122 259.24 222.027 259.539 221.851L259.525 221.837Z" fill="#231F20"/>
<path d="M153.285 60.8666C153.706 61.3014 154.113 61.546 154.371 61.0025C154.629 60.4591 154.398 59.8748 153.964 59.7526C153.828 59.7118 153.624 59.7526 153.502 59.8613C153.217 60.0786 153.108 60.3775 153.285 60.8802V60.8666Z" fill="#231F20"/>
<path d="M207.769 161.677C208.163 161.867 208.679 161.786 208.815 161.351C209.005 160.699 208.557 160.495 207.837 160.631C207.362 161.052 207.28 161.446 207.769 161.677Z" fill="#231F20"/>
<path d="M203.899 67.7277C204.306 68.2576 204.741 68.1489 205.148 67.4696C204.999 66.6544 204.578 66.4914 204.048 66.8446C203.749 67.0348 203.668 67.4424 203.899 67.7277V67.7277Z" fill="#231F20"/>
<path d="M89.4687 192.097C89.3329 191.716 89.0341 191.621 88.6539 191.689C88.3823 191.743 88.2193 191.933 88.1921 192.219C88.1786 192.613 88.3551 192.871 88.7489 192.925C88.9119 192.939 89.0749 192.885 89.3601 192.722C89.4687 192.423 89.5094 192.246 89.4551 192.083L89.4687 192.097Z" fill="#231F20"/>
<path d="M70.714 59.5353C70.8769 59.6304 71.1621 59.5217 71.5152 59.3722C71.5967 59.0054 71.651 58.6929 71.5288 58.5435C71.23 58.1902 70.8226 58.1359 70.4967 58.5163C70.1708 58.9103 70.3201 59.3043 70.714 59.5353Z" fill="#231F20"/>
<path d="M18.5641 71.1108C17.8308 70.8934 17.4233 71.0972 17.4505 71.7493C17.4641 72.1162 17.79 72.3471 18.1567 72.3064C18.8086 72.2249 18.9444 71.8037 18.5777 71.1108H18.5641Z" fill="#231F20"/>
<path d="M159.274 47.416C159.029 46.628 158.649 46.5193 158.201 47.0356C157.875 47.3889 157.875 47.8236 158.255 48.1225C158.894 48.598 159.084 48.0546 159.274 47.4296V47.416Z" fill="#231F20"/>
<path d="M102.859 73.5155C103.253 74.0182 103.687 73.9367 104.081 73.2574C103.918 72.483 103.524 72.2792 102.995 72.6324C102.696 72.8362 102.641 73.2302 102.859 73.5155V73.5155Z" fill="#231F20"/>
<path d="M151.233 67.5103C151.436 67.8364 151.762 67.8771 152.21 67.619C152.237 67.2658 152.21 67.0076 152.088 66.8174C151.952 66.6136 151.667 66.4913 151.423 66.6408C151.097 66.8446 151.029 67.1842 151.233 67.4967V67.5103Z" fill="#231F20"/>
<path d="M141.686 68.665C142.229 68.8416 142.664 68.8416 142.664 68.271C142.664 67.8226 142.324 67.5101 141.876 67.6052C141.319 67.7139 141.428 68.1487 141.686 68.6514V68.665Z" fill="#231F20"/>
<path d="M168.603 67.5511C168.943 67.3881 169.147 67.225 169.269 67.0212C169.405 66.7903 169.35 66.4778 169.079 66.3963C168.875 66.3283 168.549 66.3555 168.4 66.4778C168.006 66.8038 168.06 67.1978 168.617 67.5511H168.603Z" fill="#231F20"/>
<path d="M225.736 152.955C226.292 153.145 226.727 153.131 226.74 152.574C226.74 152.099 226.374 151.827 225.939 151.895C225.382 151.99 225.45 152.425 225.736 152.955Z" fill="#231F20"/>
<path d="M143.982 167.967C143.684 167.831 143.29 167.94 143.195 168.266C143.086 168.647 143.412 168.796 143.915 168.769C144.322 168.429 144.335 168.13 143.982 167.967Z" fill="#231F20"/>
<path d="M98.459 111.462C98.5541 111.72 98.7578 111.842 99.1381 111.652C99.2331 111.38 99.2603 111.204 99.206 111.054C99.0973 110.81 98.8664 110.674 98.622 110.796C98.3775 110.918 98.364 111.204 98.459 111.448V111.462Z" fill="#231F20"/>
<path d="M24.5529 138.934C24.5529 138.662 24.322 138.499 24.0504 138.472C23.5072 138.404 23.3035 138.675 23.5072 139.328C24.064 139.491 24.5257 139.545 24.5393 138.947L24.5529 138.934Z" fill="#231F20"/>
<path d="M65.8251 168.728C65.5399 168.769 65.3905 169 65.4856 169.272C65.6214 169.652 65.9202 169.693 66.3683 169.408C66.4363 168.891 66.2054 168.687 65.8387 168.728H65.8251Z" fill="#231F20"/>
<path d="M149.346 105.701C149.645 105.457 149.577 105.158 149.129 104.9C148.64 104.981 148.382 105.212 148.545 105.565C148.694 105.878 149.075 105.932 149.36 105.715L149.346 105.701Z" fill="#231F20"/>
<path d="M17.2336 113.038C16.8534 112.929 16.6497 113.038 16.704 113.337C16.7176 113.446 16.9077 113.595 17.0163 113.609C17.3015 113.609 17.4102 113.418 17.2336 113.038Z" fill="#231F20"/>
<path d="M136.567 118.717C136.662 118.771 136.907 118.758 136.975 118.69C137.165 118.472 137.097 118.269 136.703 118.133C136.336 118.337 136.336 118.554 136.567 118.731V118.717Z" fill="#231F20"/>
</g>
<defs>
<clipPath id="clip0_303_2559">
<rect width="260" height="222" fill="white"/>
</clipPath>
</defs>
</svg>
