<svg width="82" height="94" viewBox="0 0 82 94" fill="none" xmlns="http://www.w3.org/2000/svg">
<g id="quote-left-solid 1" opacity="0.6">
<path id="Vector" d="M0 39.6562C0 27.484 9.82902 17.625 21.9643 17.625H23.4286C26.6683 17.625 29.2857 20.2504 29.2857 23.5C29.2857 26.7496 26.6683 29.375 23.4286 29.375H21.9643C16.3085 29.375 11.7143 33.9832 11.7143 39.6562V41.125H23.4286C29.8897 41.125 35.1429 46.3941 35.1429 52.875V64.625C35.1429 71.1059 29.8897 76.375 23.4286 76.375H11.7143C5.25313 76.375 0 71.1059 0 64.625V58.75V52.875V39.6562ZM46.8571 39.6562C46.8571 27.484 56.6862 17.625 68.8214 17.625H70.2857C73.5254 17.625 76.1429 20.2504 76.1429 23.5C76.1429 26.7496 73.5254 29.375 70.2857 29.375H68.8214C63.1656 29.375 58.5714 33.9832 58.5714 39.6562V41.125H70.2857C76.7469 41.125 82 46.3941 82 52.875V64.625C82 71.1059 76.7469 76.375 70.2857 76.375H58.5714C52.1103 76.375 46.8571 71.1059 46.8571 64.625V58.75V52.875V39.6562Z" fill="#FF7C5C"/>
</g>
</svg>
