<svg width="1471" height="472" viewBox="0 0 1471 472" fill="none" xmlns="http://www.w3.org/2000/svg">
<g clip-path="url(#clip0_532_904)">
<path d="M13.5 304.5C47.6667 284.5 138.786 246.5 230 246.5C382.5 246.5 397 304.5 519.5 304.5C646.5 304.5 736.5 135.5 996.5 66.5001C1113.5 35.4502 1240.46 40.5 1255.5 84.5002C1269 124 1174 200 1193 239C1207.37 268.5 1259.5 232 1270 225.5C1280.5 219 1258.5 201 1250 210.5C1241.5 220 1301.5 324 1440 450.5" stroke="url(#paint0_linear_532_904)" stroke-width="3" stroke-dasharray="20 12"/>
<path d="M418.219 343L421.696 330.859H426.161L429.619 343H426.617L424.042 332.816H423.824L421.221 343H418.219ZM421.173 340.14V337.832H426.645V340.14H421.173ZM436.136 343.219C435.579 343.219 435.11 343.127 434.73 342.943C434.35 342.759 434.046 342.5 433.818 342.164C433.597 341.822 433.438 341.426 433.343 340.976H432.593L433.277 339.019C433.29 339.406 433.362 339.732 433.495 339.998C433.635 340.264 433.831 340.47 434.084 340.615C434.344 340.755 434.651 340.824 435.006 340.824C435.538 340.824 435.94 340.669 436.212 340.359C436.491 340.042 436.63 339.574 436.63 338.953V337.623C436.63 337.002 436.494 336.537 436.222 336.226C435.956 335.916 435.557 335.761 435.025 335.761C434.727 335.761 434.455 335.818 434.208 335.932C433.967 336.046 433.761 336.198 433.59 336.388C433.426 336.572 433.305 336.784 433.229 337.024L432.564 335.685H433.334C433.429 335.267 433.587 334.89 433.809 334.554C434.031 334.212 434.338 333.943 434.73 333.747C435.123 333.544 435.623 333.443 436.231 333.443C437.321 333.443 438.144 333.801 438.701 334.516C439.265 335.226 439.547 336.293 439.547 337.718V338.858C439.547 340.296 439.265 341.382 438.701 342.116C438.144 342.851 437.289 343.219 436.136 343.219ZM430.427 346.268V333.661H433.315L433.22 336.179L433.277 336.511V340.102L433.239 340.596L433.315 343.095V346.268H430.427ZM446.518 343.219C445.961 343.219 445.492 343.127 445.112 342.943C444.732 342.759 444.428 342.5 444.2 342.164C443.978 341.822 443.82 341.426 443.725 340.976H442.975L443.659 339.019C443.671 339.406 443.744 339.732 443.877 339.998C444.016 340.264 444.213 340.47 444.466 340.615C444.726 340.755 445.033 340.824 445.388 340.824C445.92 340.824 446.322 340.669 446.594 340.359C446.873 340.042 447.012 339.574 447.012 338.953V337.623C447.012 337.002 446.876 336.537 446.604 336.226C446.338 335.916 445.939 335.761 445.407 335.761C445.109 335.761 444.837 335.818 444.59 335.932C444.349 336.046 444.143 336.198 443.972 336.388C443.807 336.572 443.687 336.784 443.611 337.024L442.946 335.685H443.716C443.811 335.267 443.969 334.89 444.191 334.554C444.412 334.212 444.719 333.943 445.112 333.747C445.505 333.544 446.005 333.443 446.613 333.443C447.702 333.443 448.526 333.801 449.083 334.516C449.647 335.226 449.929 336.293 449.929 337.718V338.858C449.929 340.296 449.647 341.382 449.083 342.116C448.526 342.851 447.671 343.219 446.518 343.219ZM440.809 346.268V333.661H443.697L443.602 336.179L443.659 336.511V340.102L443.621 340.596L443.697 343.095V346.268H440.809ZM451.2 343V330.45H454.107V343H451.2ZM455.681 343V333.661H458.588V343H455.681ZM457.135 332.778C456.59 332.778 456.194 332.654 455.947 332.407C455.7 332.154 455.577 331.815 455.577 331.391V331.324C455.577 330.9 455.7 330.564 455.947 330.317C456.194 330.07 456.59 329.947 457.135 329.947C457.667 329.947 458.056 330.07 458.303 330.317C458.556 330.564 458.683 330.9 458.683 331.324V331.391C458.683 331.822 458.556 332.16 458.303 332.407C458.056 332.654 457.667 332.778 457.135 332.778ZM464.181 343.247C462.699 343.247 461.6 342.857 460.884 342.078C460.169 341.299 459.811 340.204 459.811 338.791V337.822C459.811 336.435 460.169 335.352 460.884 334.573C461.6 333.794 462.696 333.405 464.171 333.405C464.551 333.405 464.906 333.433 465.235 333.49C465.565 333.541 465.869 333.614 466.147 333.709C466.426 333.804 466.67 333.905 466.879 334.013L467.116 336.416C466.806 336.239 466.464 336.093 466.09 335.979C465.717 335.859 465.296 335.799 464.827 335.799C464.092 335.799 463.56 335.976 463.231 336.331C462.902 336.686 462.737 337.199 462.737 337.87V338.677C462.737 339.361 462.911 339.887 463.259 340.254C463.608 340.622 464.152 340.805 464.893 340.805C465.356 340.805 465.771 340.752 466.138 340.644C466.512 340.53 466.866 340.384 467.202 340.207L466.974 342.62C466.645 342.797 466.239 342.946 465.758 343.067C465.277 343.187 464.751 343.247 464.181 343.247ZM473.638 343L473.724 340.663L473.657 340.52V337.604L473.638 337.224C473.638 336.705 473.486 336.321 473.182 336.074C472.878 335.827 472.368 335.704 471.653 335.704C471.026 335.704 470.43 335.783 469.867 335.941C469.303 336.1 468.771 336.28 468.271 336.483L468.518 334.231C468.815 334.092 469.148 333.962 469.515 333.842C469.889 333.715 470.3 333.614 470.75 333.538C471.2 333.462 471.681 333.424 472.194 333.424C473.011 333.424 473.695 333.519 474.246 333.709C474.797 333.899 475.237 334.168 475.567 334.516C475.896 334.865 476.133 335.283 476.279 335.77C476.425 336.252 476.498 336.784 476.498 337.366V343H473.638ZM470.665 343.219C469.734 343.219 469.027 342.984 468.546 342.515C468.065 342.047 467.824 341.379 467.824 340.511V340.254C467.824 339.336 468.106 338.658 468.67 338.221C469.24 337.778 470.142 337.477 471.377 337.319L473.885 336.986L474.056 338.734L471.833 339.057C471.383 339.114 471.067 339.219 470.883 339.371C470.699 339.523 470.608 339.748 470.608 340.045V340.112C470.608 340.397 470.699 340.625 470.883 340.796C471.067 340.961 471.361 341.043 471.767 341.043C472.121 341.043 472.425 340.989 472.679 340.881C472.938 340.774 473.15 340.634 473.315 340.463C473.48 340.286 473.603 340.09 473.686 339.874L474.094 341.052H473.619C473.518 341.458 473.359 341.825 473.144 342.154C472.935 342.484 472.631 342.743 472.232 342.933C471.833 343.124 471.311 343.219 470.665 343.219ZM481.551 343.209C480.722 343.209 480.06 343.086 479.566 342.838C479.078 342.585 478.727 342.208 478.511 341.708C478.296 341.208 478.188 340.59 478.188 339.855V334.64H481.076V339.39C481.076 339.846 481.178 340.182 481.38 340.397C481.589 340.606 481.976 340.71 482.539 340.71C482.85 340.71 483.157 340.676 483.461 340.606C483.765 340.536 484.04 340.448 484.287 340.34L484.04 342.743C483.717 342.883 483.344 342.994 482.919 343.076C482.501 343.165 482.045 343.209 481.551 343.209ZM476.934 335.979V333.699H484.202L483.945 335.979H476.934ZM478.226 333.908L478.217 331.495L481.095 331.22L480.991 333.908H478.226ZM485.147 343V333.661H488.054V343H485.147ZM486.601 332.778C486.056 332.778 485.66 332.654 485.413 332.407C485.166 332.154 485.043 331.815 485.043 331.391V331.324C485.043 330.9 485.166 330.564 485.413 330.317C485.66 330.07 486.056 329.947 486.601 329.947C487.133 329.947 487.522 330.07 487.769 330.317C488.023 330.564 488.149 330.9 488.149 331.324V331.391C488.149 331.822 488.023 332.16 487.769 332.407C487.522 332.654 487.133 332.778 486.601 332.778ZM493.847 343.266C492.339 343.266 491.199 342.892 490.427 342.145C489.66 341.391 489.277 340.334 489.277 338.972V337.746C489.277 336.366 489.664 335.295 490.436 334.535C491.209 333.769 492.346 333.386 493.847 333.386C495.348 333.386 496.481 333.769 497.248 334.535C498.02 335.295 498.407 336.366 498.407 337.746V338.972C498.407 340.334 498.024 341.391 497.257 342.145C496.491 342.892 495.354 343.266 493.847 343.266ZM493.847 340.976C494.385 340.976 494.794 340.815 495.072 340.492C495.357 340.163 495.5 339.697 495.5 339.095V337.623C495.5 336.99 495.357 336.508 495.072 336.179C494.794 335.85 494.385 335.685 493.847 335.685C493.308 335.685 492.897 335.85 492.612 336.179C492.333 336.508 492.194 336.99 492.194 337.623V339.095C492.194 339.697 492.333 340.163 492.612 340.492C492.897 340.815 493.308 340.976 493.847 340.976ZM505.634 343V337.509C505.634 337.167 505.59 336.872 505.501 336.625C505.412 336.372 505.263 336.179 505.054 336.046C504.845 335.913 504.56 335.846 504.199 335.846C503.902 335.846 503.639 335.9 503.411 336.008C503.183 336.109 502.99 336.252 502.831 336.435C502.679 336.613 502.565 336.815 502.489 337.043L502.043 335.685H502.537C502.638 335.261 502.803 334.881 503.031 334.545C503.265 334.209 503.585 333.943 503.99 333.747C504.396 333.544 504.909 333.443 505.529 333.443C506.226 333.443 506.796 333.579 507.239 333.851C507.683 334.117 508.009 334.516 508.218 335.048C508.433 335.58 508.541 336.245 508.541 337.043V343H505.634ZM499.63 343V333.661H502.518L502.423 335.998L502.537 336.274V343H499.63ZM513.337 343.228C512.596 343.228 511.927 343.162 511.332 343.029C510.737 342.902 510.227 342.753 509.803 342.582L509.556 340.14C510.043 340.343 510.582 340.527 511.171 340.691C511.766 340.85 512.409 340.929 513.099 340.929C513.65 340.929 514.04 340.872 514.268 340.758C514.502 340.638 514.619 340.454 514.619 340.207V340.169C514.619 339.998 514.559 339.859 514.439 339.751C514.325 339.637 514.122 339.536 513.831 339.447C513.546 339.358 513.143 339.254 512.624 339.133C511.845 338.95 511.228 338.734 510.772 338.487C510.316 338.234 509.989 337.927 509.793 337.566C509.603 337.199 509.508 336.765 509.508 336.264V336.188C509.508 335.264 509.837 334.573 510.496 334.117C511.155 333.655 512.124 333.424 513.403 333.424C514.125 333.424 514.774 333.49 515.351 333.623C515.927 333.756 516.411 333.915 516.804 334.098L517.051 336.369C516.595 336.166 516.085 335.998 515.522 335.865C514.964 335.732 514.378 335.666 513.764 335.666C513.39 335.666 513.096 335.691 512.881 335.742C512.672 335.793 512.523 335.865 512.434 335.96C512.352 336.055 512.311 336.173 512.311 336.312V336.34C512.311 336.492 512.361 336.622 512.463 336.73C512.564 336.838 512.748 336.939 513.014 337.034C513.286 337.129 513.675 337.237 514.182 337.357C514.967 337.528 515.601 337.724 516.082 337.946C516.563 338.161 516.915 338.443 517.137 338.791C517.358 339.133 517.469 339.589 517.469 340.159V340.245C517.469 341.252 517.13 342.002 516.453 342.496C515.775 342.984 514.736 343.228 513.337 343.228ZM423.862 362.266C422.133 362.266 420.844 361.81 419.995 360.898C419.153 359.98 418.732 358.672 418.732 356.974V354.818C418.732 353.152 419.156 351.867 420.005 350.961C420.853 350.049 422.133 349.593 423.843 349.593C424.299 349.593 424.72 349.628 425.106 349.697C425.492 349.767 425.844 349.862 426.161 349.982C426.477 350.096 426.756 350.226 426.997 350.372L427.215 352.918C426.841 352.722 426.43 352.551 425.98 352.405C425.537 352.253 425.021 352.177 424.432 352.177C423.526 352.177 422.855 352.421 422.418 352.908C421.987 353.39 421.772 354.067 421.772 354.941V356.86C421.772 357.728 421.99 358.406 422.427 358.893C422.87 359.381 423.577 359.625 424.546 359.625C425.116 359.625 425.625 359.549 426.075 359.397C426.525 359.245 426.936 359.061 427.31 358.846L427.092 361.449C426.851 361.595 426.569 361.731 426.246 361.857C425.923 361.978 425.562 362.076 425.163 362.152C424.77 362.228 424.337 362.266 423.862 362.266ZM428.451 362V349.45H431.358V362H428.451ZM437.15 362.266C435.643 362.266 434.503 361.892 433.73 361.145C432.964 360.391 432.581 359.334 432.581 357.972V356.746C432.581 355.366 432.967 354.295 433.74 353.535C434.513 352.769 435.649 352.386 437.15 352.386C438.651 352.386 439.785 352.769 440.551 353.535C441.324 354.295 441.71 355.366 441.71 356.746V357.972C441.71 359.334 441.327 360.391 440.561 361.145C439.795 361.892 438.658 362.266 437.15 362.266ZM437.15 359.976C437.689 359.976 438.097 359.815 438.376 359.492C438.661 359.163 438.803 358.697 438.803 358.095V356.623C438.803 355.99 438.661 355.508 438.376 355.179C438.097 354.85 437.689 354.685 437.15 354.685C436.612 354.685 436.2 354.85 435.915 355.179C435.637 355.508 435.497 355.99 435.497 356.623V358.095C435.497 358.697 435.637 359.163 435.915 359.492C436.2 359.815 436.612 359.976 437.15 359.976ZM446.258 362.228C445.517 362.228 444.849 362.162 444.254 362.029C443.659 361.902 443.149 361.753 442.724 361.582L442.477 359.14C442.965 359.343 443.503 359.527 444.092 359.691C444.688 359.85 445.331 359.929 446.021 359.929C446.572 359.929 446.961 359.872 447.189 359.758C447.424 359.638 447.541 359.454 447.541 359.207V359.169C447.541 358.998 447.481 358.859 447.36 358.751C447.246 358.637 447.044 358.536 446.752 358.447C446.467 358.358 446.065 358.254 445.546 358.133C444.767 357.95 444.149 357.734 443.693 357.487C443.237 357.234 442.911 356.927 442.715 356.566C442.525 356.199 442.43 355.765 442.43 355.264V355.188C442.43 354.264 442.759 353.573 443.418 353.117C444.077 352.655 445.046 352.424 446.325 352.424C447.047 352.424 447.696 352.49 448.272 352.623C448.849 352.756 449.333 352.915 449.726 353.098L449.973 355.369C449.517 355.166 449.007 354.998 448.443 354.865C447.886 354.732 447.3 354.666 446.686 354.666C446.312 354.666 446.018 354.691 445.802 354.742C445.593 354.793 445.445 354.865 445.356 354.96C445.274 355.055 445.232 355.173 445.232 355.312V355.34C445.232 355.492 445.283 355.622 445.384 355.73C445.486 355.838 445.669 355.939 445.935 356.034C446.208 356.129 446.597 356.237 447.104 356.357C447.889 356.528 448.523 356.724 449.004 356.946C449.485 357.161 449.837 357.443 450.058 357.791C450.28 358.133 450.391 358.589 450.391 359.159V359.245C450.391 360.252 450.052 361.002 449.374 361.496C448.697 361.984 447.658 362.228 446.258 362.228ZM456.022 362.238C454.324 362.238 453.07 361.861 452.26 361.107C451.449 360.347 451.044 359.242 451.044 357.791V356.822C451.044 355.391 451.424 354.295 452.184 353.535C452.944 352.769 454.049 352.386 455.499 352.386C456.474 352.386 457.285 352.554 457.931 352.889C458.583 353.219 459.071 353.691 459.394 354.305C459.723 354.919 459.888 355.657 459.888 356.518V356.832C459.888 357.073 459.875 357.32 459.85 357.573C459.831 357.82 459.803 358.051 459.765 358.266H457.143C457.168 357.899 457.184 357.554 457.19 357.231C457.196 356.902 457.2 356.604 457.2 356.338C457.2 355.952 457.139 355.629 457.019 355.369C456.899 355.103 456.712 354.9 456.459 354.761C456.212 354.622 455.892 354.552 455.499 354.552C454.916 354.552 454.489 354.71 454.217 355.027C453.951 355.337 453.818 355.781 453.818 356.357V357.212L453.837 357.525V358.19C453.837 358.431 453.875 358.659 453.951 358.874C454.033 359.09 454.172 359.28 454.369 359.444C454.571 359.603 454.847 359.729 455.195 359.824C455.55 359.913 455.999 359.957 456.544 359.957C457.12 359.957 457.675 359.904 458.207 359.796C458.739 359.682 459.248 359.53 459.736 359.34L459.499 361.525C459.068 361.747 458.558 361.921 457.969 362.048C457.38 362.174 456.731 362.238 456.022 362.238ZM452.583 358.266V356.471H459.176V358.266H452.583Z" fill="#3B3A40"/>
<path d="M159.923 293L159.686 290.71C159.648 290.305 159.568 289.976 159.448 289.722C159.328 289.463 159.144 289.273 158.897 289.152C158.65 289.026 158.321 288.962 157.909 288.962L155.164 288.953V286.682L158.023 286.673C158.644 286.673 159.09 286.537 159.363 286.264C159.635 285.992 159.771 285.584 159.771 285.039V284.849C159.771 284.311 159.635 283.908 159.363 283.642C159.097 283.37 158.647 283.234 158.014 283.234H155.145V280.859H158.441C159.929 280.859 161.016 281.147 161.7 281.723C162.39 282.3 162.735 283.129 162.735 284.212V284.459C162.735 285.276 162.526 285.913 162.108 286.369C161.69 286.825 161.054 287.085 160.199 287.148V287.566L159.591 287.157C160.325 287.208 160.895 287.36 161.301 287.613C161.706 287.867 162.004 288.221 162.194 288.677C162.39 289.127 162.532 289.688 162.621 290.359L162.973 293H159.923ZM153.102 293V280.859H155.99V287.499L156.009 288.601V293H153.102ZM168.079 293.266C166.572 293.266 165.432 292.892 164.659 292.145C163.893 291.391 163.51 290.334 163.51 288.972V287.746C163.51 286.366 163.896 285.295 164.669 284.535C165.441 283.769 166.578 283.386 168.079 283.386C169.58 283.386 170.714 283.769 171.48 284.535C172.253 285.295 172.639 286.366 172.639 287.746V288.972C172.639 290.334 172.256 291.391 171.49 292.145C170.723 292.892 169.587 293.266 168.079 293.266ZM168.079 290.976C168.618 290.976 169.026 290.815 169.305 290.492C169.59 290.163 169.732 289.697 169.732 289.095V287.623C169.732 286.99 169.59 286.508 169.305 286.179C169.026 285.85 168.618 285.685 168.079 285.685C167.541 285.685 167.129 285.85 166.844 286.179C166.566 286.508 166.426 286.99 166.426 287.623V289.095C166.426 289.697 166.566 290.163 166.844 290.492C167.129 290.815 167.541 290.976 168.079 290.976ZM173.872 293V280.45H176.779V293H173.872ZM178.39 293V280.45H181.297V293H178.39ZM182.872 293V283.661H185.779V293H182.872ZM184.325 282.778C183.78 282.778 183.385 282.654 183.138 282.407C182.891 282.154 182.767 281.815 182.767 281.391V281.324C182.767 280.9 182.891 280.564 183.138 280.317C183.385 280.07 183.78 279.947 184.325 279.947C184.857 279.947 185.247 280.07 185.494 280.317C185.747 280.564 185.874 280.9 185.874 281.324V281.391C185.874 281.822 185.747 282.16 185.494 282.407C185.247 282.654 184.857 282.778 184.325 282.778ZM193.347 293V287.509C193.347 287.167 193.303 286.872 193.214 286.625C193.126 286.372 192.977 286.179 192.768 286.046C192.559 285.913 192.274 285.846 191.913 285.846C191.615 285.846 191.352 285.9 191.124 286.008C190.896 286.109 190.703 286.252 190.545 286.435C190.393 286.613 190.279 286.815 190.203 287.043L189.756 285.685H190.25C190.352 285.261 190.516 284.881 190.744 284.545C190.979 284.209 191.299 283.943 191.704 283.747C192.109 283.544 192.622 283.443 193.243 283.443C193.94 283.443 194.51 283.579 194.953 283.851C195.396 284.117 195.722 284.516 195.931 285.048C196.147 285.58 196.254 286.245 196.254 287.043V293H193.347ZM187.343 293V283.661H190.231L190.136 285.998L190.25 286.274V293H187.343ZM201.858 290.093C200.357 290.093 199.229 289.814 198.476 289.257C197.722 288.7 197.345 287.917 197.345 286.91V286.787C197.345 286.103 197.497 285.527 197.801 285.058C198.111 284.583 198.586 284.216 199.226 283.956C199.866 283.696 200.686 283.541 201.687 283.49L206.674 283.262V285.314L204.195 285.248V285.343C204.619 285.413 204.967 285.533 205.24 285.704C205.518 285.869 205.724 286.087 205.857 286.359C205.996 286.625 206.066 286.955 206.066 287.347V287.414C206.066 288.282 205.721 288.947 205.031 289.409C204.347 289.865 203.289 290.093 201.858 290.093ZM201.715 294.511H202C202.456 294.511 202.823 294.482 203.102 294.425C203.387 294.368 203.596 294.283 203.729 294.169C203.862 294.055 203.929 293.912 203.929 293.741V293.722C203.929 293.5 203.834 293.342 203.644 293.247C203.46 293.152 203.181 293.089 202.808 293.057L200.053 292.781L200.689 292.743C200.499 292.775 200.334 292.829 200.195 292.905C200.062 292.981 199.954 293.076 199.872 293.19C199.796 293.304 199.758 293.443 199.758 293.608V293.627C199.758 293.817 199.828 293.979 199.967 294.112C200.106 294.245 200.319 294.343 200.604 294.406C200.895 294.476 201.265 294.511 201.715 294.511ZM201.573 296.639C200.635 296.639 199.834 296.563 199.169 296.411C198.51 296.265 198.01 296.031 197.668 295.708C197.326 295.385 197.155 294.957 197.155 294.425V294.387C197.155 294.026 197.234 293.722 197.393 293.475C197.551 293.228 197.779 293.035 198.077 292.895C198.374 292.756 198.723 292.671 199.122 292.639V292.544C198.634 292.455 198.257 292.3 197.991 292.078C197.731 291.857 197.602 291.546 197.602 291.147V291.138C197.602 290.853 197.665 290.612 197.792 290.416C197.925 290.22 198.118 290.071 198.371 289.969C198.624 289.862 198.935 289.798 199.302 289.779V289.466L201.449 290.007L200.822 289.998C200.6 289.998 200.442 290.026 200.347 290.083C200.258 290.14 200.214 290.226 200.214 290.34V290.349C200.214 290.489 200.287 290.59 200.433 290.653C200.585 290.71 200.828 290.758 201.164 290.796L203.378 291.052C204.454 291.179 205.255 291.445 205.781 291.85C206.307 292.256 206.57 292.883 206.57 293.732V293.789C206.57 294.435 206.386 294.967 206.019 295.385C205.658 295.809 205.132 296.122 204.442 296.325C203.758 296.534 202.922 296.639 201.934 296.639H201.573ZM201.763 288.136C202.136 288.136 202.443 288.088 202.684 287.993C202.931 287.892 203.115 287.746 203.235 287.556C203.362 287.36 203.425 287.126 203.425 286.853V286.768C203.425 286.496 203.365 286.264 203.245 286.074C203.124 285.884 202.941 285.742 202.694 285.647C202.453 285.546 202.143 285.495 201.763 285.495H201.753C201.367 285.495 201.05 285.546 200.803 285.647C200.556 285.748 200.372 285.894 200.252 286.084C200.138 286.274 200.081 286.505 200.081 286.777V286.853C200.081 287.126 200.141 287.36 200.262 287.556C200.388 287.746 200.575 287.892 200.822 287.993C201.069 288.088 201.383 288.136 201.763 288.136ZM152.219 312L155.696 299.859H160.161L163.619 312H160.617L158.042 301.816H157.824L155.221 312H152.219ZM155.173 309.14V306.832H160.645V309.14H155.173ZM170.136 312.219C169.579 312.219 169.11 312.127 168.73 311.943C168.35 311.759 168.046 311.5 167.818 311.164C167.597 310.822 167.438 310.426 167.343 309.976H166.593L167.277 308.019C167.29 308.406 167.362 308.732 167.495 308.998C167.635 309.264 167.831 309.47 168.084 309.615C168.344 309.755 168.651 309.824 169.006 309.824C169.538 309.824 169.94 309.669 170.212 309.359C170.491 309.042 170.63 308.574 170.63 307.953V306.623C170.63 306.002 170.494 305.537 170.222 305.226C169.956 304.916 169.557 304.761 169.025 304.761C168.727 304.761 168.455 304.818 168.208 304.932C167.967 305.046 167.761 305.198 167.59 305.388C167.426 305.572 167.305 305.784 167.229 306.024L166.564 304.685H167.334C167.429 304.267 167.587 303.89 167.809 303.554C168.031 303.212 168.338 302.943 168.73 302.747C169.123 302.544 169.623 302.443 170.231 302.443C171.321 302.443 172.144 302.801 172.701 303.516C173.265 304.226 173.547 305.293 173.547 306.718V307.858C173.547 309.296 173.265 310.382 172.701 311.116C172.144 311.851 171.289 312.219 170.136 312.219ZM164.427 315.268V302.661H167.315L167.22 305.179L167.277 305.511V309.102L167.239 309.596L167.315 312.095V315.268H164.427ZM180.518 312.219C179.961 312.219 179.492 312.127 179.112 311.943C178.732 311.759 178.428 311.5 178.2 311.164C177.978 310.822 177.82 310.426 177.725 309.976H176.975L177.659 308.019C177.671 308.406 177.744 308.732 177.877 308.998C178.016 309.264 178.213 309.47 178.466 309.615C178.726 309.755 179.033 309.824 179.388 309.824C179.92 309.824 180.322 309.669 180.594 309.359C180.873 309.042 181.012 308.574 181.012 307.953V306.623C181.012 306.002 180.876 305.537 180.604 305.226C180.338 304.916 179.939 304.761 179.407 304.761C179.109 304.761 178.837 304.818 178.59 304.932C178.349 305.046 178.143 305.198 177.972 305.388C177.807 305.572 177.687 305.784 177.611 306.024L176.946 304.685H177.716C177.811 304.267 177.969 303.89 178.191 303.554C178.412 303.212 178.719 302.943 179.112 302.747C179.505 302.544 180.005 302.443 180.613 302.443C181.702 302.443 182.526 302.801 183.083 303.516C183.647 304.226 183.929 305.293 183.929 306.718V307.858C183.929 309.296 183.647 310.382 183.083 311.116C182.526 311.851 181.671 312.219 180.518 312.219ZM174.809 315.268V302.661H177.697L177.602 305.179L177.659 305.511V309.102L177.621 309.596L177.697 312.095V315.268H174.809ZM185.2 312V299.45H188.107V312H185.2ZM189.681 312V302.661H192.588V312H189.681ZM191.135 301.778C190.59 301.778 190.194 301.654 189.947 301.407C189.7 301.154 189.577 300.815 189.577 300.391V300.324C189.577 299.9 189.7 299.564 189.947 299.317C190.194 299.07 190.59 298.947 191.135 298.947C191.667 298.947 192.056 299.07 192.303 299.317C192.556 299.564 192.683 299.9 192.683 300.324V300.391C192.683 300.822 192.556 301.16 192.303 301.407C192.056 301.654 191.667 301.778 191.135 301.778ZM198.181 312.247C196.699 312.247 195.6 311.857 194.884 311.078C194.169 310.299 193.811 309.204 193.811 307.791V306.822C193.811 305.435 194.169 304.352 194.884 303.573C195.6 302.794 196.696 302.405 198.171 302.405C198.551 302.405 198.906 302.433 199.235 302.49C199.565 302.541 199.869 302.614 200.147 302.709C200.426 302.804 200.67 302.905 200.879 303.013L201.116 305.416C200.806 305.239 200.464 305.093 200.09 304.979C199.717 304.859 199.296 304.799 198.827 304.799C198.092 304.799 197.56 304.976 197.231 305.331C196.902 305.686 196.737 306.199 196.737 306.87V307.677C196.737 308.361 196.911 308.887 197.259 309.254C197.608 309.622 198.152 309.805 198.893 309.805C199.356 309.805 199.771 309.752 200.138 309.644C200.512 309.53 200.866 309.384 201.202 309.207L200.974 311.62C200.645 311.797 200.239 311.946 199.758 312.067C199.277 312.187 198.751 312.247 198.181 312.247ZM207.638 312L207.724 309.663L207.657 309.52V306.604L207.638 306.224C207.638 305.705 207.486 305.321 207.182 305.074C206.878 304.827 206.368 304.704 205.653 304.704C205.026 304.704 204.43 304.783 203.867 304.941C203.303 305.1 202.771 305.28 202.271 305.483L202.518 303.231C202.815 303.092 203.148 302.962 203.515 302.842C203.889 302.715 204.3 302.614 204.75 302.538C205.2 302.462 205.681 302.424 206.194 302.424C207.011 302.424 207.695 302.519 208.246 302.709C208.797 302.899 209.237 303.168 209.567 303.516C209.896 303.865 210.133 304.283 210.279 304.77C210.425 305.252 210.498 305.784 210.498 306.366V312H207.638ZM204.665 312.219C203.734 312.219 203.027 311.984 202.546 311.515C202.065 311.047 201.824 310.379 201.824 309.511V309.254C201.824 308.336 202.106 307.658 202.67 307.221C203.24 306.778 204.142 306.477 205.377 306.319L207.885 305.986L208.056 307.734L205.833 308.057C205.383 308.114 205.067 308.219 204.883 308.371C204.699 308.523 204.608 308.748 204.608 309.045V309.112C204.608 309.397 204.699 309.625 204.883 309.796C205.067 309.961 205.361 310.043 205.767 310.043C206.121 310.043 206.425 309.989 206.679 309.881C206.938 309.774 207.15 309.634 207.315 309.463C207.48 309.286 207.603 309.09 207.686 308.874L208.094 310.052H207.619C207.518 310.458 207.359 310.825 207.144 311.154C206.935 311.484 206.631 311.743 206.232 311.933C205.833 312.124 205.311 312.219 204.665 312.219ZM215.551 312.209C214.722 312.209 214.06 312.086 213.566 311.838C213.078 311.585 212.727 311.208 212.511 310.708C212.296 310.208 212.188 309.59 212.188 308.855V303.64H215.076V308.39C215.076 308.846 215.178 309.182 215.38 309.397C215.589 309.606 215.976 309.71 216.539 309.71C216.85 309.71 217.157 309.676 217.461 309.606C217.765 309.536 218.04 309.448 218.287 309.34L218.04 311.743C217.717 311.883 217.344 311.994 216.919 312.076C216.501 312.165 216.045 312.209 215.551 312.209ZM210.934 304.979V302.699H218.202L217.945 304.979H210.934ZM212.226 302.908L212.217 300.495L215.095 300.22L214.991 302.908H212.226ZM219.147 312V302.661H222.054V312H219.147ZM220.601 301.778C220.056 301.778 219.66 301.654 219.413 301.407C219.166 301.154 219.043 300.815 219.043 300.391V300.324C219.043 299.9 219.166 299.564 219.413 299.317C219.66 299.07 220.056 298.947 220.601 298.947C221.133 298.947 221.522 299.07 221.769 299.317C222.023 299.564 222.149 299.9 222.149 300.324V300.391C222.149 300.822 222.023 301.16 221.769 301.407C221.522 301.654 221.133 301.778 220.601 301.778ZM227.847 312.266C226.339 312.266 225.199 311.892 224.427 311.145C223.66 310.391 223.277 309.334 223.277 307.972V306.746C223.277 305.366 223.664 304.295 224.436 303.535C225.209 302.769 226.346 302.386 227.847 302.386C229.348 302.386 230.481 302.769 231.248 303.535C232.02 304.295 232.407 305.366 232.407 306.746V307.972C232.407 309.334 232.024 310.391 231.257 311.145C230.491 311.892 229.354 312.266 227.847 312.266ZM227.847 309.976C228.385 309.976 228.794 309.815 229.072 309.492C229.357 309.163 229.5 308.697 229.5 308.095V306.623C229.5 305.99 229.357 305.508 229.072 305.179C228.794 304.85 228.385 304.685 227.847 304.685C227.308 304.685 226.897 304.85 226.612 305.179C226.333 305.508 226.194 305.99 226.194 306.623V308.095C226.194 308.697 226.333 309.163 226.612 309.492C226.897 309.815 227.308 309.976 227.847 309.976ZM239.634 312V306.509C239.634 306.167 239.59 305.872 239.501 305.625C239.412 305.372 239.263 305.179 239.054 305.046C238.845 304.913 238.56 304.846 238.199 304.846C237.902 304.846 237.639 304.9 237.411 305.008C237.183 305.109 236.99 305.252 236.831 305.435C236.679 305.613 236.565 305.815 236.489 306.043L236.043 304.685H236.537C236.638 304.261 236.803 303.881 237.031 303.545C237.265 303.209 237.585 302.943 237.99 302.747C238.396 302.544 238.909 302.443 239.529 302.443C240.226 302.443 240.796 302.579 241.239 302.851C241.683 303.117 242.009 303.516 242.218 304.048C242.433 304.58 242.541 305.245 242.541 306.043V312H239.634ZM233.63 312V302.661H236.518L236.423 304.998L236.537 305.274V312H233.63ZM247.337 312.228C246.596 312.228 245.927 312.162 245.332 312.029C244.737 311.902 244.227 311.753 243.803 311.582L243.556 309.14C244.043 309.343 244.582 309.527 245.171 309.691C245.766 309.85 246.409 309.929 247.099 309.929C247.65 309.929 248.04 309.872 248.268 309.758C248.502 309.638 248.619 309.454 248.619 309.207V309.169C248.619 308.998 248.559 308.859 248.439 308.751C248.325 308.637 248.122 308.536 247.831 308.447C247.546 308.358 247.143 308.254 246.624 308.133C245.845 307.95 245.228 307.734 244.772 307.487C244.316 307.234 243.989 306.927 243.793 306.566C243.603 306.199 243.508 305.765 243.508 305.264V305.188C243.508 304.264 243.837 303.573 244.496 303.117C245.155 302.655 246.124 302.424 247.403 302.424C248.125 302.424 248.774 302.49 249.351 302.623C249.927 302.756 250.411 302.915 250.804 303.098L251.051 305.369C250.595 305.166 250.085 304.998 249.522 304.865C248.964 304.732 248.378 304.666 247.764 304.666C247.39 304.666 247.096 304.691 246.881 304.742C246.672 304.793 246.523 304.865 246.434 304.96C246.352 305.055 246.311 305.173 246.311 305.312V305.34C246.311 305.492 246.361 305.622 246.463 305.73C246.564 305.838 246.748 305.939 247.014 306.034C247.286 306.129 247.675 306.237 248.182 306.357C248.967 306.528 249.601 306.724 250.082 306.946C250.563 307.161 250.915 307.443 251.137 307.791C251.358 308.133 251.469 308.589 251.469 309.159V309.245C251.469 310.252 251.13 311.002 250.453 311.496C249.775 311.984 248.736 312.228 247.337 312.228Z" fill="#3B3A40"/>
<path d="M420.945 388V378.851H420.822L418.333 379.991L418.409 377.198L421.297 375.859H423.9V388H420.945ZM429.423 388.257C428.606 388.257 427.877 388.181 427.238 388.029C426.604 387.876 426.107 387.718 425.746 387.553L425.49 384.903C425.781 385.036 426.117 385.166 426.497 385.292C426.883 385.419 427.301 385.524 427.751 385.606C428.2 385.682 428.666 385.72 429.147 385.72C429.749 385.72 430.221 385.653 430.563 385.52C430.905 385.387 431.145 385.197 431.285 384.95C431.424 384.697 431.494 384.393 431.494 384.038V383.772C431.494 383.297 431.376 382.936 431.142 382.689C430.908 382.436 430.528 382.309 430.002 382.309C429.533 382.309 429.144 382.414 428.834 382.623C428.523 382.826 428.273 383.082 428.083 383.392L425.547 383.003V375.859H433.945V378.31H428.292V380.219L428.264 381.777H428.359C428.561 381.252 428.887 380.831 429.337 380.514C429.787 380.197 430.42 380.039 431.237 380.039C432.314 380.039 433.105 380.362 433.612 381.008C434.119 381.648 434.372 382.544 434.372 383.696V384.095C434.372 384.944 434.214 385.682 433.897 386.309C433.58 386.93 433.061 387.411 432.339 387.753C431.617 388.089 430.645 388.257 429.423 388.257ZM438.465 388V375.859H441.419V388H438.465ZM440.165 383.772V381.274H446.464V383.772H440.165ZM439.32 378.357V375.859H446.606V378.357H439.32ZM452.403 388.238C450.706 388.238 449.452 387.861 448.641 387.107C447.831 386.347 447.425 385.242 447.425 383.791V382.822C447.425 381.391 447.805 380.295 448.565 379.535C449.325 378.769 450.431 378.386 451.881 378.386C452.856 378.386 453.667 378.554 454.313 378.889C454.965 379.219 455.453 379.691 455.776 380.305C456.105 380.919 456.27 381.657 456.27 382.518V382.832C456.27 383.073 456.257 383.32 456.232 383.573C456.213 383.82 456.184 384.051 456.146 384.266H453.524C453.55 383.899 453.566 383.554 453.572 383.231C453.578 382.902 453.581 382.604 453.581 382.338C453.581 381.952 453.521 381.629 453.401 381.369C453.281 381.103 453.094 380.9 452.84 380.761C452.593 380.622 452.274 380.552 451.881 380.552C451.298 380.552 450.871 380.71 450.598 381.027C450.332 381.337 450.199 381.781 450.199 382.357V383.212L450.218 383.525V384.19C450.218 384.431 450.256 384.659 450.332 384.874C450.415 385.09 450.554 385.28 450.75 385.444C450.953 385.603 451.229 385.729 451.577 385.824C451.932 385.913 452.381 385.957 452.926 385.957C453.502 385.957 454.056 385.904 454.588 385.796C455.12 385.682 455.63 385.53 456.118 385.34L455.88 387.525C455.45 387.747 454.94 387.921 454.351 388.048C453.762 388.174 453.113 388.238 452.403 388.238ZM448.964 384.266V382.471H455.557V384.266H448.964ZM463.172 388.219C462.615 388.219 462.146 388.127 461.766 387.943C461.386 387.759 461.082 387.5 460.854 387.164C460.626 386.822 460.465 386.426 460.37 385.976H459.619L460.313 384.019C460.325 384.406 460.401 384.732 460.541 384.998C460.68 385.264 460.879 385.47 461.139 385.615C461.399 385.755 461.703 385.824 462.051 385.824C462.583 385.824 462.985 385.669 463.258 385.359C463.53 385.042 463.666 384.57 463.666 383.943V382.623C463.666 382.002 463.53 381.537 463.258 381.226C462.992 380.916 462.593 380.761 462.061 380.761C461.763 380.761 461.491 380.818 461.244 380.932C461.003 381.046 460.797 381.198 460.626 381.388C460.461 381.572 460.341 381.784 460.265 382.024L459.61 380.685H460.408C460.503 380.267 460.658 379.89 460.873 379.554C461.088 379.212 461.389 378.943 461.776 378.747C462.168 378.544 462.665 378.443 463.267 378.443C464.356 378.443 465.18 378.801 465.737 379.516C466.301 380.226 466.583 381.293 466.583 382.718V383.858C466.583 385.296 466.301 386.382 465.737 387.116C465.173 387.851 464.318 388.219 463.172 388.219ZM457.463 388V375.45H460.351V378.243L460.303 381.236L460.313 381.492V385.074L460.265 385.634L460.351 388H457.463ZM470.694 382.756L469.896 380.989H470.58C470.732 380.216 471.027 379.611 471.464 379.174C471.907 378.731 472.531 378.509 473.335 378.509C473.475 378.509 473.601 378.519 473.715 378.538C473.836 378.557 473.95 378.579 474.057 378.604L474.2 381.54C474.067 381.502 473.912 381.477 473.734 381.464C473.557 381.445 473.376 381.435 473.193 381.435C472.572 381.435 472.05 381.553 471.625 381.787C471.201 382.015 470.891 382.338 470.694 382.756ZM467.844 388V378.661H470.58L470.457 381.644L470.751 381.682V388H467.844ZM477.819 378.661V384.152C477.819 384.494 477.863 384.792 477.952 385.045C478.041 385.292 478.189 385.486 478.398 385.625C478.607 385.758 478.892 385.824 479.253 385.824C479.557 385.824 479.82 385.771 480.042 385.663C480.27 385.555 480.46 385.41 480.612 385.226C480.77 385.042 480.887 384.84 480.963 384.618L481.41 385.976H480.916C480.815 386.394 480.647 386.774 480.412 387.116C480.184 387.458 479.868 387.728 479.462 387.924C479.063 388.12 478.55 388.219 477.923 388.219C477.233 388.219 476.663 388.086 476.213 387.819C475.77 387.547 475.441 387.145 475.225 386.613C475.016 386.081 474.912 385.416 474.912 384.618V378.661H477.819ZM483.823 378.661V388H480.935L481.03 385.663L480.916 385.397V378.661H483.823ZM490.728 388L490.813 385.663L490.747 385.52V382.604L490.728 382.224C490.728 381.705 490.576 381.321 490.272 381.074C489.968 380.827 489.458 380.704 488.742 380.704C488.115 380.704 487.52 380.783 486.956 380.941C486.393 381.1 485.861 381.28 485.36 381.483L485.607 379.231C485.905 379.092 486.237 378.962 486.605 378.842C486.978 378.715 487.39 378.614 487.84 378.538C488.289 378.462 488.771 378.424 489.284 378.424C490.101 378.424 490.785 378.519 491.336 378.709C491.887 378.899 492.327 379.168 492.656 379.516C492.986 379.865 493.223 380.283 493.369 380.77C493.514 381.252 493.587 381.784 493.587 382.366V388H490.728ZM487.754 388.219C486.823 388.219 486.117 387.984 485.636 387.515C485.154 387.047 484.914 386.379 484.914 385.511V385.254C484.914 384.336 485.196 383.658 485.759 383.221C486.329 382.778 487.232 382.477 488.467 382.319L490.975 381.986L491.146 383.734L488.923 384.057C488.473 384.114 488.156 384.219 487.973 384.371C487.789 384.523 487.697 384.748 487.697 385.045V385.112C487.697 385.397 487.789 385.625 487.973 385.796C488.156 385.961 488.451 386.043 488.856 386.043C489.211 386.043 489.515 385.989 489.768 385.881C490.028 385.774 490.24 385.634 490.405 385.463C490.569 385.286 490.693 385.09 490.775 384.874L491.184 386.052H490.709C490.607 386.458 490.449 386.825 490.234 387.154C490.025 387.484 489.721 387.743 489.322 387.933C488.923 388.124 488.4 388.219 487.754 388.219ZM497.869 382.756L497.071 380.989H497.755C497.907 380.216 498.201 379.611 498.638 379.174C499.082 378.731 499.705 378.509 500.51 378.509C500.649 378.509 500.776 378.519 500.89 378.538C501.01 378.557 501.124 378.579 501.232 378.604L501.374 381.54C501.241 381.502 501.086 381.477 500.909 381.464C500.731 381.445 500.551 381.435 500.367 381.435C499.747 381.435 499.224 381.553 498.8 381.787C498.375 382.015 498.065 382.338 497.869 382.756ZM495.019 388V378.661H497.755L497.631 381.644L497.926 381.682V388H495.019ZM507.622 385.672L506.064 386.347L508.164 378.661H511.137L507.328 391.268H504.421L505.874 386.518L507.242 387.601H504.022L501.495 378.661H504.487L506.102 385.672H507.622ZM513.653 384.903C513.678 385.055 513.7 385.229 513.719 385.425C513.738 385.615 513.748 385.821 513.748 386.043C513.748 386.86 513.624 387.614 513.377 388.304C513.13 389.001 512.725 389.666 512.161 390.299L510.166 389.834C510.451 389.308 510.667 388.747 510.812 388.152C510.964 387.557 511.04 386.892 511.04 386.157C511.04 385.935 511.034 385.726 511.021 385.53C511.015 385.334 510.999 385.125 510.974 384.903H513.653ZM517.396 388V385.321L520.369 382.737C520.87 382.3 521.281 381.917 521.604 381.587C521.934 381.258 522.181 380.945 522.345 380.647C522.51 380.349 522.592 380.036 522.592 379.706V379.621C522.592 379.323 522.529 379.067 522.402 378.851C522.276 378.63 522.064 378.459 521.766 378.338C521.475 378.218 521.085 378.158 520.597 378.158C519.996 378.158 519.429 378.247 518.897 378.424C518.365 378.595 517.893 378.785 517.481 378.994L517.738 376.429C518.01 376.283 518.324 376.15 518.678 376.03C519.039 375.903 519.442 375.802 519.885 375.726C520.335 375.65 520.822 375.612 521.348 375.612C522.767 375.612 523.834 375.929 524.549 376.562C525.265 377.195 525.623 378.082 525.623 379.222V379.355C525.623 379.95 525.531 380.485 525.347 380.96C525.164 381.435 524.879 381.898 524.492 382.347C524.112 382.791 523.622 383.275 523.02 383.801L521.224 385.397V385.938L519.951 385.501H525.746V388H517.396ZM531.612 388.266C529.965 388.266 528.718 387.829 527.869 386.955C527.027 386.081 526.605 384.798 526.605 383.107V380.742C526.605 379.064 527.027 377.787 527.869 376.913C528.711 376.039 529.959 375.602 531.612 375.602C533.265 375.602 534.513 376.039 535.355 376.913C536.204 377.787 536.628 379.064 536.628 380.742V383.107C536.628 384.798 536.204 386.081 535.355 386.955C534.513 387.829 533.265 388.266 531.612 388.266ZM531.612 385.815C532.302 385.815 532.806 385.596 533.122 385.159C533.439 384.722 533.597 384.083 533.597 383.24V380.628C533.597 379.779 533.439 379.14 533.122 378.709C532.806 378.272 532.302 378.053 531.612 378.053C530.922 378.053 530.418 378.272 530.101 378.709C529.791 379.14 529.636 379.779 529.636 380.628V383.24C529.636 384.083 529.794 384.722 530.111 385.159C530.434 385.596 530.934 385.815 531.612 385.815ZM537.417 388V385.321L540.391 382.737C540.891 382.3 541.303 381.917 541.626 381.587C541.955 381.258 542.202 380.945 542.367 380.647C542.531 380.349 542.614 380.036 542.614 379.706V379.621C542.614 379.323 542.55 379.067 542.424 378.851C542.297 378.63 542.085 378.459 541.787 378.338C541.496 378.218 541.106 378.158 540.619 378.158C540.017 378.158 539.45 378.247 538.918 378.424C538.386 378.595 537.914 378.785 537.503 378.994L537.759 376.429C538.032 376.283 538.345 376.15 538.7 376.03C539.061 375.903 539.463 375.802 539.906 375.726C540.356 375.65 540.844 375.612 541.369 375.612C542.788 375.612 543.855 375.929 544.571 376.562C545.286 377.195 545.644 378.082 545.644 379.222V379.355C545.644 379.95 545.552 380.485 545.369 380.96C545.185 381.435 544.9 381.898 544.514 382.347C544.134 382.791 543.643 383.275 543.041 383.801L541.246 385.397V385.938L539.973 385.501H545.768V388H537.417ZM552.018 388V381.046L552.132 377.892H551.904L549.016 383.402V384.58L547.885 383.563H556.198V385.976H546.147V383.231L550.156 375.859H554.839V388H552.018Z" fill="#FF7246"/>
<path d="M677.923 296L677.686 293.71C677.648 293.305 677.568 292.976 677.448 292.722C677.328 292.463 677.144 292.273 676.897 292.152C676.65 292.026 676.321 291.962 675.909 291.962L673.164 291.953V289.682L676.023 289.673C676.644 289.673 677.09 289.537 677.363 289.264C677.635 288.992 677.771 288.584 677.771 288.039V287.849C677.771 287.311 677.635 286.908 677.363 286.642C677.097 286.37 676.647 286.234 676.014 286.234H673.145V283.859H676.441C677.929 283.859 679.016 284.147 679.7 284.723C680.39 285.3 680.735 286.129 680.735 287.212V287.459C680.735 288.276 680.526 288.913 680.108 289.369C679.69 289.825 679.054 290.085 678.199 290.148V290.566L677.591 290.157C678.325 290.208 678.895 290.36 679.301 290.613C679.706 290.867 680.004 291.221 680.194 291.677C680.39 292.127 680.532 292.688 680.621 293.359L680.973 296H677.923ZM671.102 296V283.859H673.99V290.499L674.009 291.601V296H671.102ZM686.079 296.266C684.572 296.266 683.432 295.892 682.659 295.145C681.893 294.391 681.51 293.334 681.51 291.972V290.746C681.51 289.366 681.896 288.295 682.669 287.535C683.441 286.769 684.578 286.386 686.079 286.386C687.58 286.386 688.714 286.769 689.48 287.535C690.253 288.295 690.639 289.366 690.639 290.746V291.972C690.639 293.334 690.256 294.391 689.49 295.145C688.723 295.892 687.587 296.266 686.079 296.266ZM686.079 293.976C686.618 293.976 687.026 293.815 687.305 293.492C687.59 293.163 687.732 292.697 687.732 292.095V290.623C687.732 289.99 687.59 289.508 687.305 289.179C687.026 288.85 686.618 288.685 686.079 288.685C685.541 288.685 685.129 288.85 684.844 289.179C684.566 289.508 684.426 289.99 684.426 290.623V292.095C684.426 292.697 684.566 293.163 684.844 293.492C685.129 293.815 685.541 293.976 686.079 293.976ZM691.872 296V283.45H694.779V296H691.872ZM696.39 296V283.45H699.297V296H696.39ZM700.872 296V286.661H703.779V296H700.872ZM702.325 285.778C701.78 285.778 701.385 285.654 701.138 285.407C700.891 285.154 700.767 284.815 700.767 284.391V284.324C700.767 283.9 700.891 283.564 701.138 283.317C701.385 283.07 701.78 282.947 702.325 282.947C702.857 282.947 703.247 283.07 703.494 283.317C703.747 283.564 703.874 283.9 703.874 284.324V284.391C703.874 284.822 703.747 285.16 703.494 285.407C703.247 285.654 702.857 285.778 702.325 285.778ZM711.347 296V290.509C711.347 290.167 711.303 289.872 711.214 289.625C711.126 289.372 710.977 289.179 710.768 289.046C710.559 288.913 710.274 288.846 709.913 288.846C709.615 288.846 709.352 288.9 709.124 289.008C708.896 289.109 708.703 289.252 708.545 289.435C708.393 289.613 708.279 289.815 708.203 290.043L707.756 288.685H708.25C708.352 288.261 708.516 287.881 708.744 287.545C708.979 287.209 709.299 286.943 709.704 286.747C710.109 286.544 710.622 286.443 711.243 286.443C711.94 286.443 712.51 286.579 712.953 286.851C713.396 287.117 713.722 287.516 713.931 288.048C714.147 288.58 714.254 289.245 714.254 290.043V296H711.347ZM705.343 296V286.661H708.231L708.136 288.998L708.25 289.274V296H705.343ZM719.858 293.093C718.357 293.093 717.229 292.814 716.476 292.257C715.722 291.7 715.345 290.917 715.345 289.91V289.787C715.345 289.103 715.497 288.527 715.801 288.058C716.111 287.583 716.586 287.216 717.226 286.956C717.866 286.696 718.686 286.541 719.687 286.49L724.674 286.262V288.314L722.195 288.248V288.343C722.619 288.413 722.967 288.533 723.24 288.704C723.518 288.869 723.724 289.087 723.857 289.359C723.996 289.625 724.066 289.955 724.066 290.347V290.414C724.066 291.282 723.721 291.947 723.031 292.409C722.347 292.865 721.289 293.093 719.858 293.093ZM719.715 297.511H720C720.456 297.511 720.823 297.482 721.102 297.425C721.387 297.368 721.596 297.283 721.729 297.169C721.862 297.055 721.929 296.912 721.929 296.741V296.722C721.929 296.5 721.834 296.342 721.644 296.247C721.46 296.152 721.181 296.089 720.808 296.057L718.053 295.781L718.689 295.743C718.499 295.775 718.334 295.829 718.195 295.905C718.062 295.981 717.954 296.076 717.872 296.19C717.796 296.304 717.758 296.443 717.758 296.608V296.627C717.758 296.817 717.828 296.979 717.967 297.112C718.106 297.245 718.319 297.343 718.604 297.406C718.895 297.476 719.265 297.511 719.715 297.511ZM719.573 299.639C718.635 299.639 717.834 299.563 717.169 299.411C716.51 299.265 716.01 299.031 715.668 298.708C715.326 298.385 715.155 297.957 715.155 297.425V297.387C715.155 297.026 715.234 296.722 715.393 296.475C715.551 296.228 715.779 296.035 716.077 295.895C716.374 295.756 716.723 295.671 717.122 295.639V295.544C716.634 295.455 716.257 295.3 715.991 295.078C715.731 294.857 715.602 294.546 715.602 294.147V294.138C715.602 293.853 715.665 293.612 715.792 293.416C715.925 293.22 716.118 293.071 716.371 292.969C716.624 292.862 716.935 292.798 717.302 292.779V292.466L719.449 293.007L718.822 292.998C718.6 292.998 718.442 293.026 718.347 293.083C718.258 293.14 718.214 293.226 718.214 293.34V293.349C718.214 293.489 718.287 293.59 718.433 293.653C718.585 293.71 718.828 293.758 719.164 293.796L721.378 294.052C722.454 294.179 723.255 294.445 723.781 294.85C724.307 295.256 724.57 295.883 724.57 296.732V296.789C724.57 297.435 724.386 297.967 724.019 298.385C723.658 298.809 723.132 299.122 722.442 299.325C721.758 299.534 720.922 299.639 719.934 299.639H719.573ZM719.763 291.136C720.136 291.136 720.443 291.088 720.684 290.993C720.931 290.892 721.115 290.746 721.235 290.556C721.362 290.36 721.425 290.126 721.425 289.853V289.768C721.425 289.496 721.365 289.264 721.245 289.074C721.124 288.884 720.941 288.742 720.694 288.647C720.453 288.546 720.143 288.495 719.763 288.495H719.753C719.367 288.495 719.05 288.546 718.803 288.647C718.556 288.748 718.372 288.894 718.252 289.084C718.138 289.274 718.081 289.505 718.081 289.777V289.853C718.081 290.126 718.141 290.36 718.262 290.556C718.388 290.746 718.575 290.892 718.822 290.993C719.069 291.088 719.383 291.136 719.763 291.136Z" fill="#FF7246"/>
<path d="M854.523 180V177.321L857.496 174.737C857.996 174.3 858.408 173.917 858.731 173.587C859.06 173.258 859.307 172.945 859.472 172.647C859.637 172.349 859.719 172.036 859.719 171.706V171.621C859.719 171.323 859.656 171.067 859.529 170.851C859.402 170.63 859.19 170.459 858.893 170.338C858.601 170.218 858.212 170.158 857.724 170.158C857.122 170.158 856.556 170.247 856.024 170.424C855.492 170.595 855.02 170.785 854.608 170.994L854.865 168.429C855.137 168.283 855.45 168.15 855.805 168.03C856.166 167.903 856.568 167.802 857.012 167.726C857.461 167.65 857.949 167.612 858.475 167.612C859.893 167.612 860.96 167.929 861.676 168.562C862.392 169.195 862.75 170.082 862.75 171.222V171.355C862.75 171.95 862.658 172.485 862.474 172.96C862.29 173.435 862.005 173.898 861.619 174.347C861.239 174.791 860.748 175.275 860.147 175.801L858.351 177.397V177.938L857.078 177.501H862.873V180H854.523ZM868.422 167.612C870.044 167.612 871.269 168.046 872.099 168.913C872.935 169.781 873.353 171.064 873.353 172.761V175.022C873.353 176.7 872.884 177.995 871.947 178.907C871.016 179.813 869.619 180.266 867.757 180.266C867.035 180.266 866.408 180.206 865.876 180.086C865.351 179.971 864.917 179.838 864.575 179.687L864.28 177.102C864.667 177.286 865.097 177.444 865.572 177.577C866.054 177.71 866.605 177.777 867.225 177.777C868.321 177.777 869.125 177.543 869.638 177.074C870.151 176.605 870.408 175.88 870.408 174.898V172.476C870.408 171.659 870.243 171.054 869.914 170.661C869.591 170.262 869.081 170.063 868.384 170.063C867.776 170.063 867.327 170.215 867.035 170.519C866.744 170.817 866.598 171.219 866.598 171.725V171.953C866.598 172.473 866.738 172.875 867.016 173.16C867.301 173.439 867.754 173.578 868.375 173.578C868.698 173.578 868.992 173.527 869.258 173.426C869.531 173.318 869.768 173.163 869.971 172.96C870.18 172.758 870.345 172.517 870.465 172.238L871.044 173.739H870.313C870.205 174.151 870.022 174.512 869.762 174.822C869.509 175.133 869.173 175.373 868.755 175.544C868.337 175.715 867.821 175.801 867.206 175.801C866.06 175.801 865.189 175.481 864.594 174.841C864.005 174.195 863.71 173.302 863.71 172.162V171.668C863.71 170.383 864.109 169.385 864.907 168.676C865.712 167.967 866.883 167.612 868.422 167.612ZM877.526 180V167.859H880.481V180H877.526ZM879.227 175.772V173.274H885.525V175.772H879.227ZM878.381 170.357V167.859H885.668V170.357H878.381ZM891.465 180.238C889.768 180.238 888.514 179.861 887.703 179.107C886.892 178.347 886.487 177.242 886.487 175.791V174.822C886.487 173.391 886.867 172.295 887.627 171.535C888.387 170.769 889.492 170.386 890.942 170.386C891.918 170.386 892.728 170.554 893.374 170.889C894.027 171.219 894.514 171.691 894.837 172.305C895.167 172.919 895.331 173.657 895.331 174.518V174.832C895.331 175.073 895.319 175.32 895.293 175.573C895.274 175.82 895.246 176.051 895.208 176.266H892.586C892.611 175.899 892.627 175.554 892.633 175.231C892.64 174.902 892.643 174.604 892.643 174.338C892.643 173.952 892.583 173.629 892.462 173.369C892.342 173.103 892.155 172.9 891.902 172.761C891.655 172.622 891.335 172.552 890.942 172.552C890.36 172.552 889.932 172.71 889.66 173.027C889.394 173.337 889.261 173.781 889.261 174.357V175.212L889.28 175.525V176.19C889.28 176.431 889.318 176.659 889.394 176.874C889.476 177.09 889.616 177.28 889.812 177.444C890.015 177.603 890.29 177.729 890.638 177.824C890.993 177.913 891.443 177.957 891.987 177.957C892.564 177.957 893.118 177.904 893.65 177.796C894.182 177.682 894.692 177.53 895.179 177.34L894.942 179.525C894.511 179.747 894.001 179.921 893.412 180.048C892.823 180.174 892.174 180.238 891.465 180.238ZM888.026 176.266V174.471H894.619V176.266H888.026ZM902.234 180.219C901.676 180.219 901.208 180.127 900.828 179.943C900.448 179.759 900.144 179.5 899.916 179.164C899.688 178.822 899.526 178.426 899.431 177.976H898.681L899.374 176.019C899.387 176.406 899.463 176.732 899.602 176.998C899.741 177.264 899.941 177.47 900.201 177.615C900.46 177.755 900.764 177.824 901.113 177.824C901.645 177.824 902.047 177.669 902.319 177.359C902.591 177.042 902.728 176.57 902.728 175.943V174.623C902.728 174.002 902.591 173.537 902.319 173.226C902.053 172.916 901.654 172.761 901.122 172.761C900.824 172.761 900.552 172.818 900.305 172.932C900.064 173.046 899.859 173.198 899.688 173.388C899.523 173.572 899.403 173.784 899.327 174.024L898.671 172.685H899.469C899.564 172.267 899.719 171.89 899.935 171.554C900.15 171.212 900.451 170.943 900.837 170.747C901.23 170.544 901.727 170.443 902.329 170.443C903.418 170.443 904.241 170.801 904.799 171.516C905.362 172.226 905.644 173.293 905.644 174.718V175.858C905.644 177.296 905.362 178.382 904.799 179.116C904.235 179.851 903.38 180.219 902.234 180.219ZM896.524 180V167.45H899.412V170.243L899.365 173.236L899.374 173.492V177.074L899.327 177.634L899.412 180H896.524ZM909.756 174.756L908.958 172.989H909.642C909.794 172.216 910.088 171.611 910.525 171.174C910.969 170.731 911.592 170.509 912.397 170.509C912.536 170.509 912.663 170.519 912.777 170.538C912.897 170.557 913.011 170.579 913.119 170.604L913.261 173.54C913.128 173.502 912.973 173.477 912.796 173.464C912.618 173.445 912.438 173.435 912.254 173.435C911.634 173.435 911.111 173.553 910.687 173.787C910.262 174.015 909.952 174.338 909.756 174.756ZM906.906 180V170.661H909.642L909.518 173.644L909.813 173.682V180H906.906ZM916.881 170.661V176.152C916.881 176.494 916.925 176.792 917.014 177.045C917.102 177.292 917.251 177.486 917.46 177.625C917.669 177.758 917.954 177.824 918.315 177.824C918.619 177.824 918.882 177.771 919.104 177.663C919.332 177.555 919.522 177.41 919.674 177.226C919.832 177.042 919.949 176.84 920.025 176.618L920.472 177.976H919.978C919.876 178.394 919.708 178.774 919.474 179.116C919.246 179.458 918.929 179.728 918.524 179.924C918.125 180.12 917.612 180.219 916.985 180.219C916.295 180.219 915.725 180.086 915.275 179.819C914.832 179.547 914.502 179.145 914.287 178.613C914.078 178.081 913.974 177.416 913.974 176.618V170.661H916.881ZM922.885 170.661V180H919.997L920.092 177.663L919.978 177.397V170.661H922.885ZM929.789 180L929.875 177.663L929.808 177.52V174.604L929.789 174.224C929.789 173.705 929.637 173.321 929.333 173.074C929.029 172.827 928.519 172.704 927.804 172.704C927.177 172.704 926.581 172.783 926.018 172.941C925.454 173.1 924.922 173.28 924.422 173.483L924.669 171.231C924.966 171.092 925.299 170.962 925.666 170.842C926.04 170.715 926.452 170.614 926.901 170.538C927.351 170.462 927.832 170.424 928.345 170.424C929.162 170.424 929.846 170.519 930.397 170.709C930.948 170.899 931.388 171.168 931.718 171.516C932.047 171.865 932.285 172.283 932.43 172.77C932.576 173.252 932.649 173.784 932.649 174.366V180H929.789ZM926.816 180.219C925.885 180.219 925.179 179.984 924.697 179.515C924.216 179.047 923.975 178.379 923.975 177.511V177.254C923.975 176.336 924.257 175.658 924.821 175.221C925.391 174.778 926.293 174.477 927.528 174.319L930.036 173.986L930.207 175.734L927.984 176.057C927.535 176.114 927.218 176.219 927.034 176.371C926.851 176.523 926.759 176.748 926.759 177.045V177.112C926.759 177.397 926.851 177.625 927.034 177.796C927.218 177.961 927.512 178.043 927.918 178.043C928.272 178.043 928.576 177.989 928.83 177.881C929.089 177.774 929.302 177.634 929.466 177.463C929.631 177.286 929.754 177.09 929.837 176.874L930.245 178.052H929.77C929.669 178.458 929.511 178.825 929.295 179.154C929.086 179.484 928.782 179.743 928.383 179.933C927.984 180.124 927.462 180.219 926.816 180.219ZM936.93 174.756L936.132 172.989H936.816C936.968 172.216 937.263 171.611 937.7 171.174C938.143 170.731 938.767 170.509 939.571 170.509C939.711 170.509 939.837 170.519 939.951 170.538C940.072 170.557 940.186 170.579 940.293 170.604L940.436 173.54C940.303 173.502 940.148 173.477 939.97 173.464C939.793 173.445 939.612 173.435 939.429 173.435C938.808 173.435 938.286 173.553 937.861 173.787C937.437 174.015 937.127 174.338 936.93 174.756ZM934.08 180V170.661H936.816L936.693 173.644L936.987 173.682V180H934.08ZM946.684 177.672L945.126 178.347L947.225 170.661H950.199L946.389 183.268H943.482L944.936 178.518L946.304 179.601H943.083L940.556 170.661H943.549L945.164 177.672H946.684ZM952.714 176.903C952.74 177.055 952.762 177.229 952.781 177.425C952.8 177.615 952.809 177.821 952.809 178.043C952.809 178.86 952.686 179.614 952.439 180.304C952.192 181.001 951.787 181.666 951.223 182.299L949.228 181.834C949.513 181.308 949.728 180.747 949.874 180.152C950.026 179.557 950.102 178.892 950.102 178.157C950.102 177.935 950.096 177.726 950.083 177.53C950.077 177.334 950.061 177.125 950.035 176.903H952.714ZM956.457 180V177.321L959.431 174.737C959.931 174.3 960.343 173.917 960.666 173.587C960.995 173.258 961.242 172.945 961.407 172.647C961.572 172.349 961.654 172.036 961.654 171.706V171.621C961.654 171.323 961.591 171.067 961.464 170.851C961.337 170.63 961.125 170.459 960.827 170.338C960.536 170.218 960.147 170.158 959.659 170.158C959.057 170.158 958.49 170.247 957.958 170.424C957.426 170.595 956.955 170.785 956.543 170.994L956.799 168.429C957.072 168.283 957.385 168.15 957.74 168.03C958.101 167.903 958.503 167.802 958.946 167.726C959.396 167.65 959.884 167.612 960.409 167.612C961.828 167.612 962.895 167.929 963.611 168.562C964.327 169.195 964.684 170.082 964.684 171.222V171.355C964.684 171.95 964.593 172.485 964.409 172.96C964.225 173.435 963.94 173.898 963.554 174.347C963.174 174.791 962.683 175.275 962.081 175.801L960.286 177.397V177.938L959.013 177.501H964.808V180H956.457ZM970.674 180.266C969.027 180.266 967.779 179.829 966.931 178.955C966.088 178.081 965.667 176.798 965.667 175.107V172.742C965.667 171.064 966.088 169.787 966.931 168.913C967.773 168.039 969.021 167.602 970.674 167.602C972.327 167.602 973.574 168.039 974.417 168.913C975.265 169.787 975.69 171.064 975.69 172.742V175.107C975.69 176.798 975.265 178.081 974.417 178.955C973.574 179.829 972.327 180.266 970.674 180.266ZM970.674 177.815C971.364 177.815 971.867 177.596 972.184 177.159C972.501 176.722 972.659 176.083 972.659 175.24V172.628C972.659 171.779 972.501 171.14 972.184 170.709C971.867 170.272 971.364 170.053 970.674 170.053C969.983 170.053 969.48 170.272 969.163 170.709C968.853 171.14 968.698 171.779 968.698 172.628V175.24C968.698 176.083 968.856 176.722 969.173 177.159C969.496 177.596 969.996 177.815 970.674 177.815ZM976.479 180V177.321L979.452 174.737C979.953 174.3 980.364 173.917 980.687 173.587C981.017 173.258 981.264 172.945 981.428 172.647C981.593 172.349 981.675 172.036 981.675 171.706V171.621C981.675 171.323 981.612 171.067 981.485 170.851C981.359 170.63 981.146 170.459 980.849 170.338C980.557 170.218 980.168 170.158 979.68 170.158C979.079 170.158 978.512 170.247 977.98 170.424C977.448 170.595 976.976 170.785 976.564 170.994L976.821 168.429C977.093 168.283 977.407 168.15 977.761 168.03C978.122 167.903 978.524 167.802 978.968 167.726C979.417 167.65 979.905 167.612 980.431 167.612C981.849 167.612 982.917 167.929 983.632 168.562C984.348 169.195 984.706 170.082 984.706 171.222V171.355C984.706 171.95 984.614 172.485 984.43 172.96C984.247 173.435 983.962 173.898 983.575 174.347C983.195 174.791 982.704 175.275 982.103 175.801L980.307 177.397V177.938L979.034 177.501H984.829V180H976.479ZM991.079 180V173.046L991.193 169.892H990.965L988.077 175.402V176.58L986.947 175.563H995.259V177.976H985.208V175.231L989.217 167.859H993.901V180H991.079Z" fill="#FF7246"/>
<path d="M1114.97 122L1115.35 109.859H1119.49L1121.5 117.098H1121.62L1123.62 109.859H1127.77L1128.15 122H1125.27L1125.18 118.019L1125.1 113.174H1124.95L1122.87 120.575H1120.23L1118.15 113.174H1118L1117.92 118.029L1117.85 122H1114.97ZM1135 122L1135.09 119.663L1135.02 119.52V116.604L1135 116.224C1135 115.705 1134.85 115.321 1134.55 115.074C1134.24 114.827 1133.73 114.704 1133.02 114.704C1132.39 114.704 1131.8 114.783 1131.23 114.941C1130.67 115.1 1130.14 115.28 1129.64 115.483L1129.88 113.231C1130.18 113.092 1130.51 112.962 1130.88 112.842C1131.25 112.715 1131.67 112.614 1132.12 112.538C1132.57 112.462 1133.05 112.424 1133.56 112.424C1134.38 112.424 1135.06 112.519 1135.61 112.709C1136.16 112.899 1136.6 113.168 1136.93 113.516C1137.26 113.865 1137.5 114.283 1137.64 114.77C1137.79 115.252 1137.86 115.784 1137.86 116.366V122H1135ZM1132.03 122.219C1131.1 122.219 1130.39 121.984 1129.91 121.515C1129.43 121.047 1129.19 120.379 1129.19 119.511V119.254C1129.19 118.336 1129.47 117.658 1130.04 117.221C1130.61 116.778 1131.51 116.477 1132.74 116.319L1135.25 115.986L1135.42 117.734L1133.2 118.057C1132.75 118.114 1132.43 118.219 1132.25 118.371C1132.07 118.523 1131.97 118.748 1131.97 119.045V119.112C1131.97 119.397 1132.07 119.625 1132.25 119.796C1132.43 119.961 1132.73 120.043 1133.13 120.043C1133.49 120.043 1133.79 119.989 1134.04 119.881C1134.3 119.774 1134.52 119.634 1134.68 119.463C1134.85 119.286 1134.97 119.09 1135.05 118.874L1135.46 120.052H1134.98C1134.88 120.458 1134.73 120.825 1134.51 121.154C1134.3 121.484 1134 121.743 1133.6 121.933C1133.2 122.124 1132.68 122.219 1132.03 122.219ZM1142.14 116.756L1141.35 114.989H1142.03C1142.18 114.216 1142.48 113.611 1142.91 113.174C1143.36 112.731 1143.98 112.509 1144.79 112.509C1144.93 112.509 1145.05 112.519 1145.17 112.538C1145.29 112.557 1145.4 112.579 1145.51 112.604L1145.65 115.54C1145.52 115.502 1145.36 115.477 1145.18 115.464C1145.01 115.445 1144.83 115.435 1144.64 115.435C1144.02 115.435 1143.5 115.553 1143.08 115.787C1142.65 116.015 1142.34 116.338 1142.14 116.756ZM1139.29 122V112.661H1142.03L1141.91 115.644L1142.2 115.682V122H1139.29ZM1150.36 122.247C1148.88 122.247 1147.78 121.857 1147.07 121.078C1146.35 120.299 1145.99 119.204 1145.99 117.791V116.822C1145.99 115.435 1146.35 114.352 1147.07 113.573C1147.78 112.794 1148.88 112.405 1150.36 112.405C1150.74 112.405 1151.09 112.433 1151.42 112.49C1151.75 112.541 1152.05 112.614 1152.33 112.709C1152.61 112.804 1152.85 112.905 1153.06 113.013L1153.3 115.416C1152.99 115.239 1152.65 115.093 1152.27 114.979C1151.9 114.859 1151.48 114.799 1151.01 114.799C1150.28 114.799 1149.74 114.976 1149.41 115.331C1149.09 115.686 1148.92 116.199 1148.92 116.87V117.677C1148.92 118.361 1149.09 118.887 1149.44 119.254C1149.79 119.622 1150.34 119.805 1151.08 119.805C1151.54 119.805 1151.95 119.752 1152.32 119.644C1152.7 119.53 1153.05 119.384 1153.39 119.207L1153.16 121.62C1152.83 121.797 1152.42 121.946 1151.94 122.067C1151.46 122.187 1150.93 122.247 1150.36 122.247ZM1160.46 122V116.509C1160.46 116.167 1160.41 115.872 1160.33 115.625C1160.24 115.372 1160.09 115.179 1159.88 115.046C1159.68 114.913 1159.39 114.846 1159.02 114.846C1158.73 114.846 1158.46 114.9 1158.24 115.008C1158.01 115.109 1157.82 115.252 1157.67 115.435C1157.52 115.613 1157.41 115.815 1157.32 116.043L1156.73 114.685H1157.41C1157.5 114.261 1157.67 113.881 1157.89 113.545C1158.12 113.209 1158.44 112.943 1158.83 112.747C1159.24 112.544 1159.75 112.443 1160.35 112.443C1161.05 112.443 1161.62 112.579 1162.06 112.851C1162.51 113.117 1162.83 113.516 1163.04 114.048C1163.26 114.58 1163.37 115.245 1163.37 116.043V122H1160.46ZM1154.45 122V109.45H1157.34V112.243L1157.3 115.321L1157.36 115.549V122H1154.45ZM1167.46 118.295V115.977H1172.91V118.295H1167.46ZM1177.09 122L1177.47 109.859H1181.62L1183.62 117.098H1183.74L1185.75 109.859H1189.89L1190.27 122H1187.39L1187.31 118.019L1187.22 113.174H1187.08L1185 120.575H1182.36L1180.28 113.174H1180.12L1180.05 118.029L1179.97 122H1177.09ZM1197.13 122L1197.21 119.663L1197.15 119.52V116.604L1197.13 116.224C1197.13 115.705 1196.98 115.321 1196.67 115.074C1196.37 114.827 1195.86 114.704 1195.14 114.704C1194.52 114.704 1193.92 114.783 1193.36 114.941C1192.79 115.1 1192.26 115.28 1191.76 115.483L1192.01 113.231C1192.31 113.092 1192.64 112.962 1193 112.842C1193.38 112.715 1193.79 112.614 1194.24 112.538C1194.69 112.462 1195.17 112.424 1195.68 112.424C1196.5 112.424 1197.18 112.519 1197.74 112.709C1198.29 112.899 1198.73 113.168 1199.06 113.516C1199.39 113.865 1199.62 114.283 1199.77 114.77C1199.91 115.252 1199.99 115.784 1199.99 116.366V122H1197.13ZM1194.15 122.219C1193.22 122.219 1192.52 121.984 1192.04 121.515C1191.55 121.047 1191.31 120.379 1191.31 119.511V119.254C1191.31 118.336 1191.6 117.658 1192.16 117.221C1192.73 116.778 1193.63 116.477 1194.87 116.319L1197.37 115.986L1197.55 117.734L1195.32 118.057C1194.87 118.114 1194.56 118.219 1194.37 118.371C1194.19 118.523 1194.1 118.748 1194.1 119.045V119.112C1194.1 119.397 1194.19 119.625 1194.37 119.796C1194.56 119.961 1194.85 120.043 1195.26 120.043C1195.61 120.043 1195.92 119.989 1196.17 119.881C1196.43 119.774 1196.64 119.634 1196.8 119.463C1196.97 119.286 1197.09 119.09 1197.18 118.874L1197.58 120.052H1197.11C1197.01 120.458 1196.85 120.825 1196.63 121.154C1196.42 121.484 1196.12 121.743 1195.72 121.933C1195.32 122.124 1194.8 122.219 1194.15 122.219ZM1206.39 119.672L1204.83 120.347L1206.93 112.661H1209.9L1206.09 125.268H1203.19L1204.64 120.518L1206.01 121.601H1202.79L1200.26 112.661H1203.25L1204.87 119.672H1206.39ZM1114.52 141V138.321L1117.5 135.737C1118 135.3 1118.41 134.917 1118.73 134.587C1119.06 134.258 1119.31 133.945 1119.47 133.647C1119.64 133.349 1119.72 133.036 1119.72 132.706V132.621C1119.72 132.323 1119.66 132.067 1119.53 131.851C1119.4 131.63 1119.19 131.459 1118.89 131.338C1118.6 131.218 1118.21 131.158 1117.72 131.158C1117.12 131.158 1116.56 131.247 1116.02 131.424C1115.49 131.595 1115.02 131.785 1114.61 131.994L1114.86 129.429C1115.14 129.283 1115.45 129.15 1115.81 129.03C1116.17 128.903 1116.57 128.802 1117.01 128.726C1117.46 128.65 1117.95 128.612 1118.47 128.612C1119.89 128.612 1120.96 128.929 1121.68 129.562C1122.39 130.195 1122.75 131.082 1122.75 132.222V132.355C1122.75 132.95 1122.66 133.485 1122.47 133.96C1122.29 134.435 1122.01 134.898 1121.62 135.347C1121.24 135.791 1120.75 136.275 1120.15 136.801L1118.35 138.397V138.938L1117.08 138.501H1122.87V141H1114.52ZM1128.74 141.266C1127.09 141.266 1125.84 140.829 1125 139.955C1124.15 139.081 1123.73 137.798 1123.73 136.107V133.742C1123.73 132.064 1124.15 130.787 1125 129.913C1125.84 129.039 1127.09 128.602 1128.74 128.602C1130.39 128.602 1131.64 129.039 1132.48 129.913C1133.33 130.787 1133.75 132.064 1133.75 133.742V136.107C1133.75 137.798 1133.33 139.081 1132.48 139.955C1131.64 140.829 1130.39 141.266 1128.74 141.266ZM1128.74 138.815C1129.43 138.815 1129.93 138.596 1130.25 138.159C1130.57 137.722 1130.72 137.083 1130.72 136.24V133.628C1130.72 132.779 1130.57 132.14 1130.25 131.709C1129.93 131.272 1129.43 131.053 1128.74 131.053C1128.05 131.053 1127.54 131.272 1127.23 131.709C1126.92 132.14 1126.76 132.779 1126.76 133.628V136.24C1126.76 137.083 1126.92 137.722 1127.24 138.159C1127.56 138.596 1128.06 138.815 1128.74 138.815ZM1134.54 141V138.321L1137.52 135.737C1138.02 135.3 1138.43 134.917 1138.75 134.587C1139.08 134.258 1139.33 133.945 1139.49 133.647C1139.66 133.349 1139.74 133.036 1139.74 132.706V132.621C1139.74 132.323 1139.68 132.067 1139.55 131.851C1139.42 131.63 1139.21 131.459 1138.91 131.338C1138.62 131.218 1138.23 131.158 1137.75 131.158C1137.14 131.158 1136.58 131.247 1136.04 131.424C1135.51 131.595 1135.04 131.785 1134.63 131.994L1134.89 129.429C1135.16 129.283 1135.47 129.15 1135.83 129.03C1136.19 128.903 1136.59 128.802 1137.03 128.726C1137.48 128.65 1137.97 128.612 1138.5 128.612C1139.91 128.612 1140.98 128.929 1141.7 129.562C1142.41 130.195 1142.77 131.082 1142.77 132.222V132.355C1142.77 132.95 1142.68 133.485 1142.5 133.96C1142.31 134.435 1142.03 134.898 1141.64 135.347C1141.26 135.791 1140.77 136.275 1140.17 136.801L1138.37 138.397V138.938L1137.1 138.501H1142.89V141H1134.54ZM1149.14 141V134.046L1149.26 130.892H1149.03L1146.14 136.402V137.58L1145.01 136.563H1153.32V138.976H1143.27V136.231L1147.28 128.859H1151.97V141H1149.14Z" fill="#FF7246"/>
<path d="M674.085 272H671.102V259.859H674.085V272ZM681.788 272V266.509C681.788 266.167 681.744 265.872 681.655 265.625C681.567 265.372 681.418 265.179 681.209 265.046C681 264.913 680.715 264.846 680.354 264.846C680.056 264.846 679.793 264.9 679.565 265.008C679.337 265.109 679.144 265.252 678.986 265.435C678.834 265.613 678.72 265.815 678.644 266.043L678.197 264.685H678.691C678.793 264.261 678.957 263.881 679.185 263.545C679.42 263.209 679.739 262.943 680.145 262.747C680.55 262.544 681.063 262.443 681.684 262.443C682.38 262.443 682.95 262.579 683.394 262.851C683.837 263.117 684.163 263.516 684.372 264.048C684.588 264.58 684.695 265.245 684.695 266.043V272H681.788ZM675.784 272V262.661H678.672L678.577 264.998L678.691 265.274V272H675.784ZM689.862 272.209C689.033 272.209 688.371 272.086 687.877 271.838C687.389 271.585 687.038 271.208 686.822 270.708C686.607 270.208 686.499 269.59 686.499 268.855V263.64H689.387V268.39C689.387 268.846 689.489 269.182 689.691 269.397C689.9 269.606 690.287 269.71 690.85 269.71C691.161 269.71 691.468 269.676 691.772 269.606C692.076 269.536 692.351 269.448 692.598 269.34L692.351 271.743C692.028 271.883 691.655 271.994 691.23 272.076C690.812 272.165 690.356 272.209 689.862 272.209ZM685.245 264.979V262.699H692.513L692.256 264.979H685.245ZM686.537 262.908L686.528 260.495L689.406 260.22L689.302 262.908H686.537ZM697.955 272.238C696.258 272.238 695.004 271.861 694.193 271.107C693.383 270.347 692.977 269.242 692.977 267.791V266.822C692.977 265.391 693.357 264.295 694.117 263.535C694.877 262.769 695.982 262.386 697.433 262.386C698.408 262.386 699.219 262.554 699.865 262.889C700.517 263.219 701.005 263.691 701.328 264.305C701.657 264.919 701.822 265.657 701.822 266.518V266.832C701.822 267.073 701.809 267.32 701.784 267.573C701.765 267.82 701.736 268.051 701.698 268.266H699.076C699.102 267.899 699.117 267.554 699.124 267.231C699.13 266.902 699.133 266.604 699.133 266.338C699.133 265.952 699.073 265.629 698.953 265.369C698.832 265.103 698.646 264.9 698.392 264.761C698.145 264.622 697.825 264.552 697.433 264.552C696.85 264.552 696.423 264.71 696.15 265.027C695.884 265.337 695.751 265.781 695.751 266.357V267.212L695.77 267.525V268.19C695.77 268.431 695.808 268.659 695.884 268.874C695.967 269.09 696.106 269.28 696.302 269.444C696.505 269.603 696.78 269.729 697.129 269.824C697.483 269.913 697.933 269.957 698.478 269.957C699.054 269.957 699.608 269.904 700.14 269.796C700.672 269.682 701.182 269.53 701.67 269.34L701.432 271.525C701.002 271.747 700.492 271.921 699.903 272.048C699.314 272.174 698.665 272.238 697.955 272.238ZM694.516 268.266V266.471H701.109V268.266H694.516ZM705.864 266.756L705.066 264.989H705.75C705.902 264.216 706.197 263.611 706.634 263.174C707.077 262.731 707.701 262.509 708.505 262.509C708.645 262.509 708.771 262.519 708.885 262.538C709.006 262.557 709.12 262.579 709.227 262.604L709.37 265.54C709.237 265.502 709.082 265.477 708.904 265.464C708.727 265.445 708.547 265.435 708.363 265.435C707.742 265.435 707.22 265.553 706.795 265.787C706.371 266.015 706.061 266.338 705.864 266.756ZM703.014 272V262.661H705.75L705.627 265.644L705.921 265.682V272H703.014ZM714.44 270.1L716.14 262.661H719.123L716.644 272H711.989L709.49 262.661H712.492L714.212 270.1H714.44ZM719.909 272V262.661H722.816V272H719.909ZM721.363 261.778C720.818 261.778 720.422 261.654 720.175 261.407C719.928 261.154 719.805 260.815 719.805 260.391V260.324C719.805 259.9 719.928 259.564 720.175 259.317C720.422 259.07 720.818 258.947 721.363 258.947C721.895 258.947 722.284 259.07 722.531 259.317C722.785 259.564 722.911 259.9 722.911 260.324V260.391C722.911 260.822 722.785 261.16 722.531 261.407C722.284 261.654 721.895 261.778 721.363 261.778ZM729.017 272.238C727.32 272.238 726.066 271.861 725.255 271.107C724.445 270.347 724.039 269.242 724.039 267.791V266.822C724.039 265.391 724.419 264.295 725.179 263.535C725.939 262.769 727.044 262.386 728.495 262.386C729.47 262.386 730.281 262.554 730.927 262.889C731.579 263.219 732.067 263.691 732.39 264.305C732.719 264.919 732.884 265.657 732.884 266.518V266.832C732.884 267.073 732.871 267.32 732.846 267.573C732.827 267.82 732.798 268.051 732.76 268.266H730.138C730.164 267.899 730.179 267.554 730.186 267.231C730.192 266.902 730.195 266.604 730.195 266.338C730.195 265.952 730.135 265.629 730.015 265.369C729.894 265.103 729.708 264.9 729.454 264.761C729.207 264.622 728.887 264.552 728.495 264.552C727.912 264.552 727.485 264.71 727.212 265.027C726.946 265.337 726.813 265.781 726.813 266.357V267.212L726.832 267.525V268.19C726.832 268.431 726.87 268.659 726.946 268.874C727.029 269.09 727.168 269.28 727.364 269.444C727.567 269.603 727.842 269.729 728.191 269.824C728.545 269.913 728.995 269.957 729.54 269.957C730.116 269.957 730.67 269.904 731.202 269.796C731.734 269.682 732.244 269.53 732.732 269.34L732.494 271.525C732.064 271.747 731.554 271.921 730.965 272.048C730.376 272.174 729.727 272.238 729.017 272.238ZM725.578 268.266V266.471H732.171V268.266H725.578ZM735.133 272L733.262 262.661H736.207L737.366 269.948H737.537L738.677 262.889H742.23L743.389 269.948H743.55L744.719 262.661H747.635L745.764 272H741.631L740.691 266.053L740.529 265.008H740.396L740.225 266.053L739.285 272H735.133ZM751.772 272.228C751.031 272.228 750.363 272.162 749.768 272.029C749.173 271.902 748.663 271.753 748.238 271.582L747.991 269.14C748.479 269.343 749.017 269.527 749.606 269.691C750.202 269.85 750.845 269.929 751.535 269.929C752.086 269.929 752.475 269.872 752.703 269.758C752.938 269.638 753.055 269.454 753.055 269.207V269.169C753.055 268.998 752.995 268.859 752.874 268.751C752.76 268.637 752.558 268.536 752.266 268.447C751.981 268.358 751.579 268.254 751.06 268.133C750.281 267.95 749.663 267.734 749.207 267.487C748.751 267.234 748.425 266.927 748.229 266.566C748.039 266.199 747.944 265.765 747.944 265.264V265.188C747.944 264.264 748.273 263.573 748.932 263.117C749.591 262.655 750.56 262.424 751.839 262.424C752.561 262.424 753.21 262.49 753.786 262.623C754.363 262.756 754.847 262.915 755.24 263.098L755.487 265.369C755.031 265.166 754.521 264.998 753.957 264.865C753.4 264.732 752.814 264.666 752.2 264.666C751.826 264.666 751.532 264.691 751.316 264.742C751.107 264.793 750.959 264.865 750.87 264.96C750.788 265.055 750.746 265.173 750.746 265.312V265.34C750.746 265.492 750.797 265.622 750.898 265.73C751 265.838 751.183 265.939 751.449 266.034C751.722 266.129 752.111 266.237 752.618 266.357C753.403 266.528 754.037 266.724 754.518 266.946C754.999 267.161 755.351 267.443 755.572 267.791C755.794 268.133 755.905 268.589 755.905 269.159V269.245C755.905 270.252 755.566 271.002 754.888 271.496C754.211 271.984 753.172 272.228 751.772 272.228Z" fill="#3B3A40"/>
<path d="M859.874 156.257C859.31 156.257 858.781 156.219 858.287 156.143C857.799 156.073 857.353 155.981 856.948 155.867C856.549 155.747 856.197 155.623 855.893 155.496L855.637 152.76C856.137 152.995 856.729 153.213 857.413 153.416C858.097 153.612 858.822 153.71 859.589 153.71C860.33 153.71 860.855 153.619 861.166 153.435C861.482 153.245 861.641 152.95 861.641 152.551V152.485C861.641 152.219 861.568 152.004 861.422 151.839C861.283 151.668 861.045 151.513 860.71 151.373C860.38 151.228 859.934 151.073 859.37 150.908C858.521 150.655 857.812 150.373 857.242 150.062C856.678 149.752 856.257 149.366 855.979 148.903C855.7 148.435 855.561 147.843 855.561 147.127V147.003C855.561 145.901 855.934 145.059 856.682 144.476C857.435 143.894 858.54 143.602 859.997 143.602C860.871 143.602 861.625 143.678 862.258 143.83C862.898 143.982 863.439 144.163 863.883 144.372L864.139 146.918C863.651 146.684 863.097 146.487 862.477 146.329C861.862 146.164 861.204 146.082 860.501 146.082C860.007 146.082 859.617 146.123 859.332 146.205C859.053 146.288 858.857 146.408 858.743 146.566C858.629 146.718 858.572 146.905 858.572 147.127V147.165C858.572 147.393 858.635 147.592 858.762 147.763C858.895 147.934 859.129 148.099 859.465 148.257C859.807 148.416 860.292 148.587 860.919 148.77C861.761 149.017 862.458 149.283 863.009 149.568C863.566 149.847 863.981 150.211 864.253 150.661C864.532 151.104 864.671 151.696 864.671 152.437V152.589C864.671 153.812 864.275 154.73 863.484 155.344C862.692 155.952 861.489 156.257 859.874 156.257ZM870.504 156.238C868.807 156.238 867.553 155.861 866.742 155.107C865.932 154.347 865.526 153.242 865.526 151.791V150.822C865.526 149.391 865.906 148.295 866.666 147.535C867.426 146.769 868.531 146.386 869.982 146.386C870.957 146.386 871.768 146.554 872.414 146.889C873.066 147.219 873.554 147.691 873.877 148.305C874.206 148.919 874.371 149.657 874.371 150.518V150.832C874.371 151.073 874.358 151.32 874.333 151.573C874.314 151.82 874.285 152.051 874.247 152.266H871.625C871.651 151.899 871.666 151.554 871.673 151.231C871.679 150.902 871.682 150.604 871.682 150.338C871.682 149.952 871.622 149.629 871.502 149.369C871.381 149.103 871.195 148.9 870.941 148.761C870.694 148.622 870.374 148.552 869.982 148.552C869.399 148.552 868.972 148.71 868.699 149.027C868.433 149.337 868.3 149.781 868.3 150.357V151.212L868.319 151.525V152.19C868.319 152.431 868.357 152.659 868.433 152.874C868.516 153.09 868.655 153.28 868.851 153.444C869.054 153.603 869.329 153.729 869.678 153.824C870.032 153.913 870.482 153.957 871.027 153.957C871.603 153.957 872.157 153.904 872.689 153.796C873.221 153.682 873.731 153.53 874.219 153.34L873.981 155.525C873.551 155.747 873.041 155.921 872.452 156.048C871.863 156.174 871.214 156.238 870.504 156.238ZM867.065 152.266V150.471H873.658V152.266H867.065ZM875.573 156V143.45H878.48V156H875.573ZM884.681 156.238C882.983 156.238 881.729 155.861 880.919 155.107C880.108 154.347 879.703 153.242 879.703 151.791V150.822C879.703 149.391 880.083 148.295 880.843 147.535C881.603 146.769 882.708 146.386 884.158 146.386C885.134 146.386 885.944 146.554 886.59 146.889C887.243 147.219 887.73 147.691 888.053 148.305C888.383 148.919 888.547 149.657 888.547 150.518V150.832C888.547 151.073 888.535 151.32 888.509 151.573C888.49 151.82 888.462 152.051 888.424 152.266H885.802C885.827 151.899 885.843 151.554 885.849 151.231C885.856 150.902 885.859 150.604 885.859 150.338C885.859 149.952 885.799 149.629 885.678 149.369C885.558 149.103 885.371 148.9 885.118 148.761C884.871 148.622 884.551 148.552 884.158 148.552C883.576 148.552 883.148 148.71 882.876 149.027C882.61 149.337 882.477 149.781 882.477 150.357V151.212L882.496 151.525V152.19C882.496 152.431 882.534 152.659 882.61 152.874C882.692 153.09 882.831 153.28 883.028 153.444C883.23 153.603 883.506 153.729 883.854 153.824C884.209 153.913 884.659 153.957 885.203 153.957C885.78 153.957 886.334 153.904 886.866 153.796C887.398 153.682 887.908 153.53 888.395 153.34L888.158 155.525C887.727 155.747 887.217 155.921 886.628 156.048C886.039 156.174 885.39 156.238 884.681 156.238ZM881.242 152.266V150.471H887.835V152.266H881.242ZM893.768 156.247C892.286 156.247 891.187 155.857 890.472 155.078C889.756 154.299 889.398 153.204 889.398 151.791V150.822C889.398 149.435 889.756 148.352 890.472 147.573C891.187 146.794 892.283 146.405 893.759 146.405C894.139 146.405 894.493 146.433 894.823 146.49C895.152 146.541 895.456 146.614 895.735 146.709C896.013 146.804 896.257 146.905 896.466 147.013L896.704 149.416C896.393 149.239 896.051 149.093 895.678 148.979C895.304 148.859 894.883 148.799 894.414 148.799C893.679 148.799 893.147 148.976 892.818 149.331C892.489 149.686 892.324 150.199 892.324 150.87V151.677C892.324 152.361 892.498 152.887 892.847 153.254C893.195 153.622 893.74 153.805 894.481 153.805C894.943 153.805 895.358 153.752 895.725 153.644C896.099 153.53 896.453 153.384 896.789 153.207L896.561 155.62C896.232 155.797 895.826 155.946 895.345 156.067C894.864 156.187 894.338 156.247 893.768 156.247ZM901.74 156.209C900.91 156.209 900.248 156.086 899.754 155.838C899.267 155.585 898.915 155.208 898.7 154.708C898.485 154.208 898.377 153.59 898.377 152.855V147.64H901.265V152.39C901.265 152.846 901.366 153.182 901.569 153.397C901.778 153.606 902.164 153.71 902.728 153.71C903.038 153.71 903.345 153.676 903.649 153.606C903.953 153.536 904.229 153.448 904.476 153.34L904.229 155.743C903.906 155.883 903.532 155.994 903.108 156.076C902.69 156.165 902.234 156.209 901.74 156.209ZM897.123 148.979V146.699H904.39L904.134 148.979H897.123ZM898.415 146.908L898.405 144.495L901.284 144.22L901.179 146.908H898.415ZM905.336 156V146.661H908.243V156H905.336ZM906.79 145.778C906.245 145.778 905.849 145.654 905.602 145.407C905.355 145.154 905.232 144.815 905.232 144.391V144.324C905.232 143.9 905.355 143.564 905.602 143.317C905.849 143.07 906.245 142.947 906.79 142.947C907.322 142.947 907.711 143.07 907.958 143.317C908.212 143.564 908.338 143.9 908.338 144.324V144.391C908.338 144.822 908.212 145.16 907.958 145.407C907.711 145.654 907.322 145.778 906.79 145.778ZM914.036 156.266C912.528 156.266 911.388 155.892 910.616 155.145C909.849 154.391 909.466 153.334 909.466 151.972V150.746C909.466 149.366 909.852 148.295 910.625 147.535C911.398 146.769 912.535 146.386 914.036 146.386C915.537 146.386 916.67 146.769 917.437 147.535C918.209 148.295 918.596 149.366 918.596 150.746V151.972C918.596 153.334 918.212 154.391 917.446 155.145C916.68 155.892 915.543 156.266 914.036 156.266ZM914.036 153.976C914.574 153.976 914.982 153.815 915.261 153.492C915.546 153.163 915.689 152.697 915.689 152.095V150.623C915.689 149.99 915.546 149.508 915.261 149.179C914.982 148.85 914.574 148.685 914.036 148.685C913.497 148.685 913.086 148.85 912.801 149.179C912.522 149.508 912.383 149.99 912.383 150.623V152.095C912.383 152.697 912.522 153.163 912.801 153.492C913.086 153.815 913.497 153.976 914.036 153.976ZM925.823 156V150.509C925.823 150.167 925.778 149.872 925.69 149.625C925.601 149.372 925.452 149.179 925.243 149.046C925.034 148.913 924.749 148.846 924.388 148.846C924.09 148.846 923.828 148.9 923.6 149.008C923.372 149.109 923.178 149.252 923.02 149.435C922.868 149.613 922.754 149.815 922.678 150.043L922.232 148.685H922.726C922.827 148.261 922.992 147.881 923.22 147.545C923.454 147.209 923.774 146.943 924.179 146.747C924.584 146.544 925.097 146.443 925.718 146.443C926.415 146.443 926.985 146.579 927.428 146.851C927.871 147.117 928.198 147.516 928.407 148.048C928.622 148.58 928.73 149.245 928.73 150.043V156H925.823ZM919.819 156V146.661H922.707L922.612 148.998L922.726 149.274V156H919.819Z" fill="#3B3A40"/>
<path d="M1117.1 80.5515V78.148H1119.98C1120.6 78.148 1121.04 78.0118 1121.32 77.7395C1121.59 77.4608 1121.73 77.046 1121.73 76.495V75.906C1121.73 75.3487 1121.6 74.9338 1121.32 74.6615C1121.05 74.3892 1120.61 74.253 1119.99 74.253H1117.09V71.859H1120.2C1121.75 71.859 1122.88 72.201 1123.59 72.885C1124.32 73.569 1124.68 74.5475 1124.68 75.8205V76.59C1124.68 77.8693 1124.32 78.851 1123.59 79.535C1122.88 80.2127 1121.75 80.5515 1120.21 80.5515H1117.1ZM1115.1 84V71.859H1118.01V78.8225L1118.03 80.1715V84H1115.1ZM1128.66 78.756L1127.87 76.989H1128.55C1128.7 76.2163 1129 75.6115 1129.43 75.1745C1129.88 74.7312 1130.5 74.5095 1131.31 74.5095C1131.44 74.5095 1131.57 74.519 1131.69 74.538C1131.81 74.557 1131.92 74.5792 1132.03 74.6045L1132.17 77.54C1132.04 77.502 1131.88 77.4767 1131.7 77.464C1131.53 77.445 1131.35 77.4355 1131.16 77.4355C1130.54 77.4355 1130.02 77.5527 1129.6 77.787C1129.17 78.015 1128.86 78.338 1128.66 78.756ZM1125.81 84V74.6615H1128.55L1128.43 77.6445L1128.72 77.6825V84H1125.81ZM1137.08 84.266C1135.58 84.266 1134.44 83.8923 1133.66 83.145C1132.9 82.3913 1132.51 81.3337 1132.51 79.972V78.7465C1132.51 77.3658 1132.9 76.2955 1133.67 75.5355C1134.45 74.7692 1135.58 74.386 1137.08 74.386C1138.58 74.386 1139.72 74.7692 1140.48 75.5355C1141.26 76.2955 1141.64 77.3658 1141.64 78.7465V79.972C1141.64 81.3337 1141.26 82.3913 1140.49 83.145C1139.73 83.8923 1138.59 84.266 1137.08 84.266ZM1137.08 81.9765C1137.62 81.9765 1138.03 81.815 1138.31 81.492C1138.59 81.1627 1138.74 80.6972 1138.74 80.0955V78.623C1138.74 77.9897 1138.59 77.5083 1138.31 77.179C1138.03 76.8497 1137.62 76.685 1137.08 76.685C1136.55 76.685 1136.13 76.8497 1135.85 77.179C1135.57 77.5083 1135.43 77.9897 1135.43 78.623V80.0955C1135.43 80.6972 1135.57 81.1627 1135.85 81.492C1136.13 81.815 1136.55 81.9765 1137.08 81.9765ZM1147.02 81.093C1145.52 81.093 1144.39 80.8143 1143.64 80.257C1142.88 79.6997 1142.51 78.9175 1142.51 77.9105V77.787C1142.51 77.103 1142.66 76.5267 1142.96 76.058C1143.27 75.583 1143.75 75.2157 1144.39 74.956C1145.03 74.6963 1145.85 74.5412 1146.85 74.4905L1151.83 74.2625V76.3145L1149.36 76.248V76.343C1149.78 76.4127 1150.13 76.533 1150.4 76.704C1150.68 76.8687 1150.88 77.0872 1151.02 77.3595C1151.16 77.6255 1151.23 77.9548 1151.23 78.3475V78.414C1151.23 79.2817 1150.88 79.9467 1150.19 80.409C1149.51 80.865 1148.45 81.093 1147.02 81.093ZM1146.88 85.5105H1147.16C1147.62 85.5105 1147.98 85.482 1148.26 85.425C1148.55 85.368 1148.76 85.2825 1148.89 85.1685C1149.02 85.0545 1149.09 84.912 1149.09 84.741V84.722C1149.09 84.5003 1148.99 84.342 1148.8 84.247C1148.62 84.152 1148.34 84.0887 1147.97 84.057L1145.21 83.7815L1145.85 83.7435C1145.66 83.7752 1145.49 83.829 1145.36 83.905C1145.22 83.981 1145.11 84.076 1145.03 84.19C1144.96 84.304 1144.92 84.4433 1144.92 84.608V84.627C1144.92 84.817 1144.99 84.9785 1145.13 85.1115C1145.27 85.2445 1145.48 85.3427 1145.76 85.406C1146.06 85.4757 1146.43 85.5105 1146.88 85.5105ZM1146.73 87.6385C1145.8 87.6385 1144.99 87.5625 1144.33 87.4105C1143.67 87.2648 1143.17 87.0305 1142.83 86.7075C1142.49 86.3845 1142.32 85.957 1142.32 85.425V85.387C1142.32 85.026 1142.39 84.722 1142.55 84.475C1142.71 84.228 1142.94 84.0348 1143.24 83.8955C1143.53 83.7562 1143.88 83.6707 1144.28 83.639V83.544C1143.79 83.4553 1143.42 83.3002 1143.15 83.0785C1142.89 82.8568 1142.76 82.5465 1142.76 82.1475V82.138C1142.76 81.853 1142.83 81.6123 1142.95 81.416C1143.09 81.2197 1143.28 81.0708 1143.53 80.9695C1143.78 80.8618 1144.1 80.7985 1144.46 80.7795V80.466L1146.61 81.0075L1145.98 80.998C1145.76 80.998 1145.6 81.0265 1145.51 81.0835C1145.42 81.1405 1145.37 81.226 1145.37 81.34V81.3495C1145.37 81.4888 1145.45 81.5902 1145.59 81.6535C1145.75 81.7105 1145.99 81.758 1146.32 81.796L1148.54 82.0525C1149.61 82.1792 1150.42 82.4452 1150.94 82.8505C1151.47 83.2558 1151.73 83.8828 1151.73 84.7315V84.7885C1151.73 85.4345 1151.55 85.9665 1151.18 86.3845C1150.82 86.8088 1150.29 87.1223 1149.6 87.325C1148.92 87.534 1148.08 87.6385 1147.09 87.6385H1146.73ZM1146.92 79.136C1147.3 79.136 1147.6 79.0885 1147.84 78.9935C1148.09 78.8922 1148.28 78.7465 1148.4 78.5565C1148.52 78.3602 1148.59 78.1258 1148.59 77.8535V77.768C1148.59 77.4957 1148.53 77.2645 1148.41 77.0745C1148.28 76.8845 1148.1 76.742 1147.85 76.647C1147.61 76.5457 1147.3 76.495 1146.92 76.495H1146.91C1146.53 76.495 1146.21 76.5457 1145.96 76.647C1145.72 76.7483 1145.53 76.894 1145.41 77.084C1145.3 77.274 1145.24 77.5052 1145.24 77.7775V77.8535C1145.24 78.1258 1145.3 78.3602 1145.42 78.5565C1145.55 78.7465 1145.74 78.8922 1145.98 78.9935C1146.23 79.0885 1146.54 79.136 1146.92 79.136ZM1155.45 78.756L1154.65 76.989H1155.34C1155.49 76.2163 1155.78 75.6115 1156.22 75.1745C1156.66 74.7312 1157.29 74.5095 1158.09 74.5095C1158.23 74.5095 1158.36 74.519 1158.47 74.538C1158.59 74.557 1158.7 74.5792 1158.81 74.6045L1158.95 77.54C1158.82 77.502 1158.67 77.4767 1158.49 77.464C1158.31 77.445 1158.13 77.4355 1157.95 77.4355C1157.33 77.4355 1156.8 77.5527 1156.38 77.787C1155.96 78.015 1155.65 78.338 1155.45 78.756ZM1152.6 84V74.6615H1155.34L1155.21 77.6445L1155.51 77.6825V84H1152.6ZM1164.88 84L1164.96 81.663L1164.9 81.5205V78.604L1164.88 78.224C1164.88 77.7047 1164.73 77.3215 1164.42 77.0745C1164.12 76.8275 1163.61 76.704 1162.89 76.704C1162.27 76.704 1161.67 76.7832 1161.11 76.9415C1160.54 77.0998 1160.01 77.2803 1159.51 77.483L1159.76 75.2315C1160.06 75.0922 1160.39 74.9623 1160.76 74.842C1161.13 74.7153 1161.54 74.614 1161.99 74.538C1162.44 74.462 1162.92 74.424 1163.43 74.424C1164.25 74.424 1164.94 74.519 1165.49 74.709C1166.04 74.899 1166.48 75.1682 1166.81 75.5165C1167.14 75.8648 1167.37 76.2828 1167.52 76.7705C1167.67 77.2518 1167.74 77.7838 1167.74 78.3665V84H1164.88ZM1161.9 84.2185C1160.97 84.2185 1160.27 83.9842 1159.79 83.5155C1159.31 83.0468 1159.06 82.3787 1159.06 81.511V81.2545C1159.06 80.3362 1159.35 79.6585 1159.91 79.2215C1160.48 78.7782 1161.38 78.4773 1162.62 78.319L1165.13 77.9865L1165.3 79.7345L1163.07 80.0575C1162.62 80.1145 1162.31 80.219 1162.12 80.371C1161.94 80.523 1161.85 80.7478 1161.85 81.0455V81.112C1161.85 81.397 1161.94 81.625 1162.12 81.796C1162.31 81.9607 1162.6 82.043 1163.01 82.043C1163.36 82.043 1163.67 81.9892 1163.92 81.8815C1164.18 81.7738 1164.39 81.6345 1164.56 81.4635C1164.72 81.2862 1164.84 81.0898 1164.93 80.8745L1165.33 82.0525H1164.86C1164.76 82.4578 1164.6 82.8252 1164.38 83.1545C1164.18 83.4838 1163.87 83.7435 1163.47 83.9335C1163.07 84.1235 1162.55 84.2185 1161.9 84.2185ZM1180.61 84V78.433C1180.61 78.1037 1180.57 77.8218 1180.48 77.5875C1180.41 77.3468 1180.27 77.1632 1180.08 77.0365C1179.9 76.9098 1179.64 76.8465 1179.32 76.8465C1179.04 76.8465 1178.79 76.9003 1178.58 77.008C1178.37 77.1093 1178.2 77.2518 1178.06 77.4355C1177.92 77.6128 1177.82 77.8155 1177.75 78.0435L1177.47 76.685H1177.73C1177.83 76.267 1177.99 75.8902 1178.21 75.5545C1178.44 75.2125 1178.74 74.9433 1179.13 74.747C1179.53 74.5443 1180.03 74.443 1180.65 74.443C1181.31 74.443 1181.85 74.576 1182.27 74.842C1182.69 75.1017 1183.01 75.4943 1183.21 76.02C1183.41 76.5393 1183.51 77.1885 1183.51 77.9675V84H1180.61ZM1169.17 84V74.6615H1172.06L1171.96 77.179L1172.08 77.274V84H1169.17ZM1174.89 84V78.433C1174.89 78.1037 1174.85 77.8218 1174.76 77.5875C1174.69 77.3468 1174.56 77.1632 1174.37 77.0365C1174.18 76.9098 1173.92 76.8465 1173.6 76.8465C1173.31 76.8465 1173.06 76.9003 1172.86 77.008C1172.65 77.1093 1172.47 77.2518 1172.33 77.4355C1172.2 77.6128 1172.1 77.8155 1172.03 78.0435L1171.58 76.685H1172.08C1172.17 76.2607 1172.33 75.8807 1172.54 75.545C1172.76 75.2093 1173.07 74.9433 1173.45 74.747C1173.84 74.5443 1174.33 74.443 1174.92 74.443C1175.78 74.443 1176.44 74.6678 1176.87 75.1175C1177.32 75.5608 1177.6 76.2068 1177.71 77.0555C1177.73 77.1822 1177.75 77.3373 1177.77 77.521C1177.79 77.7047 1177.8 77.8693 1177.8 78.015V84H1174.89ZM1121.92 103L1121.69 100.71C1121.65 100.305 1121.57 99.9758 1121.45 99.7225C1121.33 99.4628 1121.14 99.2728 1120.9 99.1525C1120.65 99.0258 1120.32 98.9625 1119.91 98.9625L1117.16 98.953V96.6825L1120.02 96.673C1120.64 96.673 1121.09 96.5368 1121.36 96.2645C1121.63 95.9922 1121.77 95.5837 1121.77 95.039V94.849C1121.77 94.3107 1121.63 93.9085 1121.36 93.6425C1121.1 93.3702 1120.65 93.234 1120.01 93.234H1117.14V90.859H1120.44C1121.93 90.859 1123.02 91.1472 1123.7 91.7235C1124.39 92.2998 1124.73 93.1295 1124.73 94.2125V94.4595C1124.73 95.2765 1124.53 95.913 1124.11 96.369C1123.69 96.825 1123.05 97.0847 1122.2 97.148V97.566L1121.59 97.1575C1122.33 97.2082 1122.9 97.3602 1123.3 97.6135C1123.71 97.8668 1124 98.2215 1124.19 98.6775C1124.39 99.1272 1124.53 99.6877 1124.62 100.359L1124.97 103H1121.92ZM1115.1 103V90.859H1117.99V97.4995L1118.01 98.6015V103H1115.1ZM1128.77 93.6615V99.1525C1128.77 99.4945 1128.81 99.7922 1128.9 100.045C1128.99 100.292 1129.14 100.486 1129.35 100.625C1129.55 100.758 1129.84 100.824 1130.2 100.824C1130.5 100.824 1130.77 100.771 1130.99 100.663C1131.22 100.555 1131.41 100.41 1131.56 100.226C1131.72 100.042 1131.83 99.8397 1131.91 99.618L1132.36 100.976H1131.86C1131.76 101.394 1131.59 101.774 1131.36 102.116C1131.13 102.458 1130.81 102.728 1130.41 102.924C1130.01 103.12 1129.5 103.219 1128.87 103.219C1128.18 103.219 1127.61 103.086 1127.16 102.819C1126.72 102.547 1126.39 102.145 1126.17 101.613C1125.96 101.081 1125.86 100.416 1125.86 99.618V93.6615H1128.77ZM1134.77 93.6615V103H1131.88L1131.98 100.663L1131.86 100.397V93.6615H1134.77ZM1142.33 103V97.509C1142.33 97.167 1142.29 96.8725 1142.2 96.6255C1142.11 96.3722 1141.96 96.179 1141.75 96.046C1141.54 95.913 1141.26 95.8465 1140.9 95.8465C1140.6 95.8465 1140.34 95.9003 1140.11 96.008C1139.88 96.1093 1139.69 96.2518 1139.53 96.4355C1139.38 96.6128 1139.26 96.8155 1139.19 97.0435L1138.74 95.685H1139.23C1139.33 95.2607 1139.5 94.8807 1139.73 94.545C1139.96 94.2093 1140.28 93.9433 1140.69 93.747C1141.09 93.5443 1141.61 93.443 1142.23 93.443C1142.92 93.443 1143.49 93.5792 1143.94 93.8515C1144.38 94.1175 1144.71 94.5165 1144.91 95.0485C1145.13 95.5805 1145.24 96.2455 1145.24 97.0435V103H1142.33ZM1136.33 103V93.6615H1139.21L1139.12 95.9985L1139.23 96.274V103H1136.33Z" fill="#3B3A40"/>
<circle cx="164" cy="252" r="14" fill="#FF7C5C"/>
<circle cx="432" cy="291" r="14" fill="#FF7C5C"/>
<circle cx="684" cy="229" r="14" fill="#FF7C5C"/>
<circle cx="867" cy="114" r="14" fill="#FF7C5C"/>
<circle cx="1128" cy="48" r="14" fill="#FF7C5C"/>
</g>
<defs>
<linearGradient id="paint0_linear_532_904" x1="121" y1="261" x2="1375.5" y2="249" gradientUnits="userSpaceOnUse">
<stop stop-color="#FF7C5C"/>
<stop offset="1" stop-color="#FFDA9A"/>
</linearGradient>
<clipPath id="clip0_532_904">
<rect width="1471" height="472" fill="white"/>
</clipPath>
</defs>
</svg>
