<svg width="443" height="860" viewBox="0 0 443 860" fill="none" xmlns="http://www.w3.org/2000/svg">
<path d="M29 32C53.3083 74.8069 121.872 159.421 201.66 155.424C301.396 150.427 394.696 135.936 374.32 225.381C353.944 314.825 115.151 343.308 89.4132 504.209C63.675 665.109 249.204 731.568 320.699 745.56C392.194 759.551 366.456 715.078 343.578 722.074C320.699 729.07 297.821 733.067 320.699 779.539C339.002 816.716 390.526 836.67 414 842" stroke="url(#paint0_linear_532_906)" stroke-width="3" stroke-dasharray="20 12"/>
<path d="M63.923 151L63.6855 148.71C63.6475 148.305 63.5683 147.976 63.448 147.722C63.3277 147.463 63.144 147.273 62.897 147.152C62.65 147.026 62.3207 146.962 61.909 146.962L59.1635 146.953V144.682L62.023 144.673C62.6437 144.673 63.0902 144.537 63.3625 144.264C63.6348 143.992 63.771 143.584 63.771 143.039V142.849C63.771 142.311 63.6348 141.908 63.3625 141.642C63.0965 141.37 62.6468 141.234 62.0135 141.234H59.1445V138.859H62.441C63.9293 138.859 65.0155 139.147 65.6995 139.723C66.3898 140.3 66.735 141.129 66.735 142.212V142.459C66.735 143.276 66.526 143.913 66.108 144.369C65.69 144.825 65.0535 145.085 64.1985 145.148V145.566L63.5905 145.157C64.3252 145.208 64.8952 145.36 65.3005 145.613C65.7058 145.867 66.0035 146.221 66.1935 146.677C66.3898 147.127 66.5323 147.688 66.621 148.359L66.9725 151H63.923ZM57.102 151V138.859H59.99V145.499L60.009 146.601V151H57.102ZM72.0792 151.266C70.5719 151.266 69.4319 150.892 68.6592 150.145C67.8929 149.391 67.5097 148.334 67.5097 146.972V145.746C67.5097 144.366 67.896 143.295 68.6687 142.535C69.4414 141.769 70.5782 141.386 72.0792 141.386C73.5802 141.386 74.7139 141.769 75.4802 142.535C76.2529 143.295 76.6392 144.366 76.6392 145.746V146.972C76.6392 148.334 76.256 149.391 75.4897 150.145C74.7234 150.892 73.5865 151.266 72.0792 151.266ZM72.0792 148.976C72.6175 148.976 73.026 148.815 73.3047 148.492C73.5897 148.163 73.7322 147.697 73.7322 147.095V145.623C73.7322 144.99 73.5897 144.508 73.3047 144.179C73.026 143.85 72.6175 143.685 72.0792 143.685C71.5409 143.685 71.1292 143.85 70.8442 144.179C70.5655 144.508 70.4262 144.99 70.4262 145.623V147.095C70.4262 147.697 70.5655 148.163 70.8442 148.492C71.1292 148.815 71.5409 148.976 72.0792 148.976ZM77.8718 151V138.45H80.7788V151H77.8718ZM82.3903 151V138.45H85.2973V151H82.3903ZM86.8716 151V141.661H89.7786V151H86.8716ZM88.3251 140.778C87.7804 140.778 87.3846 140.654 87.1376 140.407C86.8906 140.154 86.7671 139.815 86.7671 139.391V139.324C86.7671 138.9 86.8906 138.564 87.1376 138.317C87.3846 138.07 87.7804 137.947 88.3251 137.947C88.8571 137.947 89.2466 138.07 89.4936 138.317C89.7469 138.564 89.8736 138.9 89.8736 139.324V139.391C89.8736 139.822 89.7469 140.16 89.4936 140.407C89.2466 140.654 88.8571 140.778 88.3251 140.778ZM97.3474 151V145.509C97.3474 145.167 97.3031 144.872 97.2144 144.625C97.1257 144.372 96.9769 144.179 96.7679 144.046C96.5589 143.913 96.2739 143.846 95.9129 143.846C95.6152 143.846 95.3524 143.9 95.1244 144.008C94.8964 144.109 94.7032 144.252 94.5449 144.435C94.3929 144.613 94.2789 144.815 94.2029 145.043L93.7564 143.685H94.2504C94.3517 143.261 94.5164 142.881 94.7444 142.545C94.9787 142.209 95.2986 141.943 95.7039 141.747C96.1092 141.544 96.6222 141.443 97.2429 141.443C97.9396 141.443 98.5096 141.579 98.9529 141.851C99.3962 142.117 99.7224 142.516 99.9314 143.048C100.147 143.58 100.254 144.245 100.254 145.043V151H97.3474ZM91.3434 151V141.661H94.2314L94.1364 143.998L94.2504 144.274V151H91.3434ZM105.858 148.093C104.357 148.093 103.229 147.814 102.476 147.257C101.722 146.7 101.345 145.917 101.345 144.91V144.787C101.345 144.103 101.497 143.527 101.801 143.058C102.111 142.583 102.586 142.216 103.226 141.956C103.866 141.696 104.686 141.541 105.687 141.49L110.674 141.262V143.314L108.195 143.248V143.343C108.619 143.413 108.967 143.533 109.24 143.704C109.518 143.869 109.724 144.087 109.857 144.359C109.996 144.625 110.066 144.955 110.066 145.347V145.414C110.066 146.282 109.721 146.947 109.031 147.409C108.347 147.865 107.289 148.093 105.858 148.093ZM105.715 152.511H106C106.456 152.511 106.823 152.482 107.102 152.425C107.387 152.368 107.596 152.283 107.729 152.169C107.862 152.055 107.929 151.912 107.929 151.741V151.722C107.929 151.5 107.834 151.342 107.644 151.247C107.46 151.152 107.181 151.089 106.808 151.057L104.053 150.781L104.689 150.743C104.499 150.775 104.334 150.829 104.195 150.905C104.062 150.981 103.954 151.076 103.872 151.19C103.796 151.304 103.758 151.443 103.758 151.608V151.627C103.758 151.817 103.828 151.979 103.967 152.112C104.106 152.245 104.319 152.343 104.604 152.406C104.895 152.476 105.265 152.511 105.715 152.511ZM105.573 154.639C104.635 154.639 103.834 154.563 103.169 154.411C102.51 154.265 102.01 154.031 101.668 153.708C101.326 153.385 101.155 152.957 101.155 152.425V152.387C101.155 152.026 101.234 151.722 101.393 151.475C101.551 151.228 101.779 151.035 102.077 150.895C102.374 150.756 102.723 150.671 103.122 150.639V150.544C102.634 150.455 102.257 150.3 101.991 150.078C101.731 149.857 101.602 149.546 101.602 149.147V149.138C101.602 148.853 101.665 148.612 101.792 148.416C101.925 148.22 102.118 148.071 102.371 147.969C102.624 147.862 102.935 147.798 103.302 147.779V147.466L105.449 148.007L104.822 147.998C104.6 147.998 104.442 148.026 104.347 148.083C104.258 148.14 104.214 148.226 104.214 148.34V148.349C104.214 148.489 104.287 148.59 104.433 148.653C104.585 148.71 104.828 148.758 105.164 148.796L107.378 149.052C108.454 149.179 109.255 149.445 109.781 149.85C110.307 150.256 110.57 150.883 110.57 151.732V151.789C110.57 152.435 110.386 152.967 110.019 153.385C109.658 153.809 109.132 154.122 108.442 154.325C107.758 154.534 106.922 154.639 105.934 154.639H105.573ZM105.763 146.136C106.136 146.136 106.443 146.088 106.684 145.993C106.931 145.892 107.115 145.746 107.235 145.556C107.362 145.36 107.425 145.126 107.425 144.853V144.768C107.425 144.496 107.365 144.264 107.245 144.074C107.124 143.884 106.941 143.742 106.694 143.647C106.453 143.546 106.143 143.495 105.763 143.495H105.753C105.367 143.495 105.05 143.546 104.803 143.647C104.556 143.748 104.372 143.894 104.252 144.084C104.138 144.274 104.081 144.505 104.081 144.777V144.853C104.081 145.126 104.141 145.36 104.262 145.556C104.388 145.746 104.575 145.892 104.822 145.993C105.069 146.088 105.383 146.136 105.763 146.136ZM56.2185 170L59.6955 157.859H64.1605L67.6185 170H64.6165L62.042 159.816H61.8235L59.2205 170H56.2185ZM59.173 167.14V164.832H64.645V167.14H59.173ZM74.1364 170.219C73.5791 170.219 73.1104 170.127 72.7304 169.943C72.3504 169.759 72.0464 169.5 71.8184 169.164C71.5967 168.822 71.4384 168.426 71.3434 167.976H70.5929L71.2769 166.019C71.2896 166.406 71.3624 166.732 71.4954 166.998C71.6347 167.264 71.8311 167.47 72.0844 167.615C72.3441 167.755 72.6512 167.824 73.0059 167.824C73.5379 167.824 73.9401 167.669 74.2124 167.359C74.4911 167.042 74.6304 166.574 74.6304 165.953V164.623C74.6304 164.002 74.4942 163.537 74.2219 163.226C73.9559 162.916 73.5569 162.761 73.0249 162.761C72.7272 162.761 72.4549 162.818 72.2079 162.932C71.9672 163.046 71.7614 163.198 71.5904 163.388C71.4257 163.572 71.3054 163.784 71.2294 164.024L70.5644 162.685H71.3339C71.4289 162.267 71.5872 161.89 71.8089 161.554C72.0306 161.212 72.3377 160.943 72.7304 160.747C73.1231 160.544 73.6234 160.443 74.2314 160.443C75.3207 160.443 76.1441 160.801 76.7014 161.516C77.2651 162.226 77.5469 163.293 77.5469 164.718V165.858C77.5469 167.296 77.2651 168.382 76.7014 169.116C76.1441 169.851 75.2891 170.219 74.1364 170.219ZM68.4269 173.268V160.661H71.3149L71.2199 163.179L71.2769 163.511V167.102L71.2389 167.596L71.3149 170.095V173.268H68.4269ZM84.5181 170.219C83.9608 170.219 83.4921 170.127 83.1121 169.943C82.7321 169.759 82.4281 169.5 82.2001 169.164C81.9784 168.822 81.8201 168.426 81.7251 167.976H80.9746L81.6586 166.019C81.6713 166.406 81.7441 166.732 81.8771 166.998C82.0164 167.264 82.2128 167.47 82.4661 167.615C82.7258 167.755 83.0329 167.824 83.3876 167.824C83.9196 167.824 84.3218 167.669 84.5941 167.359C84.8728 167.042 85.0121 166.574 85.0121 165.953V164.623C85.0121 164.002 84.8759 163.537 84.6036 163.226C84.3376 162.916 83.9386 162.761 83.4066 162.761C83.1089 162.761 82.8366 162.818 82.5896 162.932C82.3489 163.046 82.1431 163.198 81.9721 163.388C81.8074 163.572 81.6871 163.784 81.6111 164.024L80.9461 162.685H81.7156C81.8106 162.267 81.9689 161.89 82.1906 161.554C82.4123 161.212 82.7194 160.943 83.1121 160.747C83.5048 160.544 84.0051 160.443 84.6131 160.443C85.7024 160.443 86.5258 160.801 87.0831 161.516C87.6468 162.226 87.9286 163.293 87.9286 164.718V165.858C87.9286 167.296 87.6468 168.382 87.0831 169.116C86.5258 169.851 85.6708 170.219 84.5181 170.219ZM78.8086 173.268V160.661H81.6966L81.6016 163.179L81.6586 163.511V167.102L81.6206 167.596L81.6966 170.095V173.268H78.8086ZM89.1998 170V157.45H92.1068V170H89.1998ZM93.6812 170V160.661H96.5882V170H93.6812ZM95.1347 159.778C94.59 159.778 94.1942 159.654 93.9472 159.407C93.7002 159.154 93.5767 158.815 93.5767 158.391V158.324C93.5767 157.9 93.7002 157.564 93.9472 157.317C94.1942 157.07 94.59 156.947 95.1347 156.947C95.6667 156.947 96.0562 157.07 96.3032 157.317C96.5565 157.564 96.6832 157.9 96.6832 158.324V158.391C96.6832 158.822 96.5565 159.16 96.3032 159.407C96.0562 159.654 95.6667 159.778 95.1347 159.778ZM102.181 170.247C100.699 170.247 99.6001 169.857 98.8845 169.078C98.1688 168.299 97.811 167.204 97.811 165.791V164.822C97.811 163.435 98.1688 162.352 98.8845 161.573C99.6001 160.794 100.696 160.405 102.171 160.405C102.551 160.405 102.906 160.433 103.235 160.49C103.565 160.541 103.869 160.614 104.147 160.709C104.426 160.804 104.67 160.905 104.879 161.013L105.116 163.416C104.806 163.239 104.464 163.093 104.09 162.979C103.717 162.859 103.296 162.799 102.827 162.799C102.092 162.799 101.56 162.976 101.231 163.331C100.902 163.686 100.737 164.199 100.737 164.87V165.677C100.737 166.361 100.911 166.887 101.259 167.254C101.608 167.622 102.152 167.805 102.893 167.805C103.356 167.805 103.771 167.752 104.138 167.644C104.512 167.53 104.866 167.384 105.202 167.207L104.974 169.62C104.645 169.797 104.239 169.946 103.758 170.067C103.277 170.187 102.751 170.247 102.181 170.247ZM111.638 170L111.724 167.663L111.657 167.52V164.604L111.638 164.224C111.638 163.705 111.486 163.321 111.182 163.074C110.878 162.827 110.368 162.704 109.653 162.704C109.026 162.704 108.43 162.783 107.867 162.941C107.303 163.1 106.771 163.28 106.271 163.483L106.518 161.231C106.815 161.092 107.148 160.962 107.515 160.842C107.889 160.715 108.3 160.614 108.75 160.538C109.2 160.462 109.681 160.424 110.194 160.424C111.011 160.424 111.695 160.519 112.246 160.709C112.797 160.899 113.237 161.168 113.567 161.516C113.896 161.865 114.133 162.283 114.279 162.77C114.425 163.252 114.498 163.784 114.498 164.366V170H111.638ZM108.665 170.219C107.734 170.219 107.027 169.984 106.546 169.515C106.065 169.047 105.824 168.379 105.824 167.511V167.254C105.824 166.336 106.106 165.658 106.67 165.221C107.24 164.778 108.142 164.477 109.377 164.319L111.885 163.986L112.056 165.734L109.833 166.057C109.383 166.114 109.067 166.219 108.883 166.371C108.699 166.523 108.608 166.748 108.608 167.045V167.112C108.608 167.397 108.699 167.625 108.883 167.796C109.067 167.961 109.361 168.043 109.767 168.043C110.121 168.043 110.425 167.989 110.679 167.881C110.938 167.774 111.15 167.634 111.315 167.463C111.48 167.286 111.603 167.09 111.686 166.874L112.094 168.052H111.619C111.518 168.458 111.359 168.825 111.144 169.154C110.935 169.484 110.631 169.743 110.232 169.933C109.833 170.124 109.311 170.219 108.665 170.219ZM119.551 170.209C118.722 170.209 118.06 170.086 117.566 169.838C117.078 169.585 116.727 169.208 116.511 168.708C116.296 168.208 116.188 167.59 116.188 166.855V161.64H119.076V166.39C119.076 166.846 119.178 167.182 119.38 167.397C119.589 167.606 119.976 167.71 120.539 167.71C120.85 167.71 121.157 167.676 121.461 167.606C121.765 167.536 122.04 167.448 122.287 167.34L122.04 169.743C121.717 169.883 121.344 169.994 120.919 170.076C120.501 170.165 120.045 170.209 119.551 170.209ZM114.934 162.979V160.699H122.202L121.945 162.979H114.934ZM116.226 160.908L116.217 158.495L119.095 158.22L118.991 160.908H116.226ZM123.147 170V160.661H126.054V170H123.147ZM124.601 159.778C124.056 159.778 123.66 159.654 123.413 159.407C123.166 159.154 123.043 158.815 123.043 158.391V158.324C123.043 157.9 123.166 157.564 123.413 157.317C123.66 157.07 124.056 156.947 124.601 156.947C125.133 156.947 125.522 157.07 125.769 157.317C126.023 157.564 126.149 157.9 126.149 158.324V158.391C126.149 158.822 126.023 159.16 125.769 159.407C125.522 159.654 125.133 159.778 124.601 159.778ZM131.847 170.266C130.339 170.266 129.199 169.892 128.427 169.145C127.66 168.391 127.277 167.334 127.277 165.972V164.746C127.277 163.366 127.664 162.295 128.436 161.535C129.209 160.769 130.346 160.386 131.847 160.386C133.348 160.386 134.481 160.769 135.248 161.535C136.02 162.295 136.407 163.366 136.407 164.746V165.972C136.407 167.334 136.024 168.391 135.257 169.145C134.491 169.892 133.354 170.266 131.847 170.266ZM131.847 167.976C132.385 167.976 132.794 167.815 133.072 167.492C133.357 167.163 133.5 166.697 133.5 166.095V164.623C133.5 163.99 133.357 163.508 133.072 163.179C132.794 162.85 132.385 162.685 131.847 162.685C131.308 162.685 130.897 162.85 130.612 163.179C130.333 163.508 130.194 163.99 130.194 164.623V166.095C130.194 166.697 130.333 167.163 130.612 167.492C130.897 167.815 131.308 167.976 131.847 167.976ZM143.634 170V164.509C143.634 164.167 143.59 163.872 143.501 163.625C143.412 163.372 143.263 163.179 143.054 163.046C142.845 162.913 142.56 162.846 142.199 162.846C141.902 162.846 141.639 162.9 141.411 163.008C141.183 163.109 140.99 163.252 140.831 163.435C140.679 163.613 140.565 163.815 140.489 164.043L140.043 162.685H140.537C140.638 162.261 140.803 161.881 141.031 161.545C141.265 161.209 141.585 160.943 141.99 160.747C142.396 160.544 142.909 160.443 143.529 160.443C144.226 160.443 144.796 160.579 145.239 160.851C145.683 161.117 146.009 161.516 146.218 162.048C146.433 162.58 146.541 163.245 146.541 164.043V170H143.634ZM137.63 170V160.661H140.518L140.423 162.998L140.537 163.274V170H137.63ZM151.337 170.228C150.596 170.228 149.927 170.162 149.332 170.029C148.737 169.902 148.227 169.753 147.803 169.582L147.556 167.14C148.043 167.343 148.582 167.527 149.171 167.691C149.766 167.85 150.409 167.929 151.099 167.929C151.65 167.929 152.04 167.872 152.268 167.758C152.502 167.638 152.619 167.454 152.619 167.207V167.169C152.619 166.998 152.559 166.859 152.439 166.751C152.325 166.637 152.122 166.536 151.831 166.447C151.546 166.358 151.143 166.254 150.624 166.133C149.845 165.95 149.228 165.734 148.772 165.487C148.316 165.234 147.989 164.927 147.793 164.566C147.603 164.199 147.508 163.765 147.508 163.264V163.188C147.508 162.264 147.837 161.573 148.496 161.117C149.155 160.655 150.124 160.424 151.403 160.424C152.125 160.424 152.774 160.49 153.351 160.623C153.927 160.756 154.411 160.915 154.804 161.098L155.051 163.369C154.595 163.166 154.085 162.998 153.522 162.865C152.964 162.732 152.378 162.666 151.764 162.666C151.39 162.666 151.096 162.691 150.881 162.742C150.672 162.793 150.523 162.865 150.434 162.96C150.352 163.055 150.311 163.173 150.311 163.312V163.34C150.311 163.492 150.361 163.622 150.463 163.73C150.564 163.838 150.748 163.939 151.014 164.034C151.286 164.129 151.675 164.237 152.182 164.357C152.967 164.528 153.601 164.724 154.082 164.946C154.563 165.161 154.915 165.443 155.137 165.791C155.358 166.133 155.469 166.589 155.469 167.159V167.245C155.469 168.252 155.13 169.002 154.453 169.496C153.775 169.984 152.736 170.228 151.337 170.228Z" fill="#3B3A40"/>
<circle cx="183" cy="155" r="14" fill="#FF7C5C"/>
<path d="M220.219 195L223.696 182.859H228.161L231.619 195H228.617L226.042 184.816H225.824L223.221 195H220.219ZM223.173 192.14V189.832H228.645V192.14H223.173ZM238.136 195.219C237.579 195.219 237.11 195.127 236.73 194.943C236.35 194.759 236.046 194.5 235.818 194.164C235.597 193.822 235.438 193.426 235.343 192.976H234.593L235.277 191.019C235.29 191.406 235.362 191.732 235.495 191.998C235.635 192.264 235.831 192.47 236.084 192.615C236.344 192.755 236.651 192.824 237.006 192.824C237.538 192.824 237.94 192.669 238.212 192.359C238.491 192.042 238.63 191.574 238.63 190.953V189.623C238.63 189.002 238.494 188.537 238.222 188.226C237.956 187.916 237.557 187.761 237.025 187.761C236.727 187.761 236.455 187.818 236.208 187.932C235.967 188.046 235.761 188.198 235.59 188.388C235.426 188.572 235.305 188.784 235.229 189.024L234.564 187.685H235.334C235.429 187.267 235.587 186.89 235.809 186.554C236.031 186.212 236.338 185.943 236.73 185.747C237.123 185.544 237.623 185.443 238.231 185.443C239.321 185.443 240.144 185.801 240.701 186.516C241.265 187.226 241.547 188.293 241.547 189.718V190.858C241.547 192.296 241.265 193.382 240.701 194.116C240.144 194.851 239.289 195.219 238.136 195.219ZM232.427 198.268V185.661H235.315L235.22 188.179L235.277 188.511V192.102L235.239 192.596L235.315 195.095V198.268H232.427ZM248.518 195.219C247.961 195.219 247.492 195.127 247.112 194.943C246.732 194.759 246.428 194.5 246.2 194.164C245.978 193.822 245.82 193.426 245.725 192.976H244.975L245.659 191.019C245.671 191.406 245.744 191.732 245.877 191.998C246.016 192.264 246.213 192.47 246.466 192.615C246.726 192.755 247.033 192.824 247.388 192.824C247.92 192.824 248.322 192.669 248.594 192.359C248.873 192.042 249.012 191.574 249.012 190.953V189.623C249.012 189.002 248.876 188.537 248.604 188.226C248.338 187.916 247.939 187.761 247.407 187.761C247.109 187.761 246.837 187.818 246.59 187.932C246.349 188.046 246.143 188.198 245.972 188.388C245.807 188.572 245.687 188.784 245.611 189.024L244.946 187.685H245.716C245.811 187.267 245.969 186.89 246.191 186.554C246.412 186.212 246.719 185.943 247.112 185.747C247.505 185.544 248.005 185.443 248.613 185.443C249.702 185.443 250.526 185.801 251.083 186.516C251.647 187.226 251.929 188.293 251.929 189.718V190.858C251.929 192.296 251.647 193.382 251.083 194.116C250.526 194.851 249.671 195.219 248.518 195.219ZM242.809 198.268V185.661H245.697L245.602 188.179L245.659 188.511V192.102L245.621 192.596L245.697 195.095V198.268H242.809ZM253.2 195V182.45H256.107V195H253.2ZM257.681 195V185.661H260.588V195H257.681ZM259.135 184.778C258.59 184.778 258.194 184.654 257.947 184.407C257.7 184.154 257.577 183.815 257.577 183.391V183.324C257.577 182.9 257.7 182.564 257.947 182.317C258.194 182.07 258.59 181.947 259.135 181.947C259.667 181.947 260.056 182.07 260.303 182.317C260.556 182.564 260.683 182.9 260.683 183.324V183.391C260.683 183.822 260.556 184.16 260.303 184.407C260.056 184.654 259.667 184.778 259.135 184.778ZM266.181 195.247C264.699 195.247 263.6 194.857 262.884 194.078C262.169 193.299 261.811 192.204 261.811 190.791V189.822C261.811 188.435 262.169 187.352 262.884 186.573C263.6 185.794 264.696 185.405 266.171 185.405C266.551 185.405 266.906 185.433 267.235 185.49C267.565 185.541 267.869 185.614 268.147 185.709C268.426 185.804 268.67 185.905 268.879 186.013L269.116 188.416C268.806 188.239 268.464 188.093 268.09 187.979C267.717 187.859 267.296 187.799 266.827 187.799C266.092 187.799 265.56 187.976 265.231 188.331C264.902 188.686 264.737 189.199 264.737 189.87V190.677C264.737 191.361 264.911 191.887 265.259 192.254C265.608 192.622 266.152 192.805 266.893 192.805C267.356 192.805 267.771 192.752 268.138 192.644C268.512 192.53 268.866 192.384 269.202 192.207L268.974 194.62C268.645 194.797 268.239 194.946 267.758 195.067C267.277 195.187 266.751 195.247 266.181 195.247ZM275.638 195L275.724 192.663L275.657 192.52V189.604L275.638 189.224C275.638 188.705 275.486 188.321 275.182 188.074C274.878 187.827 274.368 187.704 273.653 187.704C273.026 187.704 272.43 187.783 271.867 187.941C271.303 188.1 270.771 188.28 270.271 188.483L270.518 186.231C270.815 186.092 271.148 185.962 271.515 185.842C271.889 185.715 272.3 185.614 272.75 185.538C273.2 185.462 273.681 185.424 274.194 185.424C275.011 185.424 275.695 185.519 276.246 185.709C276.797 185.899 277.237 186.168 277.567 186.516C277.896 186.865 278.133 187.283 278.279 187.77C278.425 188.252 278.498 188.784 278.498 189.366V195H275.638ZM272.665 195.219C271.734 195.219 271.027 194.984 270.546 194.515C270.065 194.047 269.824 193.379 269.824 192.511V192.254C269.824 191.336 270.106 190.658 270.67 190.221C271.24 189.778 272.142 189.477 273.377 189.319L275.885 188.986L276.056 190.734L273.833 191.057C273.383 191.114 273.067 191.219 272.883 191.371C272.699 191.523 272.608 191.748 272.608 192.045V192.112C272.608 192.397 272.699 192.625 272.883 192.796C273.067 192.961 273.361 193.043 273.767 193.043C274.121 193.043 274.425 192.989 274.679 192.881C274.938 192.774 275.15 192.634 275.315 192.463C275.48 192.286 275.603 192.09 275.686 191.874L276.094 193.052H275.619C275.518 193.458 275.359 193.825 275.144 194.154C274.935 194.484 274.631 194.743 274.232 194.933C273.833 195.124 273.311 195.219 272.665 195.219ZM283.551 195.209C282.722 195.209 282.06 195.086 281.566 194.838C281.078 194.585 280.727 194.208 280.511 193.708C280.296 193.208 280.188 192.59 280.188 191.855V186.64H283.076V191.39C283.076 191.846 283.178 192.182 283.38 192.397C283.589 192.606 283.976 192.71 284.539 192.71C284.85 192.71 285.157 192.676 285.461 192.606C285.765 192.536 286.04 192.448 286.287 192.34L286.04 194.743C285.717 194.883 285.344 194.994 284.919 195.076C284.501 195.165 284.045 195.209 283.551 195.209ZM278.934 187.979V185.699H286.202L285.945 187.979H278.934ZM280.226 185.908L280.217 183.495L283.095 183.22L282.991 185.908H280.226ZM287.147 195V185.661H290.054V195H287.147ZM288.601 184.778C288.056 184.778 287.66 184.654 287.413 184.407C287.166 184.154 287.043 183.815 287.043 183.391V183.324C287.043 182.9 287.166 182.564 287.413 182.317C287.66 182.07 288.056 181.947 288.601 181.947C289.133 181.947 289.522 182.07 289.769 182.317C290.023 182.564 290.149 182.9 290.149 183.324V183.391C290.149 183.822 290.023 184.16 289.769 184.407C289.522 184.654 289.133 184.778 288.601 184.778ZM295.847 195.266C294.339 195.266 293.199 194.892 292.427 194.145C291.66 193.391 291.277 192.334 291.277 190.972V189.746C291.277 188.366 291.664 187.295 292.436 186.535C293.209 185.769 294.346 185.386 295.847 185.386C297.348 185.386 298.481 185.769 299.248 186.535C300.02 187.295 300.407 188.366 300.407 189.746V190.972C300.407 192.334 300.024 193.391 299.257 194.145C298.491 194.892 297.354 195.266 295.847 195.266ZM295.847 192.976C296.385 192.976 296.794 192.815 297.072 192.492C297.357 192.163 297.5 191.697 297.5 191.095V189.623C297.5 188.99 297.357 188.508 297.072 188.179C296.794 187.85 296.385 187.685 295.847 187.685C295.308 187.685 294.897 187.85 294.612 188.179C294.333 188.508 294.194 188.99 294.194 189.623V191.095C294.194 191.697 294.333 192.163 294.612 192.492C294.897 192.815 295.308 192.976 295.847 192.976ZM307.634 195V189.509C307.634 189.167 307.59 188.872 307.501 188.625C307.412 188.372 307.263 188.179 307.054 188.046C306.845 187.913 306.56 187.846 306.199 187.846C305.902 187.846 305.639 187.9 305.411 188.008C305.183 188.109 304.99 188.252 304.831 188.435C304.679 188.613 304.565 188.815 304.489 189.043L304.043 187.685H304.537C304.638 187.261 304.803 186.881 305.031 186.545C305.265 186.209 305.585 185.943 305.99 185.747C306.396 185.544 306.909 185.443 307.529 185.443C308.226 185.443 308.796 185.579 309.239 185.851C309.683 186.117 310.009 186.516 310.218 187.048C310.433 187.58 310.541 188.245 310.541 189.043V195H307.634ZM301.63 195V185.661H304.518L304.423 187.998L304.537 188.274V195H301.63ZM315.337 195.228C314.596 195.228 313.927 195.162 313.332 195.029C312.737 194.902 312.227 194.753 311.803 194.582L311.556 192.14C312.043 192.343 312.582 192.527 313.171 192.691C313.766 192.85 314.409 192.929 315.099 192.929C315.65 192.929 316.04 192.872 316.268 192.758C316.502 192.638 316.619 192.454 316.619 192.207V192.169C316.619 191.998 316.559 191.859 316.439 191.751C316.325 191.637 316.122 191.536 315.831 191.447C315.546 191.358 315.143 191.254 314.624 191.133C313.845 190.95 313.228 190.734 312.772 190.487C312.316 190.234 311.989 189.927 311.793 189.566C311.603 189.199 311.508 188.765 311.508 188.264V188.188C311.508 187.264 311.837 186.573 312.496 186.117C313.155 185.655 314.124 185.424 315.403 185.424C316.125 185.424 316.774 185.49 317.351 185.623C317.927 185.756 318.411 185.915 318.804 186.098L319.051 188.369C318.595 188.166 318.085 187.998 317.522 187.865C316.964 187.732 316.378 187.666 315.764 187.666C315.39 187.666 315.096 187.691 314.881 187.742C314.672 187.793 314.523 187.865 314.434 187.96C314.352 188.055 314.311 188.173 314.311 188.312V188.34C314.311 188.492 314.361 188.622 314.463 188.73C314.564 188.838 314.748 188.939 315.014 189.034C315.286 189.129 315.675 189.237 316.182 189.357C316.967 189.528 317.601 189.724 318.082 189.946C318.563 190.161 318.915 190.443 319.137 190.791C319.358 191.133 319.469 191.589 319.469 192.159V192.245C319.469 193.252 319.13 194.002 318.453 194.496C317.775 194.984 316.736 195.228 315.337 195.228ZM225.862 214.266C224.133 214.266 222.844 213.81 221.995 212.898C221.153 211.98 220.732 210.672 220.732 208.974V206.818C220.732 205.152 221.156 203.867 222.005 202.961C222.853 202.049 224.133 201.593 225.843 201.593C226.299 201.593 226.72 201.628 227.106 201.697C227.492 201.767 227.844 201.862 228.161 201.982C228.477 202.096 228.756 202.226 228.997 202.372L229.215 204.918C228.841 204.722 228.43 204.551 227.98 204.405C227.537 204.253 227.021 204.177 226.432 204.177C225.526 204.177 224.855 204.421 224.418 204.908C223.987 205.39 223.772 206.067 223.772 206.941V208.86C223.772 209.728 223.99 210.406 224.427 210.893C224.87 211.381 225.577 211.625 226.546 211.625C227.116 211.625 227.625 211.549 228.075 211.397C228.525 211.245 228.936 211.061 229.31 210.846L229.092 213.449C228.851 213.595 228.569 213.731 228.246 213.857C227.923 213.978 227.562 214.076 227.163 214.152C226.77 214.228 226.337 214.266 225.862 214.266ZM230.451 214V201.45H233.358V214H230.451ZM239.15 214.266C237.643 214.266 236.503 213.892 235.73 213.145C234.964 212.391 234.581 211.334 234.581 209.972V208.746C234.581 207.366 234.967 206.295 235.74 205.535C236.513 204.769 237.649 204.386 239.15 204.386C240.651 204.386 241.785 204.769 242.551 205.535C243.324 206.295 243.71 207.366 243.71 208.746V209.972C243.71 211.334 243.327 212.391 242.561 213.145C241.795 213.892 240.658 214.266 239.15 214.266ZM239.15 211.976C239.689 211.976 240.097 211.815 240.376 211.492C240.661 211.163 240.803 210.697 240.803 210.095V208.623C240.803 207.99 240.661 207.508 240.376 207.179C240.097 206.85 239.689 206.685 239.15 206.685C238.612 206.685 238.2 206.85 237.915 207.179C237.637 207.508 237.497 207.99 237.497 208.623V210.095C237.497 210.697 237.637 211.163 237.915 211.492C238.2 211.815 238.612 211.976 239.15 211.976ZM248.258 214.228C247.517 214.228 246.849 214.162 246.254 214.029C245.659 213.902 245.149 213.753 244.724 213.582L244.477 211.14C244.965 211.343 245.503 211.527 246.092 211.691C246.688 211.85 247.331 211.929 248.021 211.929C248.572 211.929 248.961 211.872 249.189 211.758C249.424 211.638 249.541 211.454 249.541 211.207V211.169C249.541 210.998 249.481 210.859 249.36 210.751C249.246 210.637 249.044 210.536 248.752 210.447C248.467 210.358 248.065 210.254 247.546 210.133C246.767 209.95 246.149 209.734 245.693 209.487C245.237 209.234 244.911 208.927 244.715 208.566C244.525 208.199 244.43 207.765 244.43 207.264V207.188C244.43 206.264 244.759 205.573 245.418 205.117C246.077 204.655 247.046 204.424 248.325 204.424C249.047 204.424 249.696 204.49 250.272 204.623C250.849 204.756 251.333 204.915 251.726 205.098L251.973 207.369C251.517 207.166 251.007 206.998 250.443 206.865C249.886 206.732 249.3 206.666 248.686 206.666C248.312 206.666 248.018 206.691 247.802 206.742C247.593 206.793 247.445 206.865 247.356 206.96C247.274 207.055 247.232 207.173 247.232 207.312V207.34C247.232 207.492 247.283 207.622 247.384 207.73C247.486 207.838 247.669 207.939 247.935 208.034C248.208 208.129 248.597 208.237 249.104 208.357C249.889 208.528 250.523 208.724 251.004 208.946C251.485 209.161 251.837 209.443 252.058 209.791C252.28 210.133 252.391 210.589 252.391 211.159V211.245C252.391 212.252 252.052 213.002 251.374 213.496C250.697 213.984 249.658 214.228 248.258 214.228ZM258.022 214.238C256.324 214.238 255.07 213.861 254.26 213.107C253.449 212.347 253.044 211.242 253.044 209.791V208.822C253.044 207.391 253.424 206.295 254.184 205.535C254.944 204.769 256.049 204.386 257.499 204.386C258.474 204.386 259.285 204.554 259.931 204.889C260.583 205.219 261.071 205.691 261.394 206.305C261.723 206.919 261.888 207.657 261.888 208.518V208.832C261.888 209.073 261.875 209.32 261.85 209.573C261.831 209.82 261.803 210.051 261.765 210.266H259.143C259.168 209.899 259.184 209.554 259.19 209.231C259.196 208.902 259.2 208.604 259.2 208.338C259.2 207.952 259.139 207.629 259.019 207.369C258.899 207.103 258.712 206.9 258.459 206.761C258.212 206.622 257.892 206.552 257.499 206.552C256.916 206.552 256.489 206.71 256.217 207.027C255.951 207.337 255.818 207.781 255.818 208.357V209.212L255.837 209.525V210.19C255.837 210.431 255.875 210.659 255.951 210.874C256.033 211.09 256.172 211.28 256.369 211.444C256.571 211.603 256.847 211.729 257.195 211.824C257.55 211.913 257.999 211.957 258.544 211.957C259.12 211.957 259.675 211.904 260.207 211.796C260.739 211.682 261.248 211.53 261.736 211.34L261.499 213.525C261.068 213.747 260.558 213.921 259.969 214.048C259.38 214.174 258.731 214.238 258.022 214.238ZM254.583 210.266V208.471H261.176V210.266H254.583Z" fill="#3B3A40"/>
<path d="M222.945 240V230.851H222.822L220.333 231.991L220.409 229.198L223.297 227.859H225.9V240H222.945ZM231.423 240.257C230.606 240.257 229.877 240.181 229.238 240.029C228.604 239.876 228.107 239.718 227.746 239.553L227.49 236.903C227.781 237.036 228.117 237.166 228.497 237.292C228.883 237.419 229.301 237.524 229.751 237.606C230.2 237.682 230.666 237.72 231.147 237.72C231.749 237.72 232.221 237.653 232.563 237.52C232.905 237.387 233.145 237.197 233.285 236.95C233.424 236.697 233.494 236.393 233.494 236.038V235.772C233.494 235.297 233.376 234.936 233.142 234.689C232.908 234.436 232.528 234.309 232.002 234.309C231.533 234.309 231.144 234.414 230.834 234.623C230.523 234.826 230.273 235.082 230.083 235.392L227.547 235.003V227.859H235.945V230.31H230.292V232.219L230.264 233.777H230.359C230.561 233.252 230.887 232.831 231.337 232.514C231.787 232.197 232.42 232.039 233.237 232.039C234.314 232.039 235.105 232.362 235.612 233.008C236.119 233.648 236.372 234.544 236.372 235.696V236.095C236.372 236.944 236.214 237.682 235.897 238.309C235.58 238.93 235.061 239.411 234.339 239.753C233.617 240.089 232.645 240.257 231.423 240.257ZM240.465 240V227.859H243.419V240H240.465ZM242.165 235.772V233.274H248.464V235.772H242.165ZM241.32 230.357V227.859H248.606V230.357H241.32ZM254.403 240.238C252.706 240.238 251.452 239.861 250.641 239.107C249.831 238.347 249.425 237.242 249.425 235.791V234.822C249.425 233.391 249.805 232.295 250.565 231.535C251.325 230.769 252.431 230.386 253.881 230.386C254.856 230.386 255.667 230.554 256.313 230.889C256.965 231.219 257.453 231.691 257.776 232.305C258.105 232.919 258.27 233.657 258.27 234.518V234.832C258.27 235.073 258.257 235.32 258.232 235.573C258.213 235.82 258.184 236.051 258.146 236.266H255.524C255.55 235.899 255.566 235.554 255.572 235.231C255.578 234.902 255.581 234.604 255.581 234.338C255.581 233.952 255.521 233.629 255.401 233.369C255.281 233.103 255.094 232.9 254.84 232.761C254.593 232.622 254.274 232.552 253.881 232.552C253.298 232.552 252.871 232.71 252.598 233.027C252.332 233.337 252.199 233.781 252.199 234.357V235.212L252.218 235.525V236.19C252.218 236.431 252.256 236.659 252.332 236.874C252.415 237.09 252.554 237.28 252.75 237.444C252.953 237.603 253.229 237.729 253.577 237.824C253.932 237.913 254.381 237.957 254.926 237.957C255.502 237.957 256.056 237.904 256.588 237.796C257.12 237.682 257.63 237.53 258.118 237.34L257.88 239.525C257.45 239.747 256.94 239.921 256.351 240.048C255.762 240.174 255.113 240.238 254.403 240.238ZM250.964 236.266V234.471H257.557V236.266H250.964ZM265.172 240.219C264.615 240.219 264.146 240.127 263.766 239.943C263.386 239.759 263.082 239.5 262.854 239.164C262.626 238.822 262.465 238.426 262.37 237.976H261.619L262.313 236.019C262.325 236.406 262.401 236.732 262.541 236.998C262.68 237.264 262.879 237.47 263.139 237.615C263.399 237.755 263.703 237.824 264.051 237.824C264.583 237.824 264.985 237.669 265.258 237.359C265.53 237.042 265.666 236.57 265.666 235.943V234.623C265.666 234.002 265.53 233.537 265.258 233.226C264.992 232.916 264.593 232.761 264.061 232.761C263.763 232.761 263.491 232.818 263.244 232.932C263.003 233.046 262.797 233.198 262.626 233.388C262.461 233.572 262.341 233.784 262.265 234.024L261.61 232.685H262.408C262.503 232.267 262.658 231.89 262.873 231.554C263.088 231.212 263.389 230.943 263.776 230.747C264.168 230.544 264.665 230.443 265.267 230.443C266.356 230.443 267.18 230.801 267.737 231.516C268.301 232.226 268.583 233.293 268.583 234.718V235.858C268.583 237.296 268.301 238.382 267.737 239.116C267.173 239.851 266.318 240.219 265.172 240.219ZM259.463 240V227.45H262.351V230.243L262.303 233.236L262.313 233.492V237.074L262.265 237.634L262.351 240H259.463ZM272.694 234.756L271.896 232.989H272.58C272.732 232.216 273.027 231.611 273.464 231.174C273.907 230.731 274.531 230.509 275.335 230.509C275.475 230.509 275.601 230.519 275.715 230.538C275.836 230.557 275.95 230.579 276.057 230.604L276.2 233.54C276.067 233.502 275.912 233.477 275.734 233.464C275.557 233.445 275.376 233.435 275.193 233.435C274.572 233.435 274.05 233.553 273.625 233.787C273.201 234.015 272.891 234.338 272.694 234.756ZM269.844 240V230.661H272.58L272.457 233.644L272.751 233.682V240H269.844ZM279.819 230.661V236.152C279.819 236.494 279.863 236.792 279.952 237.045C280.041 237.292 280.189 237.486 280.398 237.625C280.607 237.758 280.892 237.824 281.253 237.824C281.557 237.824 281.82 237.771 282.042 237.663C282.27 237.555 282.46 237.41 282.612 237.226C282.77 237.042 282.887 236.84 282.963 236.618L283.41 237.976H282.916C282.815 238.394 282.647 238.774 282.412 239.116C282.184 239.458 281.868 239.728 281.462 239.924C281.063 240.12 280.55 240.219 279.923 240.219C279.233 240.219 278.663 240.086 278.213 239.819C277.77 239.547 277.441 239.145 277.225 238.613C277.016 238.081 276.912 237.416 276.912 236.618V230.661H279.819ZM285.823 230.661V240H282.935L283.03 237.663L282.916 237.397V230.661H285.823ZM292.728 240L292.813 237.663L292.747 237.52V234.604L292.728 234.224C292.728 233.705 292.576 233.321 292.272 233.074C291.968 232.827 291.458 232.704 290.742 232.704C290.115 232.704 289.52 232.783 288.956 232.941C288.393 233.1 287.861 233.28 287.36 233.483L287.607 231.231C287.905 231.092 288.237 230.962 288.605 230.842C288.978 230.715 289.39 230.614 289.84 230.538C290.289 230.462 290.771 230.424 291.284 230.424C292.101 230.424 292.785 230.519 293.336 230.709C293.887 230.899 294.327 231.168 294.656 231.516C294.986 231.865 295.223 232.283 295.369 232.77C295.514 233.252 295.587 233.784 295.587 234.366V240H292.728ZM289.754 240.219C288.823 240.219 288.117 239.984 287.636 239.515C287.154 239.047 286.914 238.379 286.914 237.511V237.254C286.914 236.336 287.196 235.658 287.759 235.221C288.329 234.778 289.232 234.477 290.467 234.319L292.975 233.986L293.146 235.734L290.923 236.057C290.473 236.114 290.156 236.219 289.973 236.371C289.789 236.523 289.697 236.748 289.697 237.045V237.112C289.697 237.397 289.789 237.625 289.973 237.796C290.156 237.961 290.451 238.043 290.856 238.043C291.211 238.043 291.515 237.989 291.768 237.881C292.028 237.774 292.24 237.634 292.405 237.463C292.569 237.286 292.693 237.09 292.775 236.874L293.184 238.052H292.709C292.607 238.458 292.449 238.825 292.234 239.154C292.025 239.484 291.721 239.743 291.322 239.933C290.923 240.124 290.4 240.219 289.754 240.219ZM299.869 234.756L299.071 232.989H299.755C299.907 232.216 300.201 231.611 300.638 231.174C301.082 230.731 301.705 230.509 302.51 230.509C302.649 230.509 302.776 230.519 302.89 230.538C303.01 230.557 303.124 230.579 303.232 230.604L303.374 233.54C303.241 233.502 303.086 233.477 302.909 233.464C302.731 233.445 302.551 233.435 302.367 233.435C301.747 233.435 301.224 233.553 300.8 233.787C300.375 234.015 300.065 234.338 299.869 234.756ZM297.019 240V230.661H299.755L299.631 233.644L299.926 233.682V240H297.019ZM309.622 237.672L308.064 238.347L310.164 230.661H313.137L309.328 243.268H306.421L307.874 238.518L309.242 239.601H306.022L303.495 230.661H306.487L308.102 237.672H309.622ZM315.653 236.903C315.678 237.055 315.7 237.229 315.719 237.425C315.738 237.615 315.748 237.821 315.748 238.043C315.748 238.86 315.624 239.614 315.377 240.304C315.13 241.001 314.725 241.666 314.161 242.299L312.166 241.834C312.451 241.308 312.667 240.747 312.812 240.152C312.964 239.557 313.04 238.892 313.04 238.157C313.04 237.935 313.034 237.726 313.021 237.53C313.015 237.334 312.999 237.125 312.974 236.903H315.653ZM319.396 240V237.321L322.369 234.737C322.87 234.3 323.281 233.917 323.604 233.587C323.934 233.258 324.181 232.945 324.345 232.647C324.51 232.349 324.592 232.036 324.592 231.706V231.621C324.592 231.323 324.529 231.067 324.402 230.851C324.276 230.63 324.064 230.459 323.766 230.338C323.475 230.218 323.085 230.158 322.597 230.158C321.996 230.158 321.429 230.247 320.897 230.424C320.365 230.595 319.893 230.785 319.481 230.994L319.738 228.429C320.01 228.283 320.324 228.15 320.678 228.03C321.039 227.903 321.442 227.802 321.885 227.726C322.335 227.65 322.822 227.612 323.348 227.612C324.767 227.612 325.834 227.929 326.549 228.562C327.265 229.195 327.623 230.082 327.623 231.222V231.355C327.623 231.95 327.531 232.485 327.347 232.96C327.164 233.435 326.879 233.898 326.492 234.347C326.112 234.791 325.622 235.275 325.02 235.801L323.224 237.397V237.938L321.951 237.501H327.746V240H319.396ZM333.612 240.266C331.965 240.266 330.718 239.829 329.869 238.955C329.027 238.081 328.605 236.798 328.605 235.107V232.742C328.605 231.064 329.027 229.787 329.869 228.913C330.711 228.039 331.959 227.602 333.612 227.602C335.265 227.602 336.513 228.039 337.355 228.913C338.204 229.787 338.628 231.064 338.628 232.742V235.107C338.628 236.798 338.204 238.081 337.355 238.955C336.513 239.829 335.265 240.266 333.612 240.266ZM333.612 237.815C334.302 237.815 334.806 237.596 335.122 237.159C335.439 236.722 335.597 236.083 335.597 235.24V232.628C335.597 231.779 335.439 231.14 335.122 230.709C334.806 230.272 334.302 230.053 333.612 230.053C332.922 230.053 332.418 230.272 332.101 230.709C331.791 231.14 331.636 231.779 331.636 232.628V235.24C331.636 236.083 331.794 236.722 332.111 237.159C332.434 237.596 332.934 237.815 333.612 237.815ZM339.417 240V237.321L342.391 234.737C342.891 234.3 343.303 233.917 343.626 233.587C343.955 233.258 344.202 232.945 344.367 232.647C344.531 232.349 344.614 232.036 344.614 231.706V231.621C344.614 231.323 344.55 231.067 344.424 230.851C344.297 230.63 344.085 230.459 343.787 230.338C343.496 230.218 343.106 230.158 342.619 230.158C342.017 230.158 341.45 230.247 340.918 230.424C340.386 230.595 339.914 230.785 339.503 230.994L339.759 228.429C340.032 228.283 340.345 228.15 340.7 228.03C341.061 227.903 341.463 227.802 341.906 227.726C342.356 227.65 342.844 227.612 343.369 227.612C344.788 227.612 345.855 227.929 346.571 228.562C347.286 229.195 347.644 230.082 347.644 231.222V231.355C347.644 231.95 347.552 232.485 347.369 232.96C347.185 233.435 346.9 233.898 346.514 234.347C346.134 234.791 345.643 235.275 345.041 235.801L343.246 237.397V237.938L341.973 237.501H347.768V240H339.417ZM354.018 240V233.046L354.132 229.892H353.904L351.016 235.402V236.58L349.885 235.563H358.198V237.976H348.147V235.231L352.156 227.859H356.839V240H354.018Z" fill="#FF7246"/>
<circle cx="376" cy="194" r="14" fill="#FF7C5C"/>
<path d="M216.923 403L216.686 400.71C216.648 400.305 216.568 399.976 216.448 399.722C216.328 399.463 216.144 399.273 215.897 399.152C215.65 399.026 215.321 398.962 214.909 398.962L212.164 398.953V396.682L215.023 396.673C215.644 396.673 216.09 396.537 216.363 396.264C216.635 395.992 216.771 395.584 216.771 395.039V394.849C216.771 394.311 216.635 393.908 216.363 393.642C216.097 393.37 215.647 393.234 215.014 393.234H212.145V390.859H215.441C216.929 390.859 218.016 391.147 218.7 391.723C219.39 392.3 219.735 393.129 219.735 394.212V394.459C219.735 395.276 219.526 395.913 219.108 396.369C218.69 396.825 218.054 397.085 217.199 397.148V397.566L216.591 397.157C217.325 397.208 217.895 397.36 218.301 397.613C218.706 397.867 219.004 398.221 219.194 398.677C219.39 399.127 219.532 399.688 219.621 400.359L219.973 403H216.923ZM210.102 403V390.859H212.99V397.499L213.009 398.601V403H210.102ZM225.079 403.266C223.572 403.266 222.432 402.892 221.659 402.145C220.893 401.391 220.51 400.334 220.51 398.972V397.746C220.51 396.366 220.896 395.295 221.669 394.535C222.441 393.769 223.578 393.386 225.079 393.386C226.58 393.386 227.714 393.769 228.48 394.535C229.253 395.295 229.639 396.366 229.639 397.746V398.972C229.639 400.334 229.256 401.391 228.49 402.145C227.723 402.892 226.587 403.266 225.079 403.266ZM225.079 400.976C225.618 400.976 226.026 400.815 226.305 400.492C226.59 400.163 226.732 399.697 226.732 399.095V397.623C226.732 396.99 226.59 396.508 226.305 396.179C226.026 395.85 225.618 395.685 225.079 395.685C224.541 395.685 224.129 395.85 223.844 396.179C223.566 396.508 223.426 396.99 223.426 397.623V399.095C223.426 399.697 223.566 400.163 223.844 400.492C224.129 400.815 224.541 400.976 225.079 400.976ZM230.872 403V390.45H233.779V403H230.872ZM235.39 403V390.45H238.297V403H235.39ZM239.872 403V393.661H242.779V403H239.872ZM241.325 392.778C240.78 392.778 240.385 392.654 240.138 392.407C239.891 392.154 239.767 391.815 239.767 391.391V391.324C239.767 390.9 239.891 390.564 240.138 390.317C240.385 390.07 240.78 389.947 241.325 389.947C241.857 389.947 242.247 390.07 242.494 390.317C242.747 390.564 242.874 390.9 242.874 391.324V391.391C242.874 391.822 242.747 392.16 242.494 392.407C242.247 392.654 241.857 392.778 241.325 392.778ZM250.347 403V397.509C250.347 397.167 250.303 396.872 250.214 396.625C250.126 396.372 249.977 396.179 249.768 396.046C249.559 395.913 249.274 395.846 248.913 395.846C248.615 395.846 248.352 395.9 248.124 396.008C247.896 396.109 247.703 396.252 247.545 396.435C247.393 396.613 247.279 396.815 247.203 397.043L246.756 395.685H247.25C247.352 395.261 247.516 394.881 247.744 394.545C247.979 394.209 248.299 393.943 248.704 393.747C249.109 393.544 249.622 393.443 250.243 393.443C250.94 393.443 251.51 393.579 251.953 393.851C252.396 394.117 252.722 394.516 252.931 395.048C253.147 395.58 253.254 396.245 253.254 397.043V403H250.347ZM244.343 403V393.661H247.231L247.136 395.998L247.25 396.274V403H244.343ZM258.858 400.093C257.357 400.093 256.229 399.814 255.476 399.257C254.722 398.7 254.345 397.917 254.345 396.91V396.787C254.345 396.103 254.497 395.527 254.801 395.058C255.111 394.583 255.586 394.216 256.226 393.956C256.866 393.696 257.686 393.541 258.687 393.49L263.674 393.262V395.314L261.195 395.248V395.343C261.619 395.413 261.967 395.533 262.24 395.704C262.518 395.869 262.724 396.087 262.857 396.359C262.996 396.625 263.066 396.955 263.066 397.347V397.414C263.066 398.282 262.721 398.947 262.031 399.409C261.347 399.865 260.289 400.093 258.858 400.093ZM258.715 404.511H259C259.456 404.511 259.823 404.482 260.102 404.425C260.387 404.368 260.596 404.283 260.729 404.169C260.862 404.055 260.929 403.912 260.929 403.741V403.722C260.929 403.5 260.834 403.342 260.644 403.247C260.46 403.152 260.181 403.089 259.808 403.057L257.053 402.781L257.689 402.743C257.499 402.775 257.334 402.829 257.195 402.905C257.062 402.981 256.954 403.076 256.872 403.19C256.796 403.304 256.758 403.443 256.758 403.608V403.627C256.758 403.817 256.828 403.979 256.967 404.112C257.106 404.245 257.319 404.343 257.604 404.406C257.895 404.476 258.265 404.511 258.715 404.511ZM258.573 406.639C257.635 406.639 256.834 406.563 256.169 406.411C255.51 406.265 255.01 406.031 254.668 405.708C254.326 405.385 254.155 404.957 254.155 404.425V404.387C254.155 404.026 254.234 403.722 254.393 403.475C254.551 403.228 254.779 403.035 255.077 402.895C255.374 402.756 255.723 402.671 256.122 402.639V402.544C255.634 402.455 255.257 402.3 254.991 402.078C254.731 401.857 254.602 401.546 254.602 401.147V401.138C254.602 400.853 254.665 400.612 254.792 400.416C254.925 400.22 255.118 400.071 255.371 399.969C255.624 399.862 255.935 399.798 256.302 399.779V399.466L258.449 400.007L257.822 399.998C257.6 399.998 257.442 400.026 257.347 400.083C257.258 400.14 257.214 400.226 257.214 400.34V400.349C257.214 400.489 257.287 400.59 257.433 400.653C257.585 400.71 257.828 400.758 258.164 400.796L260.378 401.052C261.454 401.179 262.255 401.445 262.781 401.85C263.307 402.256 263.57 402.883 263.57 403.732V403.789C263.57 404.435 263.386 404.967 263.019 405.385C262.658 405.809 262.132 406.122 261.442 406.325C260.758 406.534 259.922 406.639 258.934 406.639H258.573ZM258.763 398.136C259.136 398.136 259.443 398.088 259.684 397.993C259.931 397.892 260.115 397.746 260.235 397.556C260.362 397.36 260.425 397.126 260.425 396.853V396.768C260.425 396.496 260.365 396.264 260.245 396.074C260.124 395.884 259.941 395.742 259.694 395.647C259.453 395.546 259.143 395.495 258.763 395.495H258.753C258.367 395.495 258.05 395.546 257.803 395.647C257.556 395.748 257.372 395.894 257.252 396.084C257.138 396.274 257.081 396.505 257.081 396.777V396.853C257.081 397.126 257.141 397.36 257.262 397.556C257.388 397.746 257.575 397.892 257.822 397.993C258.069 398.088 258.383 398.136 258.763 398.136Z" fill="#FF7246"/>
<path d="M213.085 380H210.102V367.859H213.085V380ZM220.788 380V374.509C220.788 374.167 220.744 373.872 220.655 373.625C220.567 373.372 220.418 373.179 220.209 373.046C220 372.913 219.715 372.846 219.354 372.846C219.056 372.846 218.793 372.9 218.565 373.008C218.337 373.109 218.144 373.252 217.986 373.435C217.834 373.613 217.72 373.815 217.644 374.043L217.197 372.685H217.691C217.793 372.261 217.957 371.881 218.185 371.545C218.42 371.209 218.739 370.943 219.145 370.747C219.55 370.544 220.063 370.443 220.684 370.443C221.38 370.443 221.95 370.579 222.394 370.851C222.837 371.117 223.163 371.516 223.372 372.048C223.588 372.58 223.695 373.245 223.695 374.043V380H220.788ZM214.784 380V370.661H217.672L217.577 372.998L217.691 373.274V380H214.784ZM228.862 380.209C228.033 380.209 227.371 380.086 226.877 379.838C226.389 379.585 226.038 379.208 225.822 378.708C225.607 378.208 225.499 377.59 225.499 376.855V371.64H228.387V376.39C228.387 376.846 228.489 377.182 228.691 377.397C228.9 377.606 229.287 377.71 229.85 377.71C230.161 377.71 230.468 377.676 230.772 377.606C231.076 377.536 231.351 377.448 231.598 377.34L231.351 379.743C231.028 379.883 230.655 379.994 230.23 380.076C229.812 380.165 229.356 380.209 228.862 380.209ZM224.245 372.979V370.699H231.513L231.256 372.979H224.245ZM225.537 370.908L225.528 368.495L228.406 368.22L228.302 370.908H225.537ZM236.955 380.238C235.258 380.238 234.004 379.861 233.193 379.107C232.383 378.347 231.977 377.242 231.977 375.791V374.822C231.977 373.391 232.357 372.295 233.117 371.535C233.877 370.769 234.982 370.386 236.433 370.386C237.408 370.386 238.219 370.554 238.865 370.889C239.517 371.219 240.005 371.691 240.328 372.305C240.657 372.919 240.822 373.657 240.822 374.518V374.832C240.822 375.073 240.809 375.32 240.784 375.573C240.765 375.82 240.736 376.051 240.698 376.266H238.076C238.102 375.899 238.117 375.554 238.124 375.231C238.13 374.902 238.133 374.604 238.133 374.338C238.133 373.952 238.073 373.629 237.953 373.369C237.832 373.103 237.646 372.9 237.392 372.761C237.145 372.622 236.825 372.552 236.433 372.552C235.85 372.552 235.423 372.71 235.15 373.027C234.884 373.337 234.751 373.781 234.751 374.357V375.212L234.77 375.525V376.19C234.77 376.431 234.808 376.659 234.884 376.874C234.967 377.09 235.106 377.28 235.302 377.444C235.505 377.603 235.78 377.729 236.129 377.824C236.483 377.913 236.933 377.957 237.478 377.957C238.054 377.957 238.608 377.904 239.14 377.796C239.672 377.682 240.182 377.53 240.67 377.34L240.432 379.525C240.002 379.747 239.492 379.921 238.903 380.048C238.314 380.174 237.665 380.238 236.955 380.238ZM233.516 376.266V374.471H240.109V376.266H233.516ZM244.864 374.756L244.066 372.989H244.75C244.902 372.216 245.197 371.611 245.634 371.174C246.077 370.731 246.701 370.509 247.505 370.509C247.645 370.509 247.771 370.519 247.885 370.538C248.006 370.557 248.12 370.579 248.227 370.604L248.37 373.54C248.237 373.502 248.082 373.477 247.904 373.464C247.727 373.445 247.547 373.435 247.363 373.435C246.742 373.435 246.22 373.553 245.795 373.787C245.371 374.015 245.061 374.338 244.864 374.756ZM242.014 380V370.661H244.75L244.627 373.644L244.921 373.682V380H242.014ZM253.44 378.1L255.14 370.661H258.123L255.644 380H250.989L248.49 370.661H251.492L253.212 378.1H253.44ZM258.909 380V370.661H261.816V380H258.909ZM260.363 369.778C259.818 369.778 259.422 369.654 259.175 369.407C258.928 369.154 258.805 368.815 258.805 368.391V368.324C258.805 367.9 258.928 367.564 259.175 367.317C259.422 367.07 259.818 366.947 260.363 366.947C260.895 366.947 261.284 367.07 261.531 367.317C261.785 367.564 261.911 367.9 261.911 368.324V368.391C261.911 368.822 261.785 369.16 261.531 369.407C261.284 369.654 260.895 369.778 260.363 369.778ZM268.017 380.238C266.32 380.238 265.066 379.861 264.255 379.107C263.445 378.347 263.039 377.242 263.039 375.791V374.822C263.039 373.391 263.419 372.295 264.179 371.535C264.939 370.769 266.044 370.386 267.495 370.386C268.47 370.386 269.281 370.554 269.927 370.889C270.579 371.219 271.067 371.691 271.39 372.305C271.719 372.919 271.884 373.657 271.884 374.518V374.832C271.884 375.073 271.871 375.32 271.846 375.573C271.827 375.82 271.798 376.051 271.76 376.266H269.138C269.164 375.899 269.179 375.554 269.186 375.231C269.192 374.902 269.195 374.604 269.195 374.338C269.195 373.952 269.135 373.629 269.015 373.369C268.894 373.103 268.708 372.9 268.454 372.761C268.207 372.622 267.887 372.552 267.495 372.552C266.912 372.552 266.485 372.71 266.212 373.027C265.946 373.337 265.813 373.781 265.813 374.357V375.212L265.832 375.525V376.19C265.832 376.431 265.87 376.659 265.946 376.874C266.029 377.09 266.168 377.28 266.364 377.444C266.567 377.603 266.842 377.729 267.191 377.824C267.545 377.913 267.995 377.957 268.54 377.957C269.116 377.957 269.67 377.904 270.202 377.796C270.734 377.682 271.244 377.53 271.732 377.34L271.494 379.525C271.064 379.747 270.554 379.921 269.965 380.048C269.376 380.174 268.727 380.238 268.017 380.238ZM264.578 376.266V374.471H271.171V376.266H264.578ZM274.133 380L272.262 370.661H275.207L276.366 377.948H276.537L277.677 370.889H281.23L282.389 377.948H282.55L283.719 370.661H286.635L284.764 380H280.631L279.691 374.053L279.529 373.008H279.396L279.225 374.053L278.285 380H274.133ZM290.772 380.228C290.031 380.228 289.363 380.162 288.768 380.029C288.173 379.902 287.663 379.753 287.238 379.582L286.991 377.14C287.479 377.343 288.017 377.527 288.606 377.691C289.202 377.85 289.845 377.929 290.535 377.929C291.086 377.929 291.475 377.872 291.703 377.758C291.938 377.638 292.055 377.454 292.055 377.207V377.169C292.055 376.998 291.995 376.859 291.874 376.751C291.76 376.637 291.558 376.536 291.266 376.447C290.981 376.358 290.579 376.254 290.06 376.133C289.281 375.95 288.663 375.734 288.207 375.487C287.751 375.234 287.425 374.927 287.229 374.566C287.039 374.199 286.944 373.765 286.944 373.264V373.188C286.944 372.264 287.273 371.573 287.932 371.117C288.591 370.655 289.56 370.424 290.839 370.424C291.561 370.424 292.21 370.49 292.786 370.623C293.363 370.756 293.847 370.915 294.24 371.098L294.487 373.369C294.031 373.166 293.521 372.998 292.957 372.865C292.4 372.732 291.814 372.666 291.2 372.666C290.826 372.666 290.532 372.691 290.316 372.742C290.107 372.793 289.959 372.865 289.87 372.96C289.788 373.055 289.746 373.173 289.746 373.312V373.34C289.746 373.492 289.797 373.622 289.898 373.73C290 373.838 290.183 373.939 290.449 374.034C290.722 374.129 291.111 374.237 291.618 374.357C292.403 374.528 293.037 374.724 293.518 374.946C293.999 375.161 294.351 375.443 294.572 375.791C294.794 376.133 294.905 376.589 294.905 377.159V377.245C294.905 378.252 294.566 379.002 293.888 379.496C293.211 379.984 292.172 380.228 290.772 380.228Z" fill="#3B3A40"/>
<circle cx="180" cy="371" r="14" fill="#FF7C5C"/>
<path d="M116.523 585V582.321L119.496 579.737C119.996 579.3 120.408 578.917 120.731 578.587C121.06 578.258 121.307 577.945 121.472 577.647C121.637 577.349 121.719 577.036 121.719 576.706V576.621C121.719 576.323 121.656 576.067 121.529 575.851C121.402 575.63 121.19 575.459 120.893 575.338C120.601 575.218 120.212 575.158 119.724 575.158C119.122 575.158 118.556 575.247 118.024 575.424C117.492 575.595 117.02 575.785 116.608 575.994L116.865 573.429C117.137 573.283 117.45 573.15 117.805 573.03C118.166 572.903 118.568 572.802 119.012 572.726C119.461 572.65 119.949 572.612 120.475 572.612C121.893 572.612 122.96 572.929 123.676 573.562C124.392 574.195 124.75 575.082 124.75 576.222V576.355C124.75 576.95 124.658 577.485 124.474 577.96C124.29 578.435 124.005 578.898 123.619 579.347C123.239 579.791 122.748 580.275 122.147 580.801L120.351 582.397V582.938L119.078 582.501H124.873V585H116.523ZM130.422 572.612C132.044 572.612 133.269 573.046 134.099 573.913C134.935 574.781 135.353 576.064 135.353 577.761V580.022C135.353 581.7 134.884 582.995 133.947 583.907C133.016 584.813 131.619 585.266 129.757 585.266C129.035 585.266 128.408 585.206 127.876 585.086C127.351 584.971 126.917 584.838 126.575 584.687L126.28 582.102C126.667 582.286 127.097 582.444 127.572 582.577C128.054 582.71 128.605 582.777 129.225 582.777C130.321 582.777 131.125 582.543 131.638 582.074C132.151 581.605 132.408 580.88 132.408 579.898V577.476C132.408 576.659 132.243 576.054 131.914 575.661C131.591 575.262 131.081 575.063 130.384 575.063C129.776 575.063 129.327 575.215 129.035 575.519C128.744 575.817 128.598 576.219 128.598 576.725V576.953C128.598 577.473 128.738 577.875 129.016 578.16C129.301 578.439 129.754 578.578 130.375 578.578C130.698 578.578 130.992 578.527 131.258 578.426C131.531 578.318 131.768 578.163 131.971 577.96C132.18 577.758 132.345 577.517 132.465 577.238L133.044 578.739H132.313C132.205 579.151 132.022 579.512 131.762 579.822C131.509 580.133 131.173 580.373 130.755 580.544C130.337 580.715 129.821 580.801 129.206 580.801C128.06 580.801 127.189 580.481 126.594 579.841C126.005 579.195 125.71 578.302 125.71 577.162V576.668C125.71 575.383 126.109 574.385 126.907 573.676C127.712 572.967 128.883 572.612 130.422 572.612ZM139.526 585V572.859H142.481V585H139.526ZM141.227 580.772V578.274H147.525V580.772H141.227ZM140.381 575.357V572.859H147.668V575.357H140.381ZM153.465 585.238C151.768 585.238 150.514 584.861 149.703 584.107C148.892 583.347 148.487 582.242 148.487 580.791V579.822C148.487 578.391 148.867 577.295 149.627 576.535C150.387 575.769 151.492 575.386 152.942 575.386C153.918 575.386 154.728 575.554 155.374 575.889C156.027 576.219 156.514 576.691 156.837 577.305C157.167 577.919 157.331 578.657 157.331 579.518V579.832C157.331 580.073 157.319 580.32 157.293 580.573C157.274 580.82 157.246 581.051 157.208 581.266H154.586C154.611 580.899 154.627 580.554 154.633 580.231C154.64 579.902 154.643 579.604 154.643 579.338C154.643 578.952 154.583 578.629 154.462 578.369C154.342 578.103 154.155 577.9 153.902 577.761C153.655 577.622 153.335 577.552 152.942 577.552C152.36 577.552 151.932 577.71 151.66 578.027C151.394 578.337 151.261 578.781 151.261 579.357V580.212L151.28 580.525V581.19C151.28 581.431 151.318 581.659 151.394 581.874C151.476 582.09 151.616 582.28 151.812 582.444C152.015 582.603 152.29 582.729 152.638 582.824C152.993 582.913 153.443 582.957 153.987 582.957C154.564 582.957 155.118 582.904 155.65 582.796C156.182 582.682 156.692 582.53 157.179 582.34L156.942 584.525C156.511 584.747 156.001 584.921 155.412 585.048C154.823 585.174 154.174 585.238 153.465 585.238ZM150.026 581.266V579.471H156.619V581.266H150.026ZM164.234 585.219C163.676 585.219 163.208 585.127 162.828 584.943C162.448 584.759 162.144 584.5 161.916 584.164C161.688 583.822 161.526 583.426 161.431 582.976H160.681L161.374 581.019C161.387 581.406 161.463 581.732 161.602 581.998C161.741 582.264 161.941 582.47 162.201 582.615C162.46 582.755 162.764 582.824 163.113 582.824C163.645 582.824 164.047 582.669 164.319 582.359C164.591 582.042 164.728 581.57 164.728 580.943V579.623C164.728 579.002 164.591 578.537 164.319 578.226C164.053 577.916 163.654 577.761 163.122 577.761C162.824 577.761 162.552 577.818 162.305 577.932C162.064 578.046 161.859 578.198 161.688 578.388C161.523 578.572 161.403 578.784 161.327 579.024L160.671 577.685H161.469C161.564 577.267 161.719 576.89 161.935 576.554C162.15 576.212 162.451 575.943 162.837 575.747C163.23 575.544 163.727 575.443 164.329 575.443C165.418 575.443 166.241 575.801 166.799 576.516C167.362 577.226 167.644 578.293 167.644 579.718V580.858C167.644 582.296 167.362 583.382 166.799 584.116C166.235 584.851 165.38 585.219 164.234 585.219ZM158.524 585V572.45H161.412V575.243L161.365 578.236L161.374 578.492V582.074L161.327 582.634L161.412 585H158.524ZM171.756 579.756L170.958 577.989H171.642C171.794 577.216 172.088 576.611 172.525 576.174C172.969 575.731 173.592 575.509 174.397 575.509C174.536 575.509 174.663 575.519 174.777 575.538C174.897 575.557 175.011 575.579 175.119 575.604L175.261 578.54C175.128 578.502 174.973 578.477 174.796 578.464C174.618 578.445 174.438 578.435 174.254 578.435C173.634 578.435 173.111 578.553 172.687 578.787C172.262 579.015 171.952 579.338 171.756 579.756ZM168.906 585V575.661H171.642L171.518 578.644L171.813 578.682V585H168.906ZM178.881 575.661V581.152C178.881 581.494 178.925 581.792 179.014 582.045C179.102 582.292 179.251 582.486 179.46 582.625C179.669 582.758 179.954 582.824 180.315 582.824C180.619 582.824 180.882 582.771 181.104 582.663C181.332 582.555 181.522 582.41 181.674 582.226C181.832 582.042 181.949 581.84 182.025 581.618L182.472 582.976H181.978C181.876 583.394 181.708 583.774 181.474 584.116C181.246 584.458 180.929 584.728 180.524 584.924C180.125 585.12 179.612 585.219 178.985 585.219C178.295 585.219 177.725 585.086 177.275 584.819C176.832 584.547 176.502 584.145 176.287 583.613C176.078 583.081 175.974 582.416 175.974 581.618V575.661H178.881ZM184.885 575.661V585H181.997L182.092 582.663L181.978 582.397V575.661H184.885ZM191.789 585L191.875 582.663L191.808 582.52V579.604L191.789 579.224C191.789 578.705 191.637 578.321 191.333 578.074C191.029 577.827 190.519 577.704 189.804 577.704C189.177 577.704 188.581 577.783 188.018 577.941C187.454 578.1 186.922 578.28 186.422 578.483L186.669 576.231C186.966 576.092 187.299 575.962 187.666 575.842C188.04 575.715 188.452 575.614 188.901 575.538C189.351 575.462 189.832 575.424 190.345 575.424C191.162 575.424 191.846 575.519 192.397 575.709C192.948 575.899 193.388 576.168 193.718 576.516C194.047 576.865 194.285 577.283 194.43 577.77C194.576 578.252 194.649 578.784 194.649 579.366V585H191.789ZM188.816 585.219C187.885 585.219 187.179 584.984 186.697 584.515C186.216 584.047 185.975 583.379 185.975 582.511V582.254C185.975 581.336 186.257 580.658 186.821 580.221C187.391 579.778 188.293 579.477 189.528 579.319L192.036 578.986L192.207 580.734L189.984 581.057C189.535 581.114 189.218 581.219 189.034 581.371C188.851 581.523 188.759 581.748 188.759 582.045V582.112C188.759 582.397 188.851 582.625 189.034 582.796C189.218 582.961 189.512 583.043 189.918 583.043C190.272 583.043 190.576 582.989 190.83 582.881C191.089 582.774 191.302 582.634 191.466 582.463C191.631 582.286 191.754 582.09 191.837 581.874L192.245 583.052H191.77C191.669 583.458 191.511 583.825 191.295 584.154C191.086 584.484 190.782 584.743 190.383 584.933C189.984 585.124 189.462 585.219 188.816 585.219ZM198.93 579.756L198.132 577.989H198.816C198.968 577.216 199.263 576.611 199.7 576.174C200.143 575.731 200.767 575.509 201.571 575.509C201.711 575.509 201.837 575.519 201.951 575.538C202.072 575.557 202.186 575.579 202.293 575.604L202.436 578.54C202.303 578.502 202.148 578.477 201.97 578.464C201.793 578.445 201.612 578.435 201.429 578.435C200.808 578.435 200.286 578.553 199.861 578.787C199.437 579.015 199.127 579.338 198.93 579.756ZM196.08 585V575.661H198.816L198.693 578.644L198.987 578.682V585H196.08ZM208.684 582.672L207.126 583.347L209.225 575.661H212.199L208.389 588.268H205.482L206.936 583.518L208.304 584.601H205.083L202.556 575.661H205.549L207.164 582.672H208.684ZM214.714 581.903C214.74 582.055 214.762 582.229 214.781 582.425C214.8 582.615 214.809 582.821 214.809 583.043C214.809 583.86 214.686 584.614 214.439 585.304C214.192 586.001 213.787 586.666 213.223 587.299L211.228 586.834C211.513 586.308 211.728 585.747 211.874 585.152C212.026 584.557 212.102 583.892 212.102 583.157C212.102 582.935 212.096 582.726 212.083 582.53C212.077 582.334 212.061 582.125 212.035 581.903H214.714ZM218.457 585V582.321L221.431 579.737C221.931 579.3 222.343 578.917 222.666 578.587C222.995 578.258 223.242 577.945 223.407 577.647C223.572 577.349 223.654 577.036 223.654 576.706V576.621C223.654 576.323 223.591 576.067 223.464 575.851C223.337 575.63 223.125 575.459 222.827 575.338C222.536 575.218 222.147 575.158 221.659 575.158C221.057 575.158 220.49 575.247 219.958 575.424C219.426 575.595 218.955 575.785 218.543 575.994L218.799 573.429C219.072 573.283 219.385 573.15 219.74 573.03C220.101 572.903 220.503 572.802 220.946 572.726C221.396 572.65 221.884 572.612 222.409 572.612C223.828 572.612 224.895 572.929 225.611 573.562C226.327 574.195 226.684 575.082 226.684 576.222V576.355C226.684 576.95 226.593 577.485 226.409 577.96C226.225 578.435 225.94 578.898 225.554 579.347C225.174 579.791 224.683 580.275 224.081 580.801L222.286 582.397V582.938L221.013 582.501H226.808V585H218.457ZM232.674 585.266C231.027 585.266 229.779 584.829 228.931 583.955C228.088 583.081 227.667 581.798 227.667 580.107V577.742C227.667 576.064 228.088 574.787 228.931 573.913C229.773 573.039 231.021 572.602 232.674 572.602C234.327 572.602 235.574 573.039 236.417 573.913C237.265 574.787 237.69 576.064 237.69 577.742V580.107C237.69 581.798 237.265 583.081 236.417 583.955C235.574 584.829 234.327 585.266 232.674 585.266ZM232.674 582.815C233.364 582.815 233.867 582.596 234.184 582.159C234.501 581.722 234.659 581.083 234.659 580.24V577.628C234.659 576.779 234.501 576.14 234.184 575.709C233.867 575.272 233.364 575.053 232.674 575.053C231.983 575.053 231.48 575.272 231.163 575.709C230.853 576.14 230.698 576.779 230.698 577.628V580.24C230.698 581.083 230.856 581.722 231.173 582.159C231.496 582.596 231.996 582.815 232.674 582.815ZM238.479 585V582.321L241.452 579.737C241.953 579.3 242.364 578.917 242.687 578.587C243.017 578.258 243.264 577.945 243.428 577.647C243.593 577.349 243.675 577.036 243.675 576.706V576.621C243.675 576.323 243.612 576.067 243.485 575.851C243.359 575.63 243.146 575.459 242.849 575.338C242.557 575.218 242.168 575.158 241.68 575.158C241.079 575.158 240.512 575.247 239.98 575.424C239.448 575.595 238.976 575.785 238.564 575.994L238.821 573.429C239.093 573.283 239.407 573.15 239.761 573.03C240.122 572.903 240.524 572.802 240.968 572.726C241.417 572.65 241.905 572.612 242.431 572.612C243.849 572.612 244.917 572.929 245.632 573.562C246.348 574.195 246.706 575.082 246.706 576.222V576.355C246.706 576.95 246.614 577.485 246.43 577.96C246.247 578.435 245.962 578.898 245.575 579.347C245.195 579.791 244.704 580.275 244.103 580.801L242.307 582.397V582.938L241.034 582.501H246.829V585H238.479ZM253.079 585V578.046L253.193 574.892H252.965L250.077 580.402V581.58L248.947 580.563H257.259V582.976H247.208V580.231L251.217 572.859H255.901V585H253.079Z" fill="#FF7246"/>
<path d="M121.874 561.257C121.31 561.257 120.781 561.219 120.287 561.143C119.799 561.073 119.353 560.981 118.948 560.867C118.549 560.747 118.197 560.623 117.893 560.496L117.637 557.76C118.137 557.995 118.729 558.213 119.413 558.416C120.097 558.612 120.822 558.71 121.589 558.71C122.33 558.71 122.855 558.619 123.166 558.435C123.482 558.245 123.641 557.95 123.641 557.551V557.485C123.641 557.219 123.568 557.004 123.422 556.839C123.283 556.668 123.045 556.513 122.71 556.373C122.38 556.228 121.934 556.073 121.37 555.908C120.521 555.655 119.812 555.373 119.242 555.062C118.678 554.752 118.257 554.366 117.979 553.903C117.7 553.435 117.561 552.843 117.561 552.127V552.003C117.561 550.901 117.934 550.059 118.682 549.476C119.435 548.894 120.54 548.602 121.997 548.602C122.871 548.602 123.625 548.678 124.258 548.83C124.898 548.982 125.439 549.163 125.883 549.372L126.139 551.918C125.651 551.684 125.097 551.487 124.477 551.329C123.862 551.164 123.204 551.082 122.501 551.082C122.007 551.082 121.617 551.123 121.332 551.205C121.053 551.288 120.857 551.408 120.743 551.566C120.629 551.718 120.572 551.905 120.572 552.127V552.165C120.572 552.393 120.635 552.592 120.762 552.763C120.895 552.934 121.129 553.099 121.465 553.257C121.807 553.416 122.292 553.587 122.919 553.77C123.761 554.017 124.458 554.283 125.009 554.568C125.566 554.847 125.981 555.211 126.253 555.661C126.532 556.104 126.671 556.696 126.671 557.437V557.589C126.671 558.812 126.275 559.73 125.484 560.344C124.692 560.952 123.489 561.257 121.874 561.257ZM132.504 561.238C130.807 561.238 129.553 560.861 128.742 560.107C127.932 559.347 127.526 558.242 127.526 556.791V555.822C127.526 554.391 127.906 553.295 128.666 552.535C129.426 551.769 130.531 551.386 131.982 551.386C132.957 551.386 133.768 551.554 134.414 551.889C135.066 552.219 135.554 552.691 135.877 553.305C136.206 553.919 136.371 554.657 136.371 555.518V555.832C136.371 556.073 136.358 556.32 136.333 556.573C136.314 556.82 136.285 557.051 136.247 557.266H133.625C133.651 556.899 133.666 556.554 133.673 556.231C133.679 555.902 133.682 555.604 133.682 555.338C133.682 554.952 133.622 554.629 133.502 554.369C133.381 554.103 133.195 553.9 132.941 553.761C132.694 553.622 132.374 553.552 131.982 553.552C131.399 553.552 130.972 553.71 130.699 554.027C130.433 554.337 130.3 554.781 130.3 555.357V556.212L130.319 556.525V557.19C130.319 557.431 130.357 557.659 130.433 557.874C130.516 558.09 130.655 558.28 130.851 558.444C131.054 558.603 131.329 558.729 131.678 558.824C132.032 558.913 132.482 558.957 133.027 558.957C133.603 558.957 134.157 558.904 134.689 558.796C135.221 558.682 135.731 558.53 136.219 558.34L135.981 560.525C135.551 560.747 135.041 560.921 134.452 561.048C133.863 561.174 133.214 561.238 132.504 561.238ZM129.065 557.266V555.471H135.658V557.266H129.065ZM137.573 561V548.45H140.48V561H137.573ZM146.681 561.238C144.983 561.238 143.729 560.861 142.919 560.107C142.108 559.347 141.703 558.242 141.703 556.791V555.822C141.703 554.391 142.083 553.295 142.843 552.535C143.603 551.769 144.708 551.386 146.158 551.386C147.134 551.386 147.944 551.554 148.59 551.889C149.243 552.219 149.73 552.691 150.053 553.305C150.383 553.919 150.547 554.657 150.547 555.518V555.832C150.547 556.073 150.535 556.32 150.509 556.573C150.49 556.82 150.462 557.051 150.424 557.266H147.802C147.827 556.899 147.843 556.554 147.849 556.231C147.856 555.902 147.859 555.604 147.859 555.338C147.859 554.952 147.799 554.629 147.678 554.369C147.558 554.103 147.371 553.9 147.118 553.761C146.871 553.622 146.551 553.552 146.158 553.552C145.576 553.552 145.148 553.71 144.876 554.027C144.61 554.337 144.477 554.781 144.477 555.357V556.212L144.496 556.525V557.19C144.496 557.431 144.534 557.659 144.61 557.874C144.692 558.09 144.831 558.28 145.028 558.444C145.23 558.603 145.506 558.729 145.854 558.824C146.209 558.913 146.659 558.957 147.203 558.957C147.78 558.957 148.334 558.904 148.866 558.796C149.398 558.682 149.908 558.53 150.395 558.34L150.158 560.525C149.727 560.747 149.217 560.921 148.628 561.048C148.039 561.174 147.39 561.238 146.681 561.238ZM143.242 557.266V555.471H149.835V557.266H143.242ZM155.768 561.247C154.286 561.247 153.187 560.857 152.472 560.078C151.756 559.299 151.398 558.204 151.398 556.791V555.822C151.398 554.435 151.756 553.352 152.472 552.573C153.187 551.794 154.283 551.405 155.759 551.405C156.139 551.405 156.493 551.433 156.823 551.49C157.152 551.541 157.456 551.614 157.735 551.709C158.013 551.804 158.257 551.905 158.466 552.013L158.704 554.416C158.393 554.239 158.051 554.093 157.678 553.979C157.304 553.859 156.883 553.799 156.414 553.799C155.679 553.799 155.147 553.976 154.818 554.331C154.489 554.686 154.324 555.199 154.324 555.87V556.677C154.324 557.361 154.498 557.887 154.847 558.254C155.195 558.622 155.74 558.805 156.481 558.805C156.943 558.805 157.358 558.752 157.725 558.644C158.099 558.53 158.453 558.384 158.789 558.207L158.561 560.62C158.232 560.797 157.826 560.946 157.345 561.067C156.864 561.187 156.338 561.247 155.768 561.247ZM163.74 561.209C162.91 561.209 162.248 561.086 161.754 560.838C161.267 560.585 160.915 560.208 160.7 559.708C160.485 559.208 160.377 558.59 160.377 557.855V552.64H163.265V557.39C163.265 557.846 163.366 558.182 163.569 558.397C163.778 558.606 164.164 558.71 164.728 558.71C165.038 558.71 165.345 558.676 165.649 558.606C165.953 558.536 166.229 558.448 166.476 558.34L166.229 560.743C165.906 560.883 165.532 560.994 165.108 561.076C164.69 561.165 164.234 561.209 163.74 561.209ZM159.123 553.979V551.699H166.39L166.134 553.979H159.123ZM160.415 551.908L160.405 549.495L163.284 549.22L163.179 551.908H160.415ZM167.336 561V551.661H170.243V561H167.336ZM168.79 550.778C168.245 550.778 167.849 550.654 167.602 550.407C167.355 550.154 167.232 549.815 167.232 549.391V549.324C167.232 548.9 167.355 548.564 167.602 548.317C167.849 548.07 168.245 547.947 168.79 547.947C169.322 547.947 169.711 548.07 169.958 548.317C170.212 548.564 170.338 548.9 170.338 549.324V549.391C170.338 549.822 170.212 550.16 169.958 550.407C169.711 550.654 169.322 550.778 168.79 550.778ZM176.036 561.266C174.528 561.266 173.388 560.892 172.616 560.145C171.849 559.391 171.466 558.334 171.466 556.972V555.746C171.466 554.366 171.852 553.295 172.625 552.535C173.398 551.769 174.535 551.386 176.036 551.386C177.537 551.386 178.67 551.769 179.437 552.535C180.209 553.295 180.596 554.366 180.596 555.746V556.972C180.596 558.334 180.212 559.391 179.446 560.145C178.68 560.892 177.543 561.266 176.036 561.266ZM176.036 558.976C176.574 558.976 176.982 558.815 177.261 558.492C177.546 558.163 177.689 557.697 177.689 557.095V555.623C177.689 554.99 177.546 554.508 177.261 554.179C176.982 553.85 176.574 553.685 176.036 553.685C175.497 553.685 175.086 553.85 174.801 554.179C174.522 554.508 174.383 554.99 174.383 555.623V557.095C174.383 557.697 174.522 558.163 174.801 558.492C175.086 558.815 175.497 558.976 176.036 558.976ZM187.823 561V555.509C187.823 555.167 187.778 554.872 187.69 554.625C187.601 554.372 187.452 554.179 187.243 554.046C187.034 553.913 186.749 553.846 186.388 553.846C186.09 553.846 185.828 553.9 185.6 554.008C185.372 554.109 185.178 554.252 185.02 554.435C184.868 554.613 184.754 554.815 184.678 555.043L184.232 553.685H184.726C184.827 553.261 184.992 552.881 185.22 552.545C185.454 552.209 185.774 551.943 186.179 551.747C186.584 551.544 187.097 551.443 187.718 551.443C188.415 551.443 188.985 551.579 189.428 551.851C189.871 552.117 190.198 552.516 190.407 553.048C190.622 553.58 190.73 554.245 190.73 555.043V561H187.823ZM181.819 561V551.661H184.707L184.612 553.998L184.726 554.274V561H181.819Z" fill="#3B3A40"/>
<circle cx="91" cy="565" r="14" fill="#FF7C5C"/>
<path d="M134.969 761L135.349 748.859H139.491L141.496 756.098H141.619L143.624 748.859H147.766L148.146 761H145.267L145.182 757.019L145.096 752.174H144.953L142.873 759.575H140.232L138.152 752.174H138L137.924 757.029L137.848 761H134.969ZM155.004 761L155.089 758.663L155.023 758.52V755.604L155.004 755.224C155.004 754.705 154.852 754.321 154.548 754.074C154.244 753.827 153.734 753.704 153.018 753.704C152.391 753.704 151.796 753.783 151.232 753.941C150.669 754.1 150.137 754.28 149.636 754.483L149.883 752.231C150.181 752.092 150.514 751.962 150.881 751.842C151.255 751.715 151.666 751.614 152.116 751.538C152.566 751.462 153.047 751.424 153.56 751.424C154.377 751.424 155.061 751.519 155.612 751.709C156.163 751.899 156.603 752.168 156.932 752.516C157.262 752.865 157.499 753.283 157.645 753.77C157.791 754.252 157.863 754.784 157.863 755.366V761H155.004ZM152.03 761.219C151.099 761.219 150.393 760.984 149.912 760.515C149.431 760.047 149.19 759.379 149.19 758.511V758.254C149.19 757.336 149.472 756.658 150.035 756.221C150.605 755.778 151.508 755.477 152.743 755.319L155.251 754.986L155.422 756.734L153.199 757.057C152.749 757.114 152.433 757.219 152.249 757.371C152.065 757.523 151.973 757.748 151.973 758.045V758.112C151.973 758.397 152.065 758.625 152.249 758.796C152.433 758.961 152.727 759.043 153.132 759.043C153.487 759.043 153.791 758.989 154.044 758.881C154.304 758.774 154.516 758.634 154.681 758.463C154.846 758.286 154.969 758.09 155.051 757.874L155.46 759.052H154.985C154.884 759.458 154.725 759.825 154.51 760.154C154.301 760.484 153.997 760.743 153.598 760.933C153.199 761.124 152.676 761.219 152.03 761.219ZM162.145 755.756L161.347 753.989H162.031C162.183 753.216 162.477 752.611 162.914 752.174C163.358 751.731 163.982 751.509 164.786 751.509C164.925 751.509 165.052 751.519 165.166 751.538C165.286 751.557 165.4 751.579 165.508 751.604L165.65 754.54C165.517 754.502 165.362 754.477 165.185 754.464C165.008 754.445 164.827 754.435 164.643 754.435C164.023 754.435 163.5 754.553 163.076 754.787C162.652 755.015 162.341 755.338 162.145 755.756ZM159.295 761V751.661H162.031L161.907 754.644L162.202 754.682V761H159.295ZM170.365 761.247C168.883 761.247 167.784 760.857 167.068 760.078C166.353 759.299 165.995 758.204 165.995 756.791V755.822C165.995 754.435 166.353 753.352 167.068 752.573C167.784 751.794 168.88 751.405 170.355 751.405C170.735 751.405 171.09 751.433 171.419 751.49C171.749 751.541 172.053 751.614 172.331 751.709C172.61 751.804 172.854 751.905 173.063 752.013L173.3 754.416C172.99 754.239 172.648 754.093 172.274 753.979C171.901 753.859 171.479 753.799 171.011 753.799C170.276 753.799 169.744 753.976 169.415 754.331C169.085 754.686 168.921 755.199 168.921 755.87V756.677C168.921 757.361 169.095 757.887 169.443 758.254C169.792 758.622 170.336 758.805 171.077 758.805C171.54 758.805 171.954 758.752 172.322 758.644C172.695 758.53 173.05 758.384 173.386 758.207L173.158 760.62C172.828 760.797 172.423 760.946 171.942 761.067C171.46 761.187 170.935 761.247 170.365 761.247ZM180.459 761V755.509C180.459 755.167 180.415 754.872 180.326 754.625C180.237 754.372 180.088 754.179 179.879 754.046C179.677 753.913 179.392 753.846 179.024 753.846C178.727 753.846 178.464 753.9 178.236 754.008C178.008 754.109 177.818 754.252 177.666 754.435C177.52 754.613 177.406 754.815 177.324 755.043L176.735 753.685H177.409C177.504 753.261 177.666 752.881 177.894 752.545C178.122 752.209 178.435 751.943 178.834 751.747C179.24 751.544 179.746 751.443 180.354 751.443C181.051 751.443 181.621 751.579 182.064 751.851C182.508 752.117 182.834 752.516 183.043 753.048C183.258 753.58 183.366 754.245 183.366 755.043V761H180.459ZM174.455 761V748.45H177.343V751.243L177.295 754.321L177.362 754.549V761H174.455ZM187.46 757.295V754.977H192.913V757.295H187.46ZM197.093 761L197.473 748.859H201.615L203.62 756.098H203.743L205.748 748.859H209.89L210.27 761H207.391L207.306 757.019L207.22 752.174H207.078L204.997 759.575H202.356L200.276 752.174H200.124L200.048 757.029L199.972 761H197.093ZM217.128 761L217.213 758.663L217.147 758.52V755.604L217.128 755.224C217.128 754.705 216.976 754.321 216.672 754.074C216.368 753.827 215.858 753.704 215.142 753.704C214.515 753.704 213.92 753.783 213.356 753.941C212.793 754.1 212.261 754.28 211.76 754.483L212.007 752.231C212.305 752.092 212.638 751.962 213.005 751.842C213.379 751.715 213.79 751.614 214.24 751.538C214.69 751.462 215.171 751.424 215.684 751.424C216.501 751.424 217.185 751.519 217.736 751.709C218.287 751.899 218.727 752.168 219.056 752.516C219.386 752.865 219.623 753.283 219.769 753.77C219.915 754.252 219.987 754.784 219.987 755.366V761H217.128ZM214.154 761.219C213.223 761.219 212.517 760.984 212.036 760.515C211.555 760.047 211.314 759.379 211.314 758.511V758.254C211.314 757.336 211.596 756.658 212.159 756.221C212.729 755.778 213.632 755.477 214.867 755.319L217.375 754.986L217.546 756.734L215.323 757.057C214.873 757.114 214.557 757.219 214.373 757.371C214.189 757.523 214.097 757.748 214.097 758.045V758.112C214.097 758.397 214.189 758.625 214.373 758.796C214.557 758.961 214.851 759.043 215.256 759.043C215.611 759.043 215.915 758.989 216.168 758.881C216.428 758.774 216.64 758.634 216.805 758.463C216.97 758.286 217.093 758.09 217.175 757.874L217.584 759.052H217.109C217.008 759.458 216.849 759.825 216.634 760.154C216.425 760.484 216.121 760.743 215.722 760.933C215.323 761.124 214.8 761.219 214.154 761.219ZM226.387 758.672L224.829 759.347L226.928 751.661H229.902L226.092 764.268H223.185L224.639 759.518L226.007 760.601H222.786L220.259 751.661H223.252L224.867 758.672H226.387ZM134.523 780V777.321L137.496 774.737C137.996 774.3 138.408 773.917 138.731 773.587C139.06 773.258 139.307 772.945 139.472 772.647C139.637 772.349 139.719 772.036 139.719 771.706V771.621C139.719 771.323 139.656 771.067 139.529 770.851C139.402 770.63 139.19 770.459 138.893 770.338C138.601 770.218 138.212 770.158 137.724 770.158C137.122 770.158 136.556 770.247 136.024 770.424C135.492 770.595 135.02 770.785 134.608 770.994L134.865 768.429C135.137 768.283 135.45 768.15 135.805 768.03C136.166 767.903 136.568 767.802 137.012 767.726C137.461 767.65 137.949 767.612 138.475 767.612C139.893 767.612 140.96 767.929 141.676 768.562C142.392 769.195 142.75 770.082 142.75 771.222V771.355C142.75 771.95 142.658 772.485 142.474 772.96C142.29 773.435 142.005 773.898 141.619 774.347C141.239 774.791 140.748 775.275 140.147 775.801L138.351 777.397V777.938L137.078 777.501H142.873V780H134.523ZM148.739 780.266C147.092 780.266 145.844 779.829 144.996 778.955C144.153 778.081 143.732 776.798 143.732 775.107V772.742C143.732 771.064 144.153 769.787 144.996 768.913C145.838 768.039 147.086 767.602 148.739 767.602C150.392 767.602 151.639 768.039 152.482 768.913C153.33 769.787 153.755 771.064 153.755 772.742V775.107C153.755 776.798 153.33 778.081 152.482 778.955C151.639 779.829 150.392 780.266 148.739 780.266ZM148.739 777.815C149.429 777.815 149.932 777.596 150.249 777.159C150.566 776.722 150.724 776.083 150.724 775.24V772.628C150.724 771.779 150.566 771.14 150.249 770.709C149.932 770.272 149.429 770.053 148.739 770.053C148.048 770.053 147.545 770.272 147.228 770.709C146.918 771.14 146.763 771.779 146.763 772.628V775.24C146.763 776.083 146.921 776.722 147.238 777.159C147.561 777.596 148.061 777.815 148.739 777.815ZM154.544 780V777.321L157.517 774.737C158.018 774.3 158.429 773.917 158.752 773.587C159.082 773.258 159.329 772.945 159.493 772.647C159.658 772.349 159.74 772.036 159.74 771.706V771.621C159.74 771.323 159.677 771.067 159.55 770.851C159.424 770.63 159.211 770.459 158.914 770.338C158.622 770.218 158.233 770.158 157.745 770.158C157.144 770.158 156.577 770.247 156.045 770.424C155.513 770.595 155.041 770.785 154.629 770.994L154.886 768.429C155.158 768.283 155.472 768.15 155.826 768.03C156.187 767.903 156.589 767.802 157.033 767.726C157.482 767.65 157.97 767.612 158.496 767.612C159.914 767.612 160.982 767.929 161.697 768.562C162.413 769.195 162.771 770.082 162.771 771.222V771.355C162.771 771.95 162.679 772.485 162.495 772.96C162.312 773.435 162.027 773.898 161.64 774.347C161.26 774.791 160.769 775.275 160.168 775.801L158.372 777.397V777.938L157.099 777.501H162.894V780H154.544ZM169.144 780V773.046L169.258 769.892H169.03L166.142 775.402V776.58L165.012 775.563H173.324V777.976H163.273V775.231L167.282 767.859H171.966V780H169.144Z" fill="#FF7246"/>
<path d="M137.097 734.551V732.148H139.976C140.596 732.148 141.043 732.012 141.315 731.739C141.594 731.461 141.733 731.046 141.733 730.495V729.906C141.733 729.349 141.597 728.934 141.325 728.661C141.052 728.389 140.606 728.253 139.985 728.253H137.088V725.859H140.204C141.749 725.859 142.879 726.201 143.595 726.885C144.317 727.569 144.678 728.547 144.678 729.82V730.59C144.678 731.869 144.317 732.851 143.595 733.535C142.879 734.213 141.752 734.551 140.213 734.551H137.097ZM135.102 738V725.859H138.009V732.822L138.028 734.171V738H135.102ZM148.665 732.756L147.867 730.989H148.551C148.703 730.216 148.997 729.611 149.434 729.174C149.877 728.731 150.501 728.509 151.306 728.509C151.445 728.509 151.572 728.519 151.686 728.538C151.806 728.557 151.92 728.579 152.028 728.604L152.17 731.54C152.037 731.502 151.882 731.477 151.705 731.464C151.527 731.445 151.347 731.435 151.163 731.435C150.542 731.435 150.02 731.553 149.596 731.787C149.171 732.015 148.861 732.338 148.665 732.756ZM145.815 738V728.661H148.551L148.427 731.644L148.722 731.682V738H145.815ZM157.084 738.266C155.577 738.266 154.437 737.892 153.664 737.145C152.898 736.391 152.514 735.334 152.514 733.972V732.746C152.514 731.366 152.901 730.295 153.673 729.535C154.446 728.769 155.583 728.386 157.084 728.386C158.585 728.386 159.719 728.769 160.485 729.535C161.258 730.295 161.644 731.366 161.644 732.746V733.972C161.644 735.334 161.261 736.391 160.494 737.145C159.728 737.892 158.591 738.266 157.084 738.266ZM157.084 735.976C157.622 735.976 158.031 735.815 158.309 735.492C158.594 735.163 158.737 734.697 158.737 734.095V732.623C158.737 731.99 158.594 731.508 158.309 731.179C158.031 730.85 157.622 730.685 157.084 730.685C156.546 730.685 156.134 730.85 155.849 731.179C155.57 731.508 155.431 731.99 155.431 732.623V734.095C155.431 734.697 155.57 735.163 155.849 735.492C156.134 735.815 156.546 735.976 157.084 735.976ZM167.018 735.093C165.517 735.093 164.39 734.814 163.636 734.257C162.882 733.7 162.506 732.917 162.506 731.91V731.787C162.506 731.103 162.658 730.527 162.962 730.058C163.272 729.583 163.747 729.216 164.387 728.956C165.026 728.696 165.846 728.541 166.847 728.49L171.835 728.262V730.314L169.355 730.248V730.343C169.779 730.413 170.128 730.533 170.4 730.704C170.679 730.869 170.885 731.087 171.018 731.359C171.157 731.625 171.227 731.955 171.227 732.347V732.414C171.227 733.282 170.881 733.947 170.191 734.409C169.507 734.865 168.449 735.093 167.018 735.093ZM166.876 739.511H167.161C167.617 739.511 167.984 739.482 168.263 739.425C168.548 739.368 168.757 739.283 168.89 739.169C169.023 739.055 169.089 738.912 169.089 738.741V738.722C169.089 738.5 168.994 738.342 168.804 738.247C168.62 738.152 168.342 738.089 167.968 738.057L165.213 737.781L165.85 737.743C165.66 737.775 165.495 737.829 165.356 737.905C165.223 737.981 165.115 738.076 165.033 738.19C164.957 738.304 164.919 738.443 164.919 738.608V738.627C164.919 738.817 164.988 738.979 165.128 739.112C165.267 739.245 165.479 739.343 165.764 739.406C166.055 739.476 166.426 739.511 166.876 739.511ZM166.733 741.639C165.796 741.639 164.995 741.563 164.33 741.411C163.671 741.265 163.171 741.031 162.829 740.708C162.487 740.385 162.316 739.957 162.316 739.425V739.387C162.316 739.026 162.395 738.722 162.553 738.475C162.711 738.228 162.939 738.035 163.237 737.895C163.535 737.756 163.883 737.671 164.282 737.639V737.544C163.794 737.455 163.418 737.3 163.152 737.078C162.892 736.857 162.762 736.546 162.762 736.147V736.138C162.762 735.853 162.825 735.612 162.952 735.416C163.085 735.22 163.278 735.071 163.532 734.969C163.785 734.862 164.095 734.798 164.463 734.779V734.466L166.61 735.007L165.983 734.998C165.761 734.998 165.603 735.026 165.508 735.083C165.419 735.14 165.375 735.226 165.375 735.34V735.349C165.375 735.489 165.447 735.59 165.593 735.653C165.745 735.71 165.989 735.758 166.325 735.796L168.538 736.052C169.615 736.179 170.416 736.445 170.942 736.85C171.467 737.256 171.73 737.883 171.73 738.732V738.789C171.73 739.435 171.546 739.967 171.179 740.385C170.818 740.809 170.292 741.122 169.602 741.325C168.918 741.534 168.082 741.639 167.094 741.639H166.733ZM166.923 733.136C167.297 733.136 167.604 733.088 167.845 732.993C168.092 732.892 168.275 732.746 168.396 732.556C168.522 732.36 168.586 732.126 168.586 731.853V731.768C168.586 731.496 168.525 731.264 168.405 731.074C168.285 730.884 168.101 730.742 167.854 730.647C167.613 730.546 167.303 730.495 166.923 730.495H166.914C166.527 730.495 166.211 730.546 165.964 730.647C165.717 730.748 165.533 730.894 165.413 731.084C165.299 731.274 165.242 731.505 165.242 731.777V731.853C165.242 732.126 165.302 732.36 165.422 732.556C165.549 732.746 165.736 732.892 165.983 732.993C166.23 733.088 166.543 733.136 166.923 733.136ZM175.449 732.756L174.651 730.989H175.335C175.487 730.216 175.782 729.611 176.219 729.174C176.662 728.731 177.286 728.509 178.09 728.509C178.23 728.509 178.356 728.519 178.47 728.538C178.591 728.557 178.705 728.579 178.812 728.604L178.955 731.54C178.822 731.502 178.667 731.477 178.489 731.464C178.312 731.445 178.132 731.435 177.948 731.435C177.327 731.435 176.805 731.553 176.38 731.787C175.956 732.015 175.646 732.338 175.449 732.756ZM172.599 738V728.661H175.335L175.212 731.644L175.506 731.682V738H172.599ZM184.878 738L184.964 735.663L184.897 735.52V732.604L184.878 732.224C184.878 731.705 184.726 731.321 184.422 731.074C184.118 730.827 183.609 730.704 182.893 730.704C182.266 730.704 181.671 730.783 181.107 730.941C180.543 731.1 180.011 731.28 179.511 731.483L179.758 729.231C180.056 729.092 180.388 728.962 180.755 728.842C181.129 728.715 181.541 728.614 181.99 728.538C182.44 728.462 182.921 728.424 183.434 728.424C184.251 728.424 184.935 728.519 185.486 728.709C186.037 728.899 186.478 729.168 186.807 729.516C187.136 729.865 187.374 730.283 187.519 730.77C187.665 731.252 187.738 731.784 187.738 732.366V738H184.878ZM181.905 738.219C180.974 738.219 180.268 737.984 179.786 737.515C179.305 737.047 179.064 736.379 179.064 735.511V735.254C179.064 734.336 179.346 733.658 179.91 733.221C180.48 732.778 181.382 732.477 182.617 732.319L185.125 731.986L185.296 733.734L183.073 734.057C182.624 734.114 182.307 734.219 182.123 734.371C181.94 734.523 181.848 734.748 181.848 735.045V735.112C181.848 735.397 181.94 735.625 182.123 735.796C182.307 735.961 182.602 736.043 183.007 736.043C183.362 736.043 183.666 735.989 183.919 735.881C184.179 735.774 184.391 735.634 184.555 735.463C184.72 735.286 184.844 735.09 184.926 734.874L185.334 736.052H184.859C184.758 736.458 184.6 736.825 184.384 737.154C184.175 737.484 183.871 737.743 183.472 737.933C183.073 738.124 182.551 738.219 181.905 738.219ZM200.607 738V732.433C200.607 732.104 200.566 731.822 200.484 731.587C200.408 731.347 200.275 731.163 200.085 731.036C199.901 730.91 199.645 730.846 199.315 730.846C199.037 730.846 198.793 730.9 198.584 731.008C198.375 731.109 198.201 731.252 198.061 731.435C197.922 731.613 197.818 731.815 197.748 732.043L197.472 730.685H197.729C197.83 730.267 197.992 729.89 198.213 729.554C198.435 729.212 198.742 728.943 199.135 728.747C199.528 728.544 200.031 728.443 200.645 728.443C201.31 728.443 201.852 728.576 202.27 728.842C202.694 729.102 203.008 729.494 203.21 730.02C203.413 730.539 203.514 731.188 203.514 731.967V738H200.607ZM189.169 738V728.661H192.057L191.962 731.179L192.076 731.274V738H189.169ZM194.888 738V732.433C194.888 732.104 194.847 731.822 194.765 731.587C194.689 731.347 194.556 731.163 194.366 731.036C194.176 730.91 193.919 730.846 193.596 730.846C193.311 730.846 193.064 730.9 192.855 731.008C192.646 731.109 192.472 731.252 192.333 731.435C192.2 731.613 192.099 731.815 192.029 732.043L191.582 730.685H192.076C192.171 730.261 192.327 729.881 192.542 729.545C192.764 729.209 193.068 728.943 193.454 728.747C193.84 728.544 194.328 728.443 194.917 728.443C195.785 728.443 196.437 728.668 196.874 729.117C197.317 729.561 197.596 730.207 197.71 731.055C197.729 731.182 197.748 731.337 197.767 731.521C197.786 731.705 197.795 731.869 197.795 732.015V738H194.888ZM214.679 738L214.441 735.71C214.403 735.305 214.324 734.976 214.204 734.722C214.084 734.463 213.9 734.273 213.653 734.152C213.406 734.026 213.077 733.962 212.665 733.962L209.919 733.953V731.682L212.779 731.673C213.4 731.673 213.846 731.537 214.118 731.264C214.391 730.992 214.527 730.584 214.527 730.039V729.849C214.527 729.311 214.391 728.908 214.118 728.642C213.852 728.37 213.403 728.234 212.769 728.234H209.9V725.859H213.197C214.685 725.859 215.771 726.147 216.455 726.723C217.146 727.3 217.491 728.129 217.491 729.212V729.459C217.491 730.276 217.282 730.913 216.864 731.369C216.446 731.825 215.809 732.085 214.954 732.148V732.566L214.346 732.157C215.081 732.208 215.651 732.36 216.056 732.613C216.462 732.867 216.759 733.221 216.949 733.677C217.146 734.127 217.288 734.688 217.377 735.359L217.728 738H214.679ZM207.858 738V725.859H210.746V732.499L210.765 733.601V738H207.858ZM221.522 728.661V734.152C221.522 734.494 221.566 734.792 221.655 735.045C221.744 735.292 221.892 735.486 222.101 735.625C222.31 735.758 222.595 735.824 222.956 735.824C223.26 735.824 223.523 735.771 223.745 735.663C223.973 735.555 224.163 735.41 224.315 735.226C224.473 735.042 224.59 734.84 224.666 734.618L225.113 735.976H224.619C224.518 736.394 224.35 736.774 224.115 737.116C223.887 737.458 223.571 737.728 223.165 737.924C222.766 738.12 222.253 738.219 221.626 738.219C220.936 738.219 220.366 738.086 219.916 737.819C219.473 737.547 219.144 737.145 218.928 736.613C218.719 736.081 218.615 735.416 218.615 734.618V728.661H221.522ZM227.526 728.661V738H224.638L224.733 735.663L224.619 735.397V728.661H227.526ZM235.086 738V732.509C235.086 732.167 235.042 731.872 234.953 731.625C234.864 731.372 234.716 731.179 234.507 731.046C234.298 730.913 234.013 730.846 233.652 730.846C233.354 730.846 233.091 730.9 232.863 731.008C232.635 731.109 232.442 731.252 232.284 731.435C232.132 731.613 232.018 731.815 231.942 732.043L231.495 730.685H231.989C232.09 730.261 232.255 729.881 232.483 729.545C232.717 729.209 233.037 728.943 233.443 728.747C233.848 728.544 234.361 728.443 234.982 728.443C235.678 728.443 236.248 728.579 236.692 728.851C237.135 729.117 237.461 729.516 237.67 730.048C237.885 730.58 237.993 731.245 237.993 732.043V738H235.086ZM229.082 738V728.661H231.97L231.875 730.998L231.989 731.274V738H229.082Z" fill="#3B3A40"/>
<circle cx="269" cy="730" r="14" fill="#FF7C5C"/>
<defs>
<linearGradient id="paint0_linear_532_906" x1="221.5" y1="32" x2="221.5" y2="842" gradientUnits="userSpaceOnUse">
<stop stop-color="#FF7D5D"/>
<stop offset="1" stop-color="#FFDB9B"/>
</linearGradient>
</defs>
</svg>
